solid AutoCAD
   facet normal -9.9518473e-001 -9.8017140e-002 3.1497370e-016
      outer loop
         vertex 8.0000000e+001 9.0000000e+001 0.0000000e+000
         vertex 8.0192147e+001 8.8049097e+001 0.0000000e+000
         vertex 8.0192147e+001 8.8049097e+001 5.0000000e+001
      endloop
   endfacet
   facet normal -9.9518473e-001 -9.8017140e-002 -2.7858147e-016
      outer loop
         vertex 8.0000000e+001 9.0000000e+001 5.0000000e+001
         vertex 8.0000000e+001 9.0000000e+001 0.0000000e+000
         vertex 8.0192147e+001 8.8049097e+001 5.0000000e+001
      endloop
   endfacet
   facet normal -9.5694034e-001 -2.9028468e-001 3.4538040e-016
      outer loop
         vertex 8.0761205e+001 8.6173166e+001 0.0000000e+000
         vertex 8.0761205e+001 8.6173166e+001 5.0000000e+001
         vertex 8.0192147e+001 8.8049097e+001 5.0000000e+001
      endloop
   endfacet
   facet normal -9.5694034e-001 -2.9028468e-001 -1.9935213e-016
      outer loop
         vertex 8.0192147e+001 8.8049097e+001 0.0000000e+000
         vertex 8.0761205e+001 8.6173166e+001 0.0000000e+000
         vertex 8.0192147e+001 8.8049097e+001 5.0000000e+001
      endloop
   endfacet
   facet normal -8.8192126e-001 -4.7139674e-001 2.9813150e-016
      outer loop
         vertex 8.1685304e+001 8.4444298e+001 0.0000000e+000
         vertex 8.1685304e+001 8.4444298e+001 5.0000000e+001
         vertex 8.0761205e+001 8.6173166e+001 5.0000000e+001
      endloop
   endfacet
   facet normal -8.8192126e-001 -4.7139674e-001 -2.0161749e-016
      outer loop
         vertex 8.0761205e+001 8.6173166e+001 0.0000000e+000
         vertex 8.1685304e+001 8.4444298e+001 0.0000000e+000
         vertex 8.0761205e+001 8.6173166e+001 5.0000000e+001
      endloop
   endfacet
   facet normal -7.7301045e-001 -6.3439328e-001 2.7578158e-016
      outer loop
         vertex 8.2928932e+001 8.2928932e+001 0.0000000e+000
         vertex 8.2928932e+001 8.2928932e+001 5.0000000e+001
         vertex 8.1685304e+001 8.4444298e+001 5.0000000e+001
      endloop
   endfacet
   facet normal -7.7301045e-001 -6.3439328e-001 -3.0355892e-016
      outer loop
         vertex 8.1685304e+001 8.4444298e+001 0.0000000e+000
         vertex 8.2928932e+001 8.2928932e+001 0.0000000e+000
         vertex 8.1685304e+001 8.4444298e+001 5.0000000e+001
      endloop
   endfacet
   facet normal -6.3439328e-001 -7.7301045e-001 5.2423482e-016
      outer loop
         vertex 8.4444298e+001 8.1685304e+001 0.0000000e+000
         vertex 8.4444298e+001 8.1685304e+001 5.0000000e+001
         vertex 8.2928932e+001 8.2928932e+001 5.0000000e+001
      endloop
   endfacet
   facet normal -6.3439328e-001 -7.7301045e-001 -2.7410917e-016
      outer loop
         vertex 8.2928932e+001 8.2928932e+001 0.0000000e+000
         vertex 8.4444298e+001 8.1685304e+001 0.0000000e+000
         vertex 8.2928932e+001 8.2928932e+001 5.0000000e+001
      endloop
   endfacet
   facet normal -4.7139674e-001 -8.8192126e-001 3.3716171e-016
      outer loop
         vertex 8.6173166e+001 8.0761205e+001 0.0000000e+000
         vertex 8.6173166e+001 8.0761205e+001 5.0000000e+001
         vertex 8.4444298e+001 8.1685304e+001 5.0000000e+001
      endloop
   endfacet
   facet normal -4.7139674e-001 -8.8192126e-001 -4.7572666e-017
      outer loop
         vertex 8.4444298e+001 8.1685304e+001 0.0000000e+000
         vertex 8.6173166e+001 8.0761205e+001 0.0000000e+000
         vertex 8.4444298e+001 8.1685304e+001 5.0000000e+001
      endloop
   endfacet
   facet normal -2.9028468e-001 -9.5694034e-001 2.8108107e-016
      outer loop
         vertex 8.8049097e+001 8.0192147e+001 0.0000000e+000
         vertex 8.8049097e+001 8.0192147e+001 5.0000000e+001
         vertex 8.6173166e+001 8.0761205e+001 5.0000000e+001
      endloop
   endfacet
   facet normal -2.9028468e-001 -9.5694034e-001 -2.6278235e-016
      outer loop
         vertex 8.6173166e+001 8.0761205e+001 0.0000000e+000
         vertex 8.8049097e+001 8.0192147e+001 0.0000000e+000
         vertex 8.6173166e+001 8.0761205e+001 5.0000000e+001
      endloop
   endfacet
   facet normal -9.8017140e-002 -9.9518473e-001 2.5072332e-016
      outer loop
         vertex 8.8049097e+001 8.0192147e+001 0.0000000e+000
         vertex 9.0000000e+001 8.0000000e+001 0.0000000e+000
         vertex 9.0000000e+001 8.0000000e+001 5.0000000e+001
      endloop
   endfacet
   facet normal -9.8017140e-002 -9.9518473e-001 -2.8711555e-016
      outer loop
         vertex 8.8049097e+001 8.0192147e+001 5.0000000e+001
         vertex 8.8049097e+001 8.0192147e+001 0.0000000e+000
         vertex 9.0000000e+001 8.0000000e+001 5.0000000e+001
      endloop
   endfacet
   facet normal 9.8017140e-002 -9.9518473e-001 2.8711555e-016
      outer loop
         vertex 9.1950903e+001 8.0192147e+001 0.0000000e+000
         vertex 9.1950903e+001 8.0192147e+001 5.0000000e+001
         vertex 9.0000000e+001 8.0000000e+001 5.0000000e+001
      endloop
   endfacet
   facet normal 9.8017140e-002 -9.9518473e-001 -2.5088918e-016
      outer loop
         vertex 9.0000000e+001 8.0000000e+001 0.0000000e+000
         vertex 9.1950903e+001 8.0192147e+001 0.0000000e+000
         vertex 9.0000000e+001 8.0000000e+001 5.0000000e+001
      endloop
   endfacet
   facet normal 2.9028468e-001 -9.5694034e-001 7.3401598e-017
      outer loop
         vertex 9.3826834e+001 8.0761205e+001 0.0000000e+000
         vertex 9.3826834e+001 8.0761205e+001 5.0000000e+001
         vertex 9.1950903e+001 8.0192147e+001 5.0000000e+001
      endloop
   endfacet
   facet normal 2.9028468e-001 -9.5694034e-001 -2.8090527e-016
      outer loop
         vertex 9.1950903e+001 8.0192147e+001 0.0000000e+000
         vertex 9.3826834e+001 8.0761205e+001 0.0000000e+000
         vertex 9.1950903e+001 8.0192147e+001 5.0000000e+001
      endloop
   endfacet
   facet normal 4.7139674e-001 -8.8192126e-001 2.9813150e-016
      outer loop
         vertex 9.5555702e+001 8.1685304e+001 0.0000000e+000
         vertex 9.5555702e+001 8.1685304e+001 5.0000000e+001
         vertex 9.3826834e+001 8.0761205e+001 5.0000000e+001
      endloop
   endfacet
   facet normal 4.7139674e-001 -8.8192126e-001 -4.5307301e-016
      outer loop
         vertex 9.3826834e+001 8.0761205e+001 0.0000000e+000
         vertex 9.5555702e+001 8.1685304e+001 0.0000000e+000
         vertex 9.3826834e+001 8.0761205e+001 5.0000000e+001
      endloop
   endfacet
   facet normal 6.3439328e-001 -7.7301045e-001 2.7578158e-016
      outer loop
         vertex 9.7071068e+001 8.2928932e+001 0.0000000e+000
         vertex 9.7071068e+001 8.2928932e+001 5.0000000e+001
         vertex 9.5555702e+001 8.1685304e+001 5.0000000e+001
      endloop
   endfacet
   facet normal 6.3439328e-001 -7.7301045e-001 -3.0355892e-016
      outer loop
         vertex 9.5555702e+001 8.1685304e+001 0.0000000e+000
         vertex 9.7071068e+001 8.2928932e+001 0.0000000e+000
         vertex 9.5555702e+001 8.1685304e+001 5.0000000e+001
      endloop
   endfacet
   facet normal 7.7301045e-001 -6.3439328e-001 1.2422662e-016
      outer loop
         vertex 9.7071068e+001 8.2928932e+001 0.0000000e+000
         vertex 9.8314696e+001 8.4444298e+001 0.0000000e+000
         vertex 9.8314696e+001 8.4444298e+001 5.0000000e+001
      endloop
   endfacet
   facet normal 7.7301045e-001 -6.3439328e-001 -2.7578158e-016
      outer loop
         vertex 9.7071068e+001 8.2928932e+001 5.0000000e+001
         vertex 9.7071068e+001 8.2928932e+001 0.0000000e+000
         vertex 9.8314696e+001 8.4444298e+001 5.0000000e+001
      endloop
   endfacet
   facet normal 8.8192126e-001 -4.7139674e-001 2.0318270e-016
      outer loop
         vertex 9.8314696e+001 8.4444298e+001 0.0000000e+000
         vertex 9.9238795e+001 8.6173166e+001 0.0000000e+000
         vertex 9.9238795e+001 8.6173166e+001 5.0000000e+001
      endloop
   endfacet
   facet normal 8.8192126e-001 -4.7139674e-001 -4.3211051e-016
      outer loop
         vertex 9.8314696e+001 8.4444298e+001 5.0000000e+001
         vertex 9.8314696e+001 8.4444298e+001 0.0000000e+000
         vertex 9.9238795e+001 8.6173166e+001 5.0000000e+001
      endloop
   endfacet
   facet normal 9.5694034e-001 -2.9028468e-001 1.9857720e-016
      outer loop
         vertex 9.9238795e+001 8.6173166e+001 0.0000000e+000
         vertex 9.9807853e+001 8.8049097e+001 0.0000000e+000
         vertex 9.9807853e+001 8.8049097e+001 5.0000000e+001
      endloop
   endfacet
   facet normal 9.5694034e-001 -2.9028468e-001 -3.4538040e-016
      outer loop
         vertex 9.9238795e+001 8.6173166e+001 5.0000000e+001
         vertex 9.9238795e+001 8.6173166e+001 0.0000000e+000
         vertex 9.9807853e+001 8.8049097e+001 5.0000000e+001
      endloop
   endfacet
   facet normal 9.9518473e-001 -9.8017140e-002 0.0000000e+000
      outer loop
         vertex 1.0000000e+002 9.0000000e+001 0.0000000e+000
         vertex 1.0000000e+002 9.0000000e+001 5.0000000e+001
         vertex 9.9807853e+001 8.8049097e+001 5.0000000e+001
      endloop
   endfacet
   facet normal 9.9518473e-001 -9.8017140e-002 -3.1488574e-016
      outer loop
         vertex 9.9807853e+001 8.8049097e+001 0.0000000e+000
         vertex 1.0000000e+002 9.0000000e+001 0.0000000e+000
         vertex 9.9807853e+001 8.8049097e+001 5.0000000e+001
      endloop
   endfacet
   facet normal 9.9518473e-001 9.8017140e-002 3.1497370e-016
      outer loop
         vertex 9.9807853e+001 9.1950903e+001 0.0000000e+000
         vertex 9.9807853e+001 9.1950903e+001 5.0000000e+001
         vertex 1.0000000e+002 9.0000000e+001 5.0000000e+001
      endloop
   endfacet
   facet normal 9.9518473e-001 9.8017140e-002 0.0000000e+000
      outer loop
         vertex 1.0000000e+002 9.0000000e+001 0.0000000e+000
         vertex 9.9807853e+001 9.1950903e+001 0.0000000e+000
         vertex 1.0000000e+002 9.0000000e+001 5.0000000e+001
      endloop
   endfacet
   facet normal 9.5694034e-001 2.9028468e-001 3.4538040e-016
      outer loop
         vertex 9.9238795e+001 9.3826834e+001 0.0000000e+000
         vertex 9.9238795e+001 9.3826834e+001 5.0000000e+001
         vertex 9.9807853e+001 9.1950903e+001 5.0000000e+001
      endloop
   endfacet
   facet normal 9.5694034e-001 2.9028468e-001 -1.9935213e-016
      outer loop
         vertex 9.9807853e+001 9.1950903e+001 0.0000000e+000
         vertex 9.9238795e+001 9.3826834e+001 0.0000000e+000
         vertex 9.9807853e+001 9.1950903e+001 5.0000000e+001
      endloop
   endfacet
   facet normal 8.8192126e-001 4.7139674e-001 4.3211051e-016
      outer loop
         vertex 9.8314696e+001 9.5555702e+001 0.0000000e+000
         vertex 9.8314696e+001 9.5555702e+001 5.0000000e+001
         vertex 9.9238795e+001 9.3826834e+001 5.0000000e+001
      endloop
   endfacet
   facet normal 8.8192126e-001 4.7139674e-001 -2.0388286e-016
      outer loop
         vertex 9.9238795e+001 9.3826834e+001 0.0000000e+000
         vertex 9.8314696e+001 9.5555702e+001 0.0000000e+000
         vertex 9.9238795e+001 9.3826834e+001 5.0000000e+001
      endloop
   endfacet
   facet normal 7.7301045e-001 6.3439328e-001 2.7578158e-016
      outer loop
         vertex 9.7071068e+001 9.7071068e+001 0.0000000e+000
         vertex 9.7071068e+001 9.7071068e+001 5.0000000e+001
         vertex 9.8314696e+001 9.5555702e+001 5.0000000e+001
      endloop
   endfacet
   facet normal 7.7301045e-001 6.3439328e-001 -1.2459508e-016
      outer loop
         vertex 9.8314696e+001 9.5555702e+001 0.0000000e+000
         vertex 9.7071068e+001 9.7071068e+001 0.0000000e+000
         vertex 9.8314696e+001 9.5555702e+001 5.0000000e+001
      endloop
   endfacet
   facet normal 6.3439328e-001 7.7301045e-001 3.0453203e-016
      outer loop
         vertex 9.5555702e+001 9.8314696e+001 0.0000000e+000
         vertex 9.5555702e+001 9.8314696e+001 5.0000000e+001
         vertex 9.7071068e+001 9.7071068e+001 5.0000000e+001
      endloop
   endfacet
   facet normal 6.3439328e-001 7.7301045e-001 -2.7637454e-016
      outer loop
         vertex 9.7071068e+001 9.7071068e+001 0.0000000e+000
         vertex 9.5555702e+001 9.8314696e+001 0.0000000e+000
         vertex 9.7071068e+001 9.7071068e+001 5.0000000e+001
      endloop
   endfacet
   facet normal 4.7139674e-001 8.8192126e-001 4.5383980e-016
      outer loop
         vertex 9.3826834e+001 9.9238795e+001 0.0000000e+000
         vertex 9.3826834e+001 9.9238795e+001 5.0000000e+001
         vertex 9.5555702e+001 9.8314696e+001 5.0000000e+001
      endloop
   endfacet
   facet normal 4.7139674e-001 8.8192126e-001 -2.9902819e-016
      outer loop
         vertex 9.5555702e+001 9.8314696e+001 0.0000000e+000
         vertex 9.3826834e+001 9.9238795e+001 0.0000000e+000
         vertex 9.5555702e+001 9.8314696e+001 5.0000000e+001
      endloop
   endfacet
   facet normal 2.9028468e-001 9.5694034e-001 2.8108107e-016
      outer loop
         vertex 9.1950903e+001 9.9807853e+001 0.0000000e+000
         vertex 9.1950903e+001 9.9807853e+001 5.0000000e+001
         vertex 9.3826834e+001 9.9238795e+001 5.0000000e+001
      endloop
   endfacet
   facet normal 2.9028468e-001 9.5694034e-001 -7.4757047e-017
      outer loop
         vertex 9.3826834e+001 9.9238795e+001 0.0000000e+000
         vertex 9.1950903e+001 9.9807853e+001 0.0000000e+000
         vertex 9.3826834e+001 9.9238795e+001 5.0000000e+001
      endloop
   endfacet
   facet normal 9.8017140e-002 9.9518473e-001 2.5072332e-016
      outer loop
         vertex 9.0000000e+001 1.0000000e+002 0.0000000e+000
         vertex 9.0000000e+001 1.0000000e+002 5.0000000e+001
         vertex 9.1950903e+001 9.9807853e+001 5.0000000e+001
      endloop
   endfacet
   facet normal 9.8017140e-002 9.9518473e-001 -2.8713502e-016
      outer loop
         vertex 9.1950903e+001 9.9807853e+001 0.0000000e+000
         vertex 9.0000000e+001 1.0000000e+002 0.0000000e+000
         vertex 9.1950903e+001 9.9807853e+001 5.0000000e+001
      endloop
   endfacet
   facet normal -9.8017140e-002 9.9518473e-001 2.8711555e-016
      outer loop
         vertex 8.8049097e+001 9.9807853e+001 0.0000000e+000
         vertex 8.8049097e+001 9.9807853e+001 5.0000000e+001
         vertex 9.0000000e+001 1.0000000e+002 5.0000000e+001
      endloop
   endfacet
   facet normal -9.8017140e-002 9.9518473e-001 -2.5088918e-016
      outer loop
         vertex 9.0000000e+001 1.0000000e+002 0.0000000e+000
         vertex 8.8049097e+001 9.9807853e+001 0.0000000e+000
         vertex 9.0000000e+001 1.0000000e+002 5.0000000e+001
      endloop
   endfacet
   facet normal -2.9028468e-001 9.5694034e-001 2.6287653e-016
      outer loop
         vertex 8.6173166e+001 9.9238795e+001 0.0000000e+000
         vertex 8.6173166e+001 9.9238795e+001 5.0000000e+001
         vertex 8.8049097e+001 9.9807853e+001 5.0000000e+001
      endloop
   endfacet
   facet normal -2.9028468e-001 9.5694034e-001 -2.8317063e-016
      outer loop
         vertex 8.8049097e+001 9.9807853e+001 0.0000000e+000
         vertex 8.6173166e+001 9.9238795e+001 0.0000000e+000
         vertex 8.8049097e+001 9.9807853e+001 5.0000000e+001
      endloop
   endfacet
   facet normal -4.7139674e-001 8.8192126e-001 4.7474399e-017
      outer loop
         vertex 8.4444298e+001 9.8314696e+001 0.0000000e+000
         vertex 8.4444298e+001 9.8314696e+001 5.0000000e+001
         vertex 8.6173166e+001 9.9238795e+001 5.0000000e+001
      endloop
   endfacet
   facet normal -4.7139674e-001 8.8192126e-001 -3.3753939e-016
      outer loop
         vertex 8.6173166e+001 9.9238795e+001 0.0000000e+000
         vertex 8.4444298e+001 9.8314696e+001 0.0000000e+000
         vertex 8.6173166e+001 9.9238795e+001 5.0000000e+001
      endloop
   endfacet
   facet normal -6.3439328e-001 7.7301045e-001 2.7578158e-016
      outer loop
         vertex 8.2928932e+001 9.7071068e+001 0.0000000e+000
         vertex 8.2928932e+001 9.7071068e+001 5.0000000e+001
         vertex 8.4444298e+001 9.8314696e+001 5.0000000e+001
      endloop
   endfacet
   facet normal -6.3439328e-001 7.7301045e-001 -5.2556469e-016
      outer loop
         vertex 8.4444298e+001 9.8314696e+001 0.0000000e+000
         vertex 8.2928932e+001 9.7071068e+001 0.0000000e+000
         vertex 8.4444298e+001 9.8314696e+001 5.0000000e+001
      endloop
   endfacet
   facet normal -7.7301045e-001 6.3439328e-001 3.0453203e-016
      outer loop
         vertex 8.1685304e+001 9.5555702e+001 0.0000000e+000
         vertex 8.1685304e+001 9.5555702e+001 5.0000000e+001
         vertex 8.2928932e+001 9.7071068e+001 5.0000000e+001
      endloop
   endfacet
   facet normal -7.7301045e-001 6.3439328e-001 -2.7637454e-016
      outer loop
         vertex 8.2928932e+001 9.7071068e+001 0.0000000e+000
         vertex 8.1685304e+001 9.5555702e+001 0.0000000e+000
         vertex 8.2928932e+001 9.7071068e+001 5.0000000e+001
      endloop
   endfacet
   facet normal -8.8192126e-001 4.7139674e-001 2.0318270e-016
      outer loop
         vertex 8.0761205e+001 9.3826834e+001 0.0000000e+000
         vertex 8.0761205e+001 9.3826834e+001 5.0000000e+001
         vertex 8.1685304e+001 9.5555702e+001 5.0000000e+001
      endloop
   endfacet
   facet normal -8.8192126e-001 4.7139674e-001 -2.9902819e-016
      outer loop
         vertex 8.1685304e+001 9.5555702e+001 0.0000000e+000
         vertex 8.0761205e+001 9.3826834e+001 0.0000000e+000
         vertex 8.1685304e+001 9.5555702e+001 5.0000000e+001
      endloop
   endfacet
   facet normal -9.5694034e-001 2.9028468e-001 1.9857720e-016
      outer loop
         vertex 8.0192147e+001 9.1950903e+001 0.0000000e+000
         vertex 8.0192147e+001 9.1950903e+001 5.0000000e+001
         vertex 8.0761205e+001 9.3826834e+001 5.0000000e+001
      endloop
   endfacet
   facet normal -9.5694034e-001 2.9028468e-001 -3.4433549e-016
      outer loop
         vertex 8.0761205e+001 9.3826834e+001 0.0000000e+000
         vertex 8.0192147e+001 9.1950903e+001 0.0000000e+000
         vertex 8.0761205e+001 9.3826834e+001 5.0000000e+001
      endloop
   endfacet
   facet normal -9.9518473e-001 9.8017140e-002 2.7858147e-016
      outer loop
         vertex 8.0000000e+001 9.0000000e+001 0.0000000e+000
         vertex 8.0000000e+001 9.0000000e+001 5.0000000e+001
         vertex 8.0192147e+001 9.1950903e+001 5.0000000e+001
      endloop
   endfacet
   facet normal -9.9518473e-001 9.8017140e-002 -3.1488574e-016
      outer loop
         vertex 8.0192147e+001 9.1950903e+001 0.0000000e+000
         vertex 8.0000000e+001 9.0000000e+001 0.0000000e+000
         vertex 8.0192147e+001 9.1950903e+001 5.0000000e+001
      endloop
   endfacet
   facet normal 0.0000000e+000 0.0000000e+000 -1.0000000e+000
      outer loop
         vertex 9.1950903e+001 9.9807853e+001 0.0000000e+000
         vertex 9.3826834e+001 9.9238795e+001 0.0000000e+000
         vertex 9.5555702e+001 9.8314696e+001 0.0000000e+000
      endloop
   endfacet
   facet normal 0.0000000e+000 0.0000000e+000 -1.0000000e+000
      outer loop
         vertex 9.1950903e+001 9.9807853e+001 0.0000000e+000
         vertex 9.5555702e+001 9.8314696e+001 0.0000000e+000
         vertex 9.7071068e+001 9.7071068e+001 0.0000000e+000
      endloop
   endfacet
   facet normal 0.0000000e+000 0.0000000e+000 -1.0000000e+000
      outer loop
         vertex 9.1950903e+001 9.9807853e+001 0.0000000e+000
         vertex 9.7071068e+001 9.7071068e+001 0.0000000e+000
         vertex 9.8314696e+001 9.5555702e+001 0.0000000e+000
      endloop
   endfacet
   facet normal 0.0000000e+000 0.0000000e+000 -1.0000000e+000
      outer loop
         vertex 9.1950903e+001 9.9807853e+001 0.0000000e+000
         vertex 9.8314696e+001 9.5555702e+001 0.0000000e+000
         vertex 9.9238795e+001 9.3826834e+001 0.0000000e+000
      endloop
   endfacet
   facet normal 0.0000000e+000 0.0000000e+000 -1.0000000e+000
      outer loop
         vertex 9.0000000e+001 1.0000000e+002 0.0000000e+000
         vertex 9.1950903e+001 9.9807853e+001 0.0000000e+000
         vertex 9.9238795e+001 9.3826834e+001 0.0000000e+000
      endloop
   endfacet
   facet normal 0.0000000e+000 0.0000000e+000 -1.0000000e+000
      outer loop
         vertex 8.8049097e+001 9.9807853e+001 0.0000000e+000
         vertex 9.0000000e+001 1.0000000e+002 0.0000000e+000
         vertex 9.9238795e+001 9.3826834e+001 0.0000000e+000
      endloop
   endfacet
   facet normal 0.0000000e+000 0.0000000e+000 -1.0000000e+000
      outer loop
         vertex 8.6173166e+001 9.9238795e+001 0.0000000e+000
         vertex 8.8049097e+001 9.9807853e+001 0.0000000e+000
         vertex 9.9238795e+001 9.3826834e+001 0.0000000e+000
      endloop
   endfacet
   facet normal 0.0000000e+000 0.0000000e+000 -1.0000000e+000
      outer loop
         vertex 8.4444298e+001 9.8314696e+001 0.0000000e+000
         vertex 8.6173166e+001 9.9238795e+001 0.0000000e+000
         vertex 9.9238795e+001 9.3826834e+001 0.0000000e+000
      endloop
   endfacet
   facet normal 0.0000000e+000 0.0000000e+000 -1.0000000e+000
      outer loop
         vertex 8.2928932e+001 9.7071068e+001 0.0000000e+000
         vertex 8.4444298e+001 9.8314696e+001 0.0000000e+000
         vertex 9.9238795e+001 9.3826834e+001 0.0000000e+000
      endloop
   endfacet
   facet normal 0.0000000e+000 0.0000000e+000 -1.0000000e+000
      outer loop
         vertex 8.1685304e+001 9.5555702e+001 0.0000000e+000
         vertex 8.2928932e+001 9.7071068e+001 0.0000000e+000
         vertex 9.9238795e+001 9.3826834e+001 0.0000000e+000
      endloop
   endfacet
   facet normal 0.0000000e+000 0.0000000e+000 -1.0000000e+000
      outer loop
         vertex 8.0761205e+001 9.3826834e+001 0.0000000e+000
         vertex 8.1685304e+001 9.5555702e+001 0.0000000e+000
         vertex 9.9238795e+001 9.3826834e+001 0.0000000e+000
      endloop
   endfacet
   facet normal 0.0000000e+000 0.0000000e+000 -1.0000000e+000
      outer loop
         vertex 8.0192147e+001 9.1950903e+001 0.0000000e+000
         vertex 8.0761205e+001 9.3826834e+001 0.0000000e+000
         vertex 9.9238795e+001 9.3826834e+001 0.0000000e+000
      endloop
   endfacet
   facet normal 0.0000000e+000 0.0000000e+000 -1.0000000e+000
      outer loop
         vertex 8.0000000e+001 9.0000000e+001 0.0000000e+000
         vertex 8.0192147e+001 9.1950903e+001 0.0000000e+000
         vertex 9.9238795e+001 9.3826834e+001 0.0000000e+000
      endloop
   endfacet
   facet normal 0.0000000e+000 0.0000000e+000 -1.0000000e+000
      outer loop
         vertex 8.0192147e+001 8.8049097e+001 0.0000000e+000
         vertex 8.0000000e+001 9.0000000e+001 0.0000000e+000
         vertex 9.9238795e+001 9.3826834e+001 0.0000000e+000
      endloop
   endfacet
   facet normal 0.0000000e+000 0.0000000e+000 -1.0000000e+000
      outer loop
         vertex 8.0761205e+001 8.6173166e+001 0.0000000e+000
         vertex 8.0192147e+001 8.8049097e+001 0.0000000e+000
         vertex 9.9238795e+001 9.3826834e+001 0.0000000e+000
      endloop
   endfacet
   facet normal 0.0000000e+000 0.0000000e+000 -1.0000000e+000
      outer loop
         vertex 8.0761205e+001 8.6173166e+001 0.0000000e+000
         vertex 9.9238795e+001 9.3826834e+001 0.0000000e+000
         vertex 9.9807853e+001 9.1950903e+001 0.0000000e+000
      endloop
   endfacet
   facet normal 0.0000000e+000 0.0000000e+000 -1.0000000e+000
      outer loop
         vertex 8.1685304e+001 8.4444298e+001 0.0000000e+000
         vertex 8.0761205e+001 8.6173166e+001 0.0000000e+000
         vertex 9.9807853e+001 9.1950903e+001 0.0000000e+000
      endloop
   endfacet
   facet normal 0.0000000e+000 0.0000000e+000 -1.0000000e+000
      outer loop
         vertex 8.2928932e+001 8.2928932e+001 0.0000000e+000
         vertex 8.1685304e+001 8.4444298e+001 0.0000000e+000
         vertex 9.9807853e+001 9.1950903e+001 0.0000000e+000
      endloop
   endfacet
   facet normal 0.0000000e+000 0.0000000e+000 -1.0000000e+000
      outer loop
         vertex 8.4444298e+001 8.1685304e+001 0.0000000e+000
         vertex 8.2928932e+001 8.2928932e+001 0.0000000e+000
         vertex 9.9807853e+001 9.1950903e+001 0.0000000e+000
      endloop
   endfacet
   facet normal 0.0000000e+000 0.0000000e+000 -1.0000000e+000
      outer loop
         vertex 8.6173166e+001 8.0761205e+001 0.0000000e+000
         vertex 8.4444298e+001 8.1685304e+001 0.0000000e+000
         vertex 9.9807853e+001 9.1950903e+001 0.0000000e+000
      endloop
   endfacet
   facet normal 0.0000000e+000 0.0000000e+000 -1.0000000e+000
      outer loop
         vertex 8.8049097e+001 8.0192147e+001 0.0000000e+000
         vertex 8.6173166e+001 8.0761205e+001 0.0000000e+000
         vertex 9.9807853e+001 9.1950903e+001 0.0000000e+000
      endloop
   endfacet
   facet normal 0.0000000e+000 0.0000000e+000 -1.0000000e+000
      outer loop
         vertex 9.0000000e+001 8.0000000e+001 0.0000000e+000
         vertex 8.8049097e+001 8.0192147e+001 0.0000000e+000
         vertex 9.9807853e+001 9.1950903e+001 0.0000000e+000
      endloop
   endfacet
   facet normal 0.0000000e+000 0.0000000e+000 -1.0000000e+000
      outer loop
         vertex 9.1950903e+001 8.0192147e+001 0.0000000e+000
         vertex 9.0000000e+001 8.0000000e+001 0.0000000e+000
         vertex 9.9807853e+001 9.1950903e+001 0.0000000e+000
      endloop
   endfacet
   facet normal 0.0000000e+000 0.0000000e+000 -1.0000000e+000
      outer loop
         vertex 9.3826834e+001 8.0761205e+001 0.0000000e+000
         vertex 9.1950903e+001 8.0192147e+001 0.0000000e+000
         vertex 9.9807853e+001 9.1950903e+001 0.0000000e+000
      endloop
   endfacet
   facet normal 0.0000000e+000 0.0000000e+000 -1.0000000e+000
      outer loop
         vertex 9.5555702e+001 8.1685304e+001 0.0000000e+000
         vertex 9.3826834e+001 8.0761205e+001 0.0000000e+000
         vertex 9.9807853e+001 9.1950903e+001 0.0000000e+000
      endloop
   endfacet
   facet normal 0.0000000e+000 0.0000000e+000 -1.0000000e+000
      outer loop
         vertex 9.7071068e+001 8.2928932e+001 0.0000000e+000
         vertex 9.5555702e+001 8.1685304e+001 0.0000000e+000
         vertex 9.9807853e+001 9.1950903e+001 0.0000000e+000
      endloop
   endfacet
   facet normal 0.0000000e+000 0.0000000e+000 -1.0000000e+000
      outer loop
         vertex 9.8314696e+001 8.4444298e+001 0.0000000e+000
         vertex 9.7071068e+001 8.2928932e+001 0.0000000e+000
         vertex 9.9807853e+001 9.1950903e+001 0.0000000e+000
      endloop
   endfacet
   facet normal 0.0000000e+000 0.0000000e+000 -1.0000000e+000
      outer loop
         vertex 9.9238795e+001 8.6173166e+001 0.0000000e+000
         vertex 9.8314696e+001 8.4444298e+001 0.0000000e+000
         vertex 9.9807853e+001 9.1950903e+001 0.0000000e+000
      endloop
   endfacet
   facet normal 0.0000000e+000 0.0000000e+000 -1.0000000e+000
      outer loop
         vertex 9.9807853e+001 8.8049097e+001 0.0000000e+000
         vertex 9.9238795e+001 8.6173166e+001 0.0000000e+000
         vertex 9.9807853e+001 9.1950903e+001 0.0000000e+000
      endloop
   endfacet
   facet normal 0.0000000e+000 0.0000000e+000 -1.0000000e+000
      outer loop
         vertex 9.9807853e+001 8.8049097e+001 0.0000000e+000
         vertex 9.9807853e+001 9.1950903e+001 0.0000000e+000
         vertex 1.0000000e+002 9.0000000e+001 0.0000000e+000
      endloop
   endfacet
   facet normal 0.0000000e+000 0.0000000e+000 1.0000000e+000
      outer loop
         vertex 9.1950903e+001 8.0192147e+001 5.0000000e+001
         vertex 9.3826834e+001 8.0761205e+001 5.0000000e+001
         vertex 9.5555702e+001 8.1685304e+001 5.0000000e+001
      endloop
   endfacet
   facet normal 0.0000000e+000 0.0000000e+000 1.0000000e+000
      outer loop
         vertex 9.1950903e+001 8.0192147e+001 5.0000000e+001
         vertex 9.5555702e+001 8.1685304e+001 5.0000000e+001
         vertex 9.7071068e+001 8.2928932e+001 5.0000000e+001
      endloop
   endfacet
   facet normal 0.0000000e+000 0.0000000e+000 1.0000000e+000
      outer loop
         vertex 9.1950903e+001 8.0192147e+001 5.0000000e+001
         vertex 9.7071068e+001 8.2928932e+001 5.0000000e+001
         vertex 9.8314696e+001 8.4444298e+001 5.0000000e+001
      endloop
   endfacet
   facet normal 0.0000000e+000 0.0000000e+000 1.0000000e+000
      outer loop
         vertex 9.1950903e+001 8.0192147e+001 5.0000000e+001
         vertex 9.8314696e+001 8.4444298e+001 5.0000000e+001
         vertex 9.9238795e+001 8.6173166e+001 5.0000000e+001
      endloop
   endfacet
   facet normal 0.0000000e+000 0.0000000e+000 1.0000000e+000
      outer loop
         vertex 9.0000000e+001 8.0000000e+001 5.0000000e+001
         vertex 9.1950903e+001 8.0192147e+001 5.0000000e+001
         vertex 9.9238795e+001 8.6173166e+001 5.0000000e+001
      endloop
   endfacet
   facet normal 0.0000000e+000 0.0000000e+000 1.0000000e+000
      outer loop
         vertex 8.8049097e+001 8.0192147e+001 5.0000000e+001
         vertex 9.0000000e+001 8.0000000e+001 5.0000000e+001
         vertex 9.9238795e+001 8.6173166e+001 5.0000000e+001
      endloop
   endfacet
   facet normal 0.0000000e+000 0.0000000e+000 1.0000000e+000
      outer loop
         vertex 8.6173166e+001 8.0761205e+001 5.0000000e+001
         vertex 8.8049097e+001 8.0192147e+001 5.0000000e+001
         vertex 9.9238795e+001 8.6173166e+001 5.0000000e+001
      endloop
   endfacet
   facet normal 0.0000000e+000 0.0000000e+000 1.0000000e+000
      outer loop
         vertex 8.4444298e+001 8.1685304e+001 5.0000000e+001
         vertex 8.6173166e+001 8.0761205e+001 5.0000000e+001
         vertex 9.9238795e+001 8.6173166e+001 5.0000000e+001
      endloop
   endfacet
   facet normal 0.0000000e+000 0.0000000e+000 1.0000000e+000
      outer loop
         vertex 8.2928932e+001 8.2928932e+001 5.0000000e+001
         vertex 8.4444298e+001 8.1685304e+001 5.0000000e+001
         vertex 9.9238795e+001 8.6173166e+001 5.0000000e+001
      endloop
   endfacet
   facet normal 0.0000000e+000 0.0000000e+000 1.0000000e+000
      outer loop
         vertex 8.1685304e+001 8.4444298e+001 5.0000000e+001
         vertex 8.2928932e+001 8.2928932e+001 5.0000000e+001
         vertex 9.9238795e+001 8.6173166e+001 5.0000000e+001
      endloop
   endfacet
   facet normal 0.0000000e+000 0.0000000e+000 1.0000000e+000
      outer loop
         vertex 8.0761205e+001 8.6173166e+001 5.0000000e+001
         vertex 8.1685304e+001 8.4444298e+001 5.0000000e+001
         vertex 9.9238795e+001 8.6173166e+001 5.0000000e+001
      endloop
   endfacet
   facet normal 0.0000000e+000 0.0000000e+000 1.0000000e+000
      outer loop
         vertex 8.0192147e+001 8.8049097e+001 5.0000000e+001
         vertex 8.0761205e+001 8.6173166e+001 5.0000000e+001
         vertex 9.9238795e+001 8.6173166e+001 5.0000000e+001
      endloop
   endfacet
   facet normal 0.0000000e+000 0.0000000e+000 1.0000000e+000
      outer loop
         vertex 8.0000000e+001 9.0000000e+001 5.0000000e+001
         vertex 8.0192147e+001 8.8049097e+001 5.0000000e+001
         vertex 9.9238795e+001 8.6173166e+001 5.0000000e+001
      endloop
   endfacet
   facet normal 0.0000000e+000 0.0000000e+000 1.0000000e+000
      outer loop
         vertex 8.0192147e+001 9.1950903e+001 5.0000000e+001
         vertex 8.0000000e+001 9.0000000e+001 5.0000000e+001
         vertex 9.9238795e+001 8.6173166e+001 5.0000000e+001
      endloop
   endfacet
   facet normal 0.0000000e+000 0.0000000e+000 1.0000000e+000
      outer loop
         vertex 8.0761205e+001 9.3826834e+001 5.0000000e+001
         vertex 8.0192147e+001 9.1950903e+001 5.0000000e+001
         vertex 9.9238795e+001 8.6173166e+001 5.0000000e+001
      endloop
   endfacet
   facet normal 0.0000000e+000 0.0000000e+000 1.0000000e+000
      outer loop
         vertex 8.0761205e+001 9.3826834e+001 5.0000000e+001
         vertex 9.9238795e+001 8.6173166e+001 5.0000000e+001
         vertex 9.9807853e+001 8.8049097e+001 5.0000000e+001
      endloop
   endfacet
   facet normal 0.0000000e+000 0.0000000e+000 1.0000000e+000
      outer loop
         vertex 8.1685304e+001 9.5555702e+001 5.0000000e+001
         vertex 8.0761205e+001 9.3826834e+001 5.0000000e+001
         vertex 9.9807853e+001 8.8049097e+001 5.0000000e+001
      endloop
   endfacet
   facet normal 0.0000000e+000 0.0000000e+000 1.0000000e+000
      outer loop
         vertex 8.2928932e+001 9.7071068e+001 5.0000000e+001
         vertex 8.1685304e+001 9.5555702e+001 5.0000000e+001
         vertex 9.9807853e+001 8.8049097e+001 5.0000000e+001
      endloop
   endfacet
   facet normal 0.0000000e+000 0.0000000e+000 1.0000000e+000
      outer loop
         vertex 8.4444298e+001 9.8314696e+001 5.0000000e+001
         vertex 8.2928932e+001 9.7071068e+001 5.0000000e+001
         vertex 9.9807853e+001 8.8049097e+001 5.0000000e+001
      endloop
   endfacet
   facet normal 0.0000000e+000 0.0000000e+000 1.0000000e+000
      outer loop
         vertex 8.6173166e+001 9.9238795e+001 5.0000000e+001
         vertex 8.4444298e+001 9.8314696e+001 5.0000000e+001
         vertex 9.9807853e+001 8.8049097e+001 5.0000000e+001
      endloop
   endfacet
   facet normal 0.0000000e+000 0.0000000e+000 1.0000000e+000
      outer loop
         vertex 8.8049097e+001 9.9807853e+001 5.0000000e+001
         vertex 8.6173166e+001 9.9238795e+001 5.0000000e+001
         vertex 9.9807853e+001 8.8049097e+001 5.0000000e+001
      endloop
   endfacet
   facet normal 0.0000000e+000 0.0000000e+000 1.0000000e+000
      outer loop
         vertex 9.0000000e+001 1.0000000e+002 5.0000000e+001
         vertex 8.8049097e+001 9.9807853e+001 5.0000000e+001
         vertex 9.9807853e+001 8.8049097e+001 5.0000000e+001
      endloop
   endfacet
   facet normal 0.0000000e+000 0.0000000e+000 1.0000000e+000
      outer loop
         vertex 9.1950903e+001 9.9807853e+001 5.0000000e+001
         vertex 9.0000000e+001 1.0000000e+002 5.0000000e+001
         vertex 9.9807853e+001 8.8049097e+001 5.0000000e+001
      endloop
   endfacet
   facet normal 0.0000000e+000 0.0000000e+000 1.0000000e+000
      outer loop
         vertex 9.3826834e+001 9.9238795e+001 5.0000000e+001
         vertex 9.1950903e+001 9.9807853e+001 5.0000000e+001
         vertex 9.9807853e+001 8.8049097e+001 5.0000000e+001
      endloop
   endfacet
   facet normal 0.0000000e+000 0.0000000e+000 1.0000000e+000
      outer loop
         vertex 9.5555702e+001 9.8314696e+001 5.0000000e+001
         vertex 9.3826834e+001 9.9238795e+001 5.0000000e+001
         vertex 9.9807853e+001 8.8049097e+001 5.0000000e+001
      endloop
   endfacet
   facet normal 0.0000000e+000 0.0000000e+000 1.0000000e+000
      outer loop
         vertex 9.7071068e+001 9.7071068e+001 5.0000000e+001
         vertex 9.5555702e+001 9.8314696e+001 5.0000000e+001
         vertex 9.9807853e+001 8.8049097e+001 5.0000000e+001
      endloop
   endfacet
   facet normal 0.0000000e+000 0.0000000e+000 1.0000000e+000
      outer loop
         vertex 9.8314696e+001 9.5555702e+001 5.0000000e+001
         vertex 9.7071068e+001 9.7071068e+001 5.0000000e+001
         vertex 9.9807853e+001 8.8049097e+001 5.0000000e+001
      endloop
   endfacet
   facet normal 0.0000000e+000 0.0000000e+000 1.0000000e+000
      outer loop
         vertex 9.9238795e+001 9.3826834e+001 5.0000000e+001
         vertex 9.8314696e+001 9.5555702e+001 5.0000000e+001
         vertex 9.9807853e+001 8.8049097e+001 5.0000000e+001
      endloop
   endfacet
   facet normal 0.0000000e+000 0.0000000e+000 1.0000000e+000
      outer loop
         vertex 9.9807853e+001 9.1950903e+001 5.0000000e+001
         vertex 9.9238795e+001 9.3826834e+001 5.0000000e+001
         vertex 9.9807853e+001 8.8049097e+001 5.0000000e+001
      endloop
   endfacet
   facet normal 0.0000000e+000 0.0000000e+000 1.0000000e+000
      outer loop
         vertex 9.9807853e+001 9.1950903e+001 5.0000000e+001
         vertex 9.9807853e+001 8.8049097e+001 5.0000000e+001
         vertex 1.0000000e+002 9.0000000e+001 5.0000000e+001
      endloop
   endfacet
endsolid AutoCAD
