solid OpenSCAD_Model
  facet normal -3.06152e-16 -1 0
    outer loop
      vertex -1.5 -28.5 127.428
      vertex -1.5 -28.5 126.216
      vertex 25.5 -28.5 126.216
    endloop
  endfacet
  facet normal -3.06152e-16 -1 0
    outer loop
      vertex 27 -28.5 127.428
      vertex -1.5 -28.5 127.428
      vertex 25.5 -28.5 127.428
    endloop
  endfacet
  facet normal -3.06152e-16 -1 0
    outer loop
      vertex 25.5 -28.5 127.428
      vertex -1.5 -28.5 127.428
      vertex 25.5 -28.5 126.216
    endloop
  endfacet
  facet normal -3.06152e-16 -1 0
    outer loop
      vertex 28.5 -28.5 127.428
      vertex -1.5 -28.5 127.428
      vertex 27 -28.5 127.428
    endloop
  endfacet
  facet normal -3.06152e-16 -1 0
    outer loop
      vertex 28.5 -28.5 126.216
      vertex 27 -28.5 127.428
      vertex 27 -28.5 126.216
    endloop
  endfacet
  facet normal -3.06152e-16 -1 0
    outer loop
      vertex 28.5 -28.5 127.428
      vertex 27 -28.5 127.428
      vertex 28.5 -28.5 126.216
    endloop
  endfacet
  facet normal -2.20227e-16 -0.71934 -0.694658
    outer loop
      vertex 25.5 -28.5 126.216
      vertex -1.5 -28.5 126.216
      vertex -1.5 -2.67049 99.4683
    endloop
  endfacet
  facet normal -2.20227e-16 -0.71934 -0.694658
    outer loop
      vertex 1.5 -1.5 98.2562
      vertex 25.5 -28.5 126.216
      vertex 1.5 -2.67049 99.4683
    endloop
  endfacet
  facet normal -2.20227e-16 -0.71934 -0.694658
    outer loop
      vertex 1.5 -2.67049 99.4683
      vertex 25.5 -28.5 126.216
      vertex -1.5 -2.67049 99.4683
    endloop
  endfacet
  facet normal -2.20227e-16 -0.71934 -0.694658
    outer loop
      vertex 25.5 -1.5 98.2562
      vertex 25.5 -28.5 126.216
      vertex 1.5 -1.5 98.2562
    endloop
  endfacet
  facet normal -2.20227e-16 -0.71934 -0.694658
    outer loop
      vertex 28.5 -25.5 123.109
      vertex 27 -1.5 98.2562
      vertex 28.5 -1.5 98.2562
    endloop
  endfacet
  facet normal -2.20227e-16 -0.71934 -0.694658
    outer loop
      vertex 25.5 -1.5 98.2562
      vertex 25.5 -25.5 123.109
      vertex 25.5 -28.5 126.216
    endloop
  endfacet
  facet normal -2.20227e-16 -0.71934 -0.694658
    outer loop
      vertex 25.5 -1.5 98.2562
      vertex 27 -1.5 98.2562
      vertex 25.5 -25.5 123.109
    endloop
  endfacet
  facet normal -2.20227e-16 -0.71934 -0.694658
    outer loop
      vertex 28.5 -25.5 123.109
      vertex 25.5 -25.5 123.109
      vertex 27 -1.5 98.2562
    endloop
  endfacet
  facet normal -1 3.06152e-16 0
    outer loop
      vertex -1.5 -28.5 126.216
      vertex -1.5 -28.5 127.428
      vertex -1.5 -2.67049 99.4683
    endloop
  endfacet
  facet normal -1 3.06152e-16 0
    outer loop
      vertex -1.5 -1.5 127.428
      vertex -1.5 -28.5 127.428
      vertex -1.5 1.5 127.428
    endloop
  endfacet
  facet normal -1 3.06152e-16 0
    outer loop
      vertex -1.5 -2.67049 99.4683
      vertex -1.5 -28.5 127.428
      vertex -1.5 -1.5 127.428
    endloop
  endfacet
  facet normal -1 3.06152e-16 0
    outer loop
      vertex -1.5 -1.5 99.4683
      vertex -1.5 -2.67049 99.4683
      vertex -1.5 -1.5 127.428
    endloop
  endfacet
  facet normal 0 0 1
    outer loop
      vertex 1.5 -25.5 127.428
      vertex -1.5 -28.5 127.428
      vertex 28.5 -28.5 127.428
    endloop
  endfacet
  facet normal 0 0 1
    outer loop
      vertex 52.5 25.5 127.428
      vertex 55.5 28.5 127.428
      vertex 28.5 25.5 127.428
    endloop
  endfacet
  facet normal 0 0 1
    outer loop
      vertex 55.5 -1.5 127.428
      vertex 52.5 25.5 127.428
      vertex 52.5 -1.5 127.428
    endloop
  endfacet
  facet normal 0 0 1
    outer loop
      vertex 55.5 28.5 127.428
      vertex 52.5 25.5 127.428
      vertex 55.5 -1.5 127.428
    endloop
  endfacet
  facet normal 0 0 1
    outer loop
      vertex 25.5 28.5 127.428
      vertex 28.5 25.5 127.428
      vertex 55.5 28.5 127.428
    endloop
  endfacet
  facet normal 0 0 1
    outer loop
      vertex 25.5 -25.5 127.428
      vertex 1.5 -25.5 127.428
      vertex 28.5 -28.5 127.428
    endloop
  endfacet
  facet normal 0 0 1
    outer loop
      vertex 28.5 1.5 127.428
      vertex 25.5 -1.5 127.428
      vertex 28.5 -28.5 127.428
    endloop
  endfacet
  facet normal 0 0 1
    outer loop
      vertex -1.5 1.5 127.428
      vertex -1.5 -28.5 127.428
      vertex 1.5 -25.5 127.428
    endloop
  endfacet
  facet normal 0 0 1
    outer loop
      vertex 25.5 -1.5 127.428
      vertex 25.5 -25.5 127.428
      vertex 28.5 -28.5 127.428
    endloop
  endfacet
  facet normal 0 0 1
    outer loop
      vertex 1.5 -25.5 127.428
      vertex 1.5 1.5 127.428
      vertex -1.5 1.5 127.428
    endloop
  endfacet
  facet normal 0 0 1
    outer loop
      vertex 25.5 28.5 127.428
      vertex 28.5 1.5 127.428
      vertex 28.5 25.5 127.428
    endloop
  endfacet
  facet normal 0 0 1
    outer loop
      vertex 25.5 28.5 127.428
      vertex 25.5 -1.5 127.428
      vertex 28.5 1.5 127.428
    endloop
  endfacet
  facet normal 1 -3.06152e-16 0
    outer loop
      vertex 28.5 1.5 127.428
      vertex 28.5 -28.5 127.428
      vertex 28.5 -25.5 127.428
    endloop
  endfacet
  facet normal 1 -3.06152e-16 0
    outer loop
      vertex 28.5 -1.5 98.2562
      vertex 28.5 -25.5 127.428
      vertex 28.5 -25.5 123.109
    endloop
  endfacet
  facet normal 1 -3.06152e-16 0
    outer loop
      vertex 28.5 -1.5 99.4683
      vertex 28.5 -25.5 127.428
      vertex 28.5 -1.5 98.2562
    endloop
  endfacet
  facet normal 1 -3.06152e-16 0
    outer loop
      vertex 28.5 1.5 102.575
      vertex 28.5 -25.5 127.428
      vertex 28.5 -1.5 99.4683
    endloop
  endfacet
  facet normal 1 -3.06152e-16 0
    outer loop
      vertex 28.5 1.5 127.428
      vertex 28.5 -25.5 127.428
      vertex 28.5 1.5 102.575
    endloop
  endfacet
  facet normal -1.22461e-16 -1 0
    outer loop
      vertex 25.5 -28.5 127.428
      vertex 25.5 -28.5 99.4683
      vertex 55.5 -28.5 99.4683
    endloop
  endfacet
  facet normal -1.22461e-16 -1 0
    outer loop
      vertex 27 -28.5 126.216
      vertex 25.5 -28.5 127.428
      vertex 55.5 -28.5 99.4683
    endloop
  endfacet
  facet normal -1.22461e-16 -1 0
    outer loop
      vertex 55.5 -28.5 127.428
      vertex 28.5 -28.5 127.428
      vertex 55.5 -28.5 99.4683
    endloop
  endfacet
  facet normal -1.22461e-16 -1 0
    outer loop
      vertex 28.5 -28.5 127.428
      vertex 28.5 -28.5 126.216
      vertex 55.5 -28.5 99.4683
    endloop
  endfacet
  facet normal -1.22461e-16 -1 0
    outer loop
      vertex 28.5 -28.5 126.216
      vertex 27 -28.5 126.216
      vertex 55.5 -28.5 99.4683
    endloop
  endfacet
  facet normal -1.22461e-16 -1 0
    outer loop
      vertex 27 -28.5 126.216
      vertex 27 -28.5 127.428
      vertex 25.5 -28.5 127.428
    endloop
  endfacet
  facet normal -1 1.22461e-16 0
    outer loop
      vertex 25.5 -25.5 123.109
      vertex 25.5 -25.5 99.4683
      vertex 25.5 -28.5 126.216
    endloop
  endfacet
  facet normal -1 1.22461e-16 0
    outer loop
      vertex 25.5 -28.5 99.4683
      vertex 25.5 -28.5 127.428
      vertex 25.5 -28.5 126.216
    endloop
  endfacet
  facet normal -1 1.22461e-16 0
    outer loop
      vertex 25.5 -28.5 99.4683
      vertex 25.5 -28.5 126.216
      vertex 25.5 -25.5 99.4683
    endloop
  endfacet
  facet normal 1.22461e-16 1 0
    outer loop
      vertex 28.5 -25.5 123.109
      vertex 28.5 -25.5 127.428
      vertex 52.5 -25.5 127.428
    endloop
  endfacet
  facet normal 1.22461e-16 1 0
    outer loop
      vertex 28.5 -25.5 123.109
      vertex 52.5 -25.5 127.428
      vertex 52.5 -25.5 99.4683
    endloop
  endfacet
  facet normal 1.22461e-16 1 0
    outer loop
      vertex 28.5 -25.5 123.109
      vertex 52.5 -25.5 99.4683
      vertex 25.5 -25.5 123.109
    endloop
  endfacet
  facet normal 1.22461e-16 1 0
    outer loop
      vertex 52.5 -25.5 99.4683
      vertex 25.5 -25.5 99.4683
      vertex 25.5 -25.5 123.109
    endloop
  endfacet
  facet normal -1.83691e-16 -1 0
    outer loop
      vertex 28.5 -1.5 99.4683
      vertex 51.3295 -1.5 98.2562
      vertex 52.5 -1.5 99.4683
    endloop
  endfacet
  facet normal -1.83691e-16 -1 0
    outer loop
      vertex 28.5 -1.5 99.4683
      vertex 28.5 -1.5 98.2562
      vertex 51.3295 -1.5 98.2562
    endloop
  endfacet
  facet normal -2.44921e-16 -1 0
    outer loop
      vertex 1.5 -1.5 98.2562
      vertex 1.5 -1.5 95.1496
      vertex 25.5 -1.5 70.2969
    endloop
  endfacet
  facet normal -2.44921e-16 -1 0
    outer loop
      vertex 25.5 -1.5 71.5089
      vertex 1.5 -1.5 98.2562
      vertex 25.5 -1.5 70.2969
    endloop
  endfacet
  facet normal -2.44921e-16 -1 0
    outer loop
      vertex 28.5 -1.5 74.6155
      vertex 1.5 -1.5 98.2562
      vertex 25.5 -1.5 71.5089
    endloop
  endfacet
  facet normal -2.44921e-16 -1 0
    outer loop
      vertex 25.5 -1.5 98.2562
      vertex 1.5 -1.5 98.2562
      vertex 28.5 -1.5 74.6155
    endloop
  endfacet
  facet normal -2.44921e-16 -1 0
    outer loop
      vertex 28.5 -1.5 98.2562
      vertex 27 -1.5 98.2562
      vertex 28.5 -1.5 74.6155
    endloop
  endfacet
  facet normal -2.44921e-16 -1 0
    outer loop
      vertex 27 -1.5 98.2562
      vertex 25.5 -1.5 98.2562
      vertex 28.5 -1.5 74.6155
    endloop
  endfacet
  facet normal 1 -6.12303e-17 0
    outer loop
      vertex 1.5 1.5 71.5089
      vertex 1.5 1.5 95.1496
      vertex 1.5 -1.5 95.1496
    endloop
  endfacet
  facet normal 1 -6.12303e-17 0
    outer loop
      vertex 1.5 -2.67049 99.4683
      vertex 1.5 1.5 71.5089
      vertex 1.5 -1.5 95.1496
    endloop
  endfacet
  facet normal 1 -6.12303e-17 0
    outer loop
      vertex 1.5 -1.5 98.2562
      vertex 1.5 -2.67049 99.4683
      vertex 1.5 -1.5 95.1496
    endloop
  endfacet
  facet normal 1 -6.12303e-17 0
    outer loop
      vertex 1.5 -2.67049 99.4683
      vertex 1.5 -25.5 99.4683
      vertex 1.5 1.5 71.5089
    endloop
  endfacet
  facet normal 1 -6.12303e-17 0
    outer loop
      vertex 1.5 -25.5 99.4683
      vertex 1.5 -25.5 71.5089
      vertex 1.5 1.5 71.5089
    endloop
  endfacet
  facet normal 0 0 1
    outer loop
      vertex 25.5 -28.5 99.4683
      vertex -1.5 -28.5 99.4683
      vertex 28.5 -28.5 99.4683
    endloop
  endfacet
  facet normal 0 0 1
    outer loop
      vertex 1.5 -2.67049 99.4683
      vertex -1.5 -2.67049 99.4683
      vertex 1.5 -25.5 99.4683
    endloop
  endfacet
  facet normal 0 0 1
    outer loop
      vertex 1.5 -25.5 99.4683
      vertex -1.5 -28.5 99.4683
      vertex 25.5 -28.5 99.4683
    endloop
  endfacet
  facet normal 0 0 1
    outer loop
      vertex -1.5 -2.67049 99.4683
      vertex -1.5 -28.5 99.4683
      vertex 1.5 -25.5 99.4683
    endloop
  endfacet
  facet normal 0 0 1
    outer loop
      vertex -1.5 -1.5 99.4683
      vertex -1.5 -28.5 99.4683
      vertex -1.5 -2.67049 99.4683
    endloop
  endfacet
  facet normal 0 0 1
    outer loop
      vertex 25.5 -25.5 99.4683
      vertex 1.5 -25.5 99.4683
      vertex 25.5 -28.5 99.4683
    endloop
  endfacet
  facet normal 0 0 1
    outer loop
      vertex 1.5 1.5 99.4683
      vertex -1.5 28.5 99.4683
      vertex -1.5 1.5 99.4683
    endloop
  endfacet
  facet normal 0 0 1
    outer loop
      vertex -1.5 1.5 99.4683
      vertex -1.5 28.5 99.4683
      vertex -1.5 -1.5 99.4683
    endloop
  endfacet
  facet normal 0 0 1
    outer loop
      vertex 1.5 25.5 99.4683
      vertex -1.5 28.5 99.4683
      vertex 1.5 1.5 99.4683
    endloop
  endfacet
  facet normal 0 0 1
    outer loop
      vertex 28.5 25.5 99.4683
      vertex -1.5 28.5 99.4683
      vertex 1.5 25.5 99.4683
    endloop
  endfacet
  facet normal 0 0 1
    outer loop
      vertex 28.5 28.5 99.4683
      vertex -1.5 28.5 99.4683
      vertex 28.5 25.5 99.4683
    endloop
  endfacet
  facet normal 3.06152e-16 1 0
    outer loop
      vertex 1.5 1.5 99.4683
      vertex 25.5 1.5 99.4683
      vertex 25.5 1.5 98.2562
    endloop
  endfacet
  facet normal 3.06152e-16 1 0
    outer loop
      vertex 25.5 1.5 98.2562
      vertex 27 1.5 98.2562
      vertex 2.67049 1.5 98.2562
    endloop
  endfacet
  facet normal 3.06152e-16 1 0
    outer loop
      vertex 1.5 1.5 99.4683
      vertex 25.5 1.5 98.2562
      vertex 2.67049 1.5 98.2562
    endloop
  endfacet
  facet normal 0 0 -1
    outer loop
      vertex 1.5 25.5 99.4683
      vertex -1.5 28.5 99.4683
      vertex 28.5 28.5 99.4683
    endloop
  endfacet
  facet normal 0 0 -1
    outer loop
      vertex -1.5 1.5 99.4683
      vertex -1.5 28.5 99.4683
      vertex 1.5 25.5 99.4683
    endloop
  endfacet
  facet normal 0 0 -1
    outer loop
      vertex -1.5 1.5 99.4683
      vertex 1.5 25.5 99.4683
      vertex 1.5 1.5 99.4683
    endloop
  endfacet
  facet normal 0 0 -1
    outer loop
      vertex -1.5 -1.5 99.4683
      vertex -1.5 28.5 99.4683
      vertex -1.5 1.5 99.4683
    endloop
  endfacet
  facet normal 0 0 -1
    outer loop
      vertex 1.5 25.5 99.4683
      vertex 28.5 28.5 99.4683
      vertex 28.5 25.5 99.4683
    endloop
  endfacet
  facet normal 0 0 1
    outer loop
      vertex 1.5 1.5 127.428
      vertex -1.5 28.5 127.428
      vertex -1.5 1.5 127.428
    endloop
  endfacet
  facet normal 0 0 1
    outer loop
      vertex -1.5 1.5 127.428
      vertex -1.5 28.5 127.428
      vertex -1.5 -1.5 127.428
    endloop
  endfacet
  facet normal 0 0 1
    outer loop
      vertex 1.5 25.5 127.428
      vertex -1.5 28.5 127.428
      vertex 1.5 1.5 127.428
    endloop
  endfacet
  facet normal 0 0 1
    outer loop
      vertex 25.5 25.5 127.428
      vertex -1.5 28.5 127.428
      vertex 1.5 25.5 127.428
    endloop
  endfacet
  facet normal 0 0 1
    outer loop
      vertex 25.5 28.5 127.428
      vertex -1.5 28.5 127.428
      vertex 25.5 25.5 127.428
    endloop
  endfacet
  facet normal 0 0 1
    outer loop
      vertex 27 28.5 127.428
      vertex -1.5 28.5 127.428
      vertex 25.5 28.5 127.428
    endloop
  endfacet
  facet normal 1 -3.06152e-16 0
    outer loop
      vertex 1.5 1.5 99.4683
      vertex 1.5 1.5 127.428
      vertex 1.5 -25.5 127.428
    endloop
  endfacet
  facet normal 2.20227e-16 0.71934 0.694658
    outer loop
      vertex 1.5 1.5 99.4683
      vertex 25.5 -1.5 102.575
      vertex 25.5 1.5 99.4683
    endloop
  endfacet
  facet normal 2.20227e-16 0.71934 0.694658
    outer loop
      vertex 25.5 -25.5 127.428
      vertex 25.5 -1.5 102.575
      vertex 1.5 1.5 99.4683
    endloop
  endfacet
  facet normal 2.20227e-16 0.71934 0.694658
    outer loop
      vertex 25.5 -25.5 127.428
      vertex 1.5 1.5 99.4683
      vertex 1.5 -25.5 127.428
    endloop
  endfacet
  facet normal -1 3.06152e-16 0
    outer loop
      vertex 25.5 -1.5 127.428
      vertex 25.5 -1.5 102.575
      vertex 25.5 -25.5 127.428
    endloop
  endfacet
  facet normal -1 1.83691e-16 0
    outer loop
      vertex 25.5 -1.5 102.575
      vertex 25.5 -1.5 127.428
      vertex 25.5 1.5 99.4683
    endloop
  endfacet
  facet normal -1 1.83691e-16 0
    outer loop
      vertex 25.5 25.5 127.428
      vertex 25.5 -1.5 127.428
      vertex 25.5 28.5 127.428
    endloop
  endfacet
  facet normal -1 1.83691e-16 0
    outer loop
      vertex 25.5 1.5 99.4683
      vertex 25.5 -1.5 127.428
      vertex 25.5 25.5 127.428
    endloop
  endfacet
  facet normal -1 1.83691e-16 0
    outer loop
      vertex 25.5 25.5 123.109
      vertex 25.5 1.5 99.4683
      vertex 25.5 25.5 127.428
    endloop
  endfacet
  facet normal -1 1.83691e-16 0
    outer loop
      vertex 25.5 1.5 99.4683
      vertex 25.5 25.5 123.109
      vertex 25.5 1.5 98.2562
    endloop
  endfacet
  facet normal 1.83691e-16 1 0
    outer loop
      vertex 27 28.5 127.428
      vertex 25.5 28.5 127.428
      vertex 55.5 28.5 127.428
    endloop
  endfacet
  facet normal 1.83691e-16 1 0
    outer loop
      vertex 27 28.5 127.428
      vertex 55.5 28.5 127.428
      vertex 55.5 28.5 126.216
    endloop
  endfacet
  facet normal 1.83691e-16 1 0
    outer loop
      vertex 27 28.5 127.428
      vertex 55.5 28.5 126.216
      vertex 27 28.5 126.216
    endloop
  endfacet
  facet normal 1 -1.83691e-16 0
    outer loop
      vertex 55.5 2.67049 99.4683
      vertex 55.5 28.5 126.216
      vertex 55.5 1.5 99.4683
    endloop
  endfacet
  facet normal 1 -1.83691e-16 0
    outer loop
      vertex 55.5 28.5 127.428
      vertex 55.5 -1.5 127.428
      vertex 55.5 1.5 127.428
    endloop
  endfacet
  facet normal 1 -1.83691e-16 0
    outer loop
      vertex 55.5 1.5 127.428
      vertex 55.5 28.5 126.216
      vertex 55.5 28.5 127.428
    endloop
  endfacet
  facet normal 1 -1.83691e-16 0
    outer loop
      vertex 55.5 1.5 127.428
      vertex 55.5 1.5 99.4683
      vertex 55.5 28.5 126.216
    endloop
  endfacet
  facet normal -1 1.83691e-16 0
    outer loop
      vertex 52.5 -1.5 127.428
      vertex 52.5 25.5 127.428
      vertex 52.5 -1.5 99.4683
    endloop
  endfacet
  facet normal -1.32136e-16 -0.71934 0.694658
    outer loop
      vertex 28.5 1.5 102.575
      vertex 28.5 -1.5 99.4683
      vertex 52.5 -1.5 99.4683
    endloop
  endfacet
  facet normal -1.32136e-16 -0.71934 0.694658
    outer loop
      vertex 28.5 25.5 127.428
      vertex 28.5 1.5 102.575
      vertex 52.5 25.5 127.428
    endloop
  endfacet
  facet normal -1.32136e-16 -0.71934 0.694658
    outer loop
      vertex 52.5 25.5 127.428
      vertex 28.5 1.5 102.575
      vertex 52.5 -1.5 99.4683
    endloop
  endfacet
  facet normal 1 -1.83691e-16 0
    outer loop
      vertex 28.5 25.5 127.428
      vertex 28.5 1.5 127.428
      vertex 28.5 1.5 102.575
    endloop
  endfacet
  facet normal 0 0 1
    outer loop
      vertex 28.5 -25.5 127.428
      vertex 28.5 -28.5 127.428
      vertex 55.5 -28.5 127.428
    endloop
  endfacet
  facet normal 0 0 1
    outer loop
      vertex 52.5 -25.5 127.428
      vertex 28.5 -25.5 127.428
      vertex 55.5 -28.5 127.428
    endloop
  endfacet
  facet normal 0 0 1
    outer loop
      vertex 55.5 1.5 127.428
      vertex 55.5 -1.5 127.428
      vertex 55.5 -28.5 127.428
    endloop
  endfacet
  facet normal 0 0 1
    outer loop
      vertex 52.5 -1.5 127.428
      vertex 52.5 -25.5 127.428
      vertex 55.5 -1.5 127.428
    endloop
  endfacet
  facet normal 0 0 1
    outer loop
      vertex 55.5 -1.5 127.428
      vertex 52.5 -25.5 127.428
      vertex 55.5 -28.5 127.428
    endloop
  endfacet
  facet normal 1 -1.22461e-16 0
    outer loop
      vertex 55.5 -28.5 127.428
      vertex 55.5 -28.5 99.4683
      vertex 55.5 1.5 99.4683
    endloop
  endfacet
  facet normal 1 -1.22461e-16 0
    outer loop
      vertex 55.5 1.5 127.428
      vertex 55.5 -28.5 127.428
      vertex 55.5 1.5 99.4683
    endloop
  endfacet
  facet normal 0 0 -1
    outer loop
      vertex 25.5 -28.5 99.4683
      vertex 25.5 -25.5 99.4683
      vertex 55.5 -28.5 99.4683
    endloop
  endfacet
  facet normal 0 0 -1
    outer loop
      vertex 55.5 -28.5 99.4683
      vertex 25.5 -25.5 99.4683
      vertex 52.5 -25.5 99.4683
    endloop
  endfacet
  facet normal 0 0 -1
    outer loop
      vertex 55.5 -28.5 99.4683
      vertex 52.5 -25.5 99.4683
      vertex 52.5 -1.5 99.4683
    endloop
  endfacet
  facet normal 0 0 -1
    outer loop
      vertex 55.5 -28.5 99.4683
      vertex 52.5 -1.5 99.4683
      vertex 55.5 -1.5 99.4683
    endloop
  endfacet
  facet normal 0 0 -1
    outer loop
      vertex 55.5 -28.5 99.4683
      vertex 55.5 -1.5 99.4683
      vertex 55.5 1.5 99.4683
    endloop
  endfacet
  facet normal -1 1.22461e-16 0
    outer loop
      vertex 52.5 -1.5 127.428
      vertex 52.5 -1.5 99.4683
      vertex 52.5 -25.5 127.428
    endloop
  endfacet
  facet normal -1 1.22461e-16 0
    outer loop
      vertex 52.5 -25.5 127.428
      vertex 52.5 -1.5 99.4683
      vertex 52.5 -25.5 99.4683
    endloop
  endfacet
  facet normal 0 0 1
    outer loop
      vertex 25.5 -25.5 99.4683
      vertex 25.5 -28.5 99.4683
      vertex 55.5 -28.5 99.4683
    endloop
  endfacet
  facet normal 0 0 1
    outer loop
      vertex 52.5 -25.5 99.4683
      vertex 25.5 -25.5 99.4683
      vertex 55.5 -28.5 99.4683
    endloop
  endfacet
  facet normal 0 0 1
    outer loop
      vertex 55.5 1.5 99.4683
      vertex 55.5 -1.5 99.4683
      vertex 55.5 -28.5 99.4683
    endloop
  endfacet
  facet normal 0 0 1
    outer loop
      vertex 52.5 -1.5 99.4683
      vertex 52.5 -25.5 99.4683
      vertex 55.5 -1.5 99.4683
    endloop
  endfacet
  facet normal 0 0 1
    outer loop
      vertex 55.5 -1.5 99.4683
      vertex 52.5 -25.5 99.4683
      vertex 55.5 -28.5 99.4683
    endloop
  endfacet
  facet normal -0.71934 8.80908e-17 0.694658
    outer loop
      vertex 52.5 -1.5 99.4683
      vertex 51.3295 -1.5 98.2562
      vertex 52.5 -25.5 99.4683
    endloop
  endfacet
  facet normal -0.71934 8.80908e-17 0.694658
    outer loop
      vertex 52.5 -25.5 99.4683
      vertex 51.3295 -1.5 98.2562
      vertex 28.5 -1.5 74.6155
    endloop
  endfacet
  facet normal -0.71934 8.80908e-17 0.694658
    outer loop
      vertex 52.5 -25.5 99.4683
      vertex 28.5 -1.5 74.6155
      vertex 25.5 -1.5 71.5089
    endloop
  endfacet
  facet normal -0.71934 8.80908e-17 0.694658
    outer loop
      vertex 52.5 -25.5 99.4683
      vertex 25.5 -1.5 71.5089
      vertex 25.5 -25.5 71.5089
    endloop
  endfacet
  facet normal -1.22461e-16 -1 0
    outer loop
      vertex 51.3295 -1.5 98.2562
      vertex 28.5 -1.5 98.2562
      vertex 28.5 -1.5 74.6155
    endloop
  endfacet
  facet normal -1 1.22461e-16 0
    outer loop
      vertex 25.5 -25.5 71.5089
      vertex 25.5 -1.5 71.5089
      vertex 25.5 -1.5 70.2969
    endloop
  endfacet
  facet normal -1 1.22461e-16 0
    outer loop
      vertex 25.5 -25.5 71.5089
      vertex 25.5 -1.5 70.2969
      vertex 25.5 -24.3295 70.2969
    endloop
  endfacet
  facet normal -0.71934 1.76182e-16 -0.694658
    outer loop
      vertex 24.3295 28.5 71.5089
      vertex -1.5 28.5 98.2562
      vertex 25.5 28.5 70.2969
    endloop
  endfacet
  facet normal -0.71934 1.76182e-16 -0.694658
    outer loop
      vertex 1.5 1.5 95.1496
      vertex 25.5 -0.890336 70.2969
      vertex 1.5 -1.5 95.1496
    endloop
  endfacet
  facet normal -0.71934 1.76182e-16 -0.694658
    outer loop
      vertex 1.5 1.5 95.1496
      vertex 25.5 25.5 70.2969
      vertex 25.5 -0.890336 70.2969
    endloop
  endfacet
  facet normal -0.71934 1.76182e-16 -0.694658
    outer loop
      vertex 1.5 -1.5 95.1496
      vertex 25.5 -0.890336 70.2969
      vertex 25.5 -1.5 70.2969
    endloop
  endfacet
  facet normal -0.71934 1.76182e-16 -0.694658
    outer loop
      vertex -1.5 1.5 98.2562
      vertex 24.3295 28.5 71.5089
      vertex 24.3295 25.5 71.5089
    endloop
  endfacet
  facet normal -0.71934 1.76182e-16 -0.694658
    outer loop
      vertex -1.5 1.5 98.2562
      vertex -1.5 28.5 98.2562
      vertex 24.3295 28.5 71.5089
    endloop
  endfacet
  facet normal -0.71934 1.76182e-16 -0.694658
    outer loop
      vertex -1.5 -1.5 98.2562
      vertex -1.5 28.5 98.2562
      vertex -1.5 1.5 98.2562
    endloop
  endfacet
  facet normal -0.71934 1.76182e-16 -0.694658
    outer loop
      vertex -1.5 1.5 98.2562
      vertex 24.3295 25.5 71.5089
      vertex 25.5 25.5 70.2969
    endloop
  endfacet
  facet normal -0.71934 1.76182e-16 -0.694658
    outer loop
      vertex -1.5 1.5 98.2562
      vertex 25.5 25.5 70.2969
      vertex 1.5 1.5 95.1496
    endloop
  endfacet
  facet normal 0 0 -1
    outer loop
      vertex -1.5 -28.5 71.5089
      vertex -1.5 1.5 71.5089
      vertex 1.5 -25.5 71.5089
    endloop
  endfacet
  facet normal 0 0 -1
    outer loop
      vertex 25.5 -28.5 71.5089
      vertex 1.5 -25.5 71.5089
      vertex 25.5 -25.5 71.5089
    endloop
  endfacet
  facet normal 0 0 -1
    outer loop
      vertex -1.5 -28.5 71.5089
      vertex 1.5 -25.5 71.5089
      vertex 25.5 -28.5 71.5089
    endloop
  endfacet
  facet normal 0 0 -1
    outer loop
      vertex -1.5 -28.5 71.5089
      vertex 25.5 -28.5 71.5089
      vertex 28.5 -28.5 71.5089
    endloop
  endfacet
  facet normal 0 0 -1
    outer loop
      vertex 1.5 -25.5 71.5089
      vertex -1.5 1.5 71.5089
      vertex 1.5 1.5 71.5089
    endloop
  endfacet
  facet normal 6.12303e-17 1 0
    outer loop
      vertex -1.5 1.5 71.5089
      vertex -1.5 1.5 98.2562
      vertex 1.5 1.5 71.5089
    endloop
  endfacet
  facet normal 6.12303e-17 1 0
    outer loop
      vertex 1.5 1.5 71.5089
      vertex -1.5 1.5 98.2562
      vertex 1.5 1.5 95.1496
    endloop
  endfacet
  facet normal 6.12303e-17 1 0
    outer loop
      vertex 25.5 -25.5 99.4683
      vertex 25.5 -25.5 71.5089
      vertex 1.5 -25.5 99.4683
    endloop
  endfacet
  facet normal 6.12303e-17 1 0
    outer loop
      vertex 1.5 -25.5 99.4683
      vertex 25.5 -25.5 71.5089
      vertex 1.5 -25.5 71.5089
    endloop
  endfacet
  facet normal -1 6.12303e-17 0
    outer loop
      vertex -1.5 -28.5 71.5089
      vertex -1.5 -28.5 99.4683
      vertex -1.5 1.5 71.5089
    endloop
  endfacet
  facet normal -1 6.12303e-17 0
    outer loop
      vertex -1.5 -1.5 98.2562
      vertex -1.5 -28.5 99.4683
      vertex -1.5 -1.5 99.4683
    endloop
  endfacet
  facet normal -1 6.12303e-17 0
    outer loop
      vertex -1.5 1.5 71.5089
      vertex -1.5 -28.5 99.4683
      vertex -1.5 -1.5 98.2562
    endloop
  endfacet
  facet normal -1 6.12303e-17 0
    outer loop
      vertex -1.5 1.5 98.2562
      vertex -1.5 1.5 71.5089
      vertex -1.5 -1.5 98.2562
    endloop
  endfacet
  facet normal -1.22461e-16 -1 0
    outer loop
      vertex 25.5 -28.5 70.2969
      vertex 25.5 -28.5 43.7365
      vertex 28.5 -28.5 43.7365
    endloop
  endfacet
  facet normal -1.22461e-16 -1 0
    outer loop
      vertex 55.5 -28.5 43.5496
      vertex 25.5 -28.5 70.2969
      vertex 28.5 -28.5 43.7365
    endloop
  endfacet
  facet normal -1.22461e-16 -1 0
    outer loop
      vertex 28.5 -28.5 43.5496
      vertex 55.5 -28.5 43.5496
      vertex 28.5 -28.5 43.7365
    endloop
  endfacet
  facet normal -1.22461e-16 -1 0
    outer loop
      vertex 29.6705 -28.5 71.5089
      vertex 28.5 -28.5 70.2969
      vertex 55.5 -28.5 71.5089
    endloop
  endfacet
  facet normal -1.22461e-16 -1 0
    outer loop
      vertex 55.5 -28.5 99.4683
      vertex 25.5 -28.5 99.4683
      vertex 28.5 -28.5 99.4683
    endloop
  endfacet
  facet normal -1.22461e-16 -1 0
    outer loop
      vertex 29.6705 -28.5 71.5089
      vertex 55.5 -28.5 98.2562
      vertex 28.5 -28.5 71.5089
    endloop
  endfacet
  facet normal -1.22461e-16 -1 0
    outer loop
      vertex 55.5 -28.5 43.5496
      vertex 28.5 -28.5 70.2969
      vertex 25.5 -28.5 70.2969
    endloop
  endfacet
  facet normal -1.22461e-16 -1 0
    outer loop
      vertex 55.5 -28.5 43.5496
      vertex 55.5 -28.5 71.5089
      vertex 28.5 -28.5 70.2969
    endloop
  endfacet
  facet normal -1.22461e-16 -1 0
    outer loop
      vertex 28.5 -28.5 71.5089
      vertex 28.5 -28.5 70.2969
      vertex 29.6705 -28.5 71.5089
    endloop
  endfacet
  facet normal -1.22461e-16 -1 0
    outer loop
      vertex 28.5 -28.5 99.4683
      vertex 55.5 -28.5 98.2562
      vertex 55.5 -28.5 99.4683
    endloop
  endfacet
  facet normal -1.22461e-16 -1 0
    outer loop
      vertex 28.5 -28.5 99.4683
      vertex 28.5 -28.5 71.5089
      vertex 55.5 -28.5 98.2562
    endloop
  endfacet
  facet normal -6.12303e-17 -1 0
    outer loop
      vertex -1.5 -28.5 99.4683
      vertex -1.5 -28.5 71.5089
      vertex 28.5 -28.5 71.5089
    endloop
  endfacet
  facet normal -6.12303e-17 -1 0
    outer loop
      vertex 28.5 -28.5 99.4683
      vertex -1.5 -28.5 99.4683
      vertex 28.5 -28.5 71.5089
    endloop
  endfacet
  facet normal -1 2.44921e-16 0
    outer loop
      vertex -1.5 -1.5 98.2562
      vertex -1.5 -1.5 99.4683
      vertex -1.5 28.5 98.2562
    endloop
  endfacet
  facet normal -1 2.44921e-16 0
    outer loop
      vertex -1.5 28.5 98.2562
      vertex -1.5 -1.5 99.4683
      vertex -1.5 28.5 99.4683
    endloop
  endfacet
  facet normal 2.44921e-16 1 0
    outer loop
      vertex -1.5 28.5 98.2562
      vertex -1.5 28.5 99.4683
      vertex 25.5 28.5 70.2969
    endloop
  endfacet
  facet normal 2.44921e-16 1 0
    outer loop
      vertex 25.5 28.5 99.4683
      vertex -1.5 28.5 99.4683
      vertex 28.5 28.5 99.4683
    endloop
  endfacet
  facet normal 2.44921e-16 1 0
    outer loop
      vertex 25.5 28.5 70.2969
      vertex -1.5 28.5 99.4683
      vertex 25.5 28.5 71.5089
    endloop
  endfacet
  facet normal 2.44921e-16 1 0
    outer loop
      vertex -1.5 28.5 99.4683
      vertex 25.5 28.5 99.4683
      vertex 25.5 28.5 71.5089
    endloop
  endfacet
  facet normal 1 -2.44921e-16 0
    outer loop
      vertex 28.5 1.5 71.5089
      vertex 28.5 1.5 70.2969
      vertex 28.5 24.3295 70.2969
    endloop
  endfacet
  facet normal 1 -2.44921e-16 0
    outer loop
      vertex 28.5 28.5 71.5089
      vertex 28.5 1.5 71.5089
      vertex 28.5 25.5 71.5089
    endloop
  endfacet
  facet normal 1 -2.44921e-16 0
    outer loop
      vertex 28.5 25.5 71.5089
      vertex 28.5 1.5 71.5089
      vertex 28.5 24.3295 70.2969
    endloop
  endfacet
  facet normal 1 -2.44921e-16 0
    outer loop
      vertex 28.5 25.5 71.5089
      vertex 28.5 1.5 71.5089
      vertex 28.5 28.5 71.5089
    endloop
  endfacet
  facet normal -2.44921e-16 -1 0
    outer loop
      vertex 28.5 25.5 71.5089
      vertex 28.5 25.5 99.4683
      vertex 1.5 25.5 99.4683
    endloop
  endfacet
  facet normal 0.71934 -1.76182e-16 0.694658
    outer loop
      vertex 28.5 1.5 71.5089
      vertex 2.67049 1.5 98.2562
      vertex 25.5 1.5 74.6155
    endloop
  endfacet
  facet normal 0.71934 -1.76182e-16 0.694658
    outer loop
      vertex 28.5 25.5 71.5089
      vertex 2.67049 1.5 98.2562
      vertex 28.5 1.5 71.5089
    endloop
  endfacet
  facet normal 0.71934 -1.76182e-16 0.694658
    outer loop
      vertex 1.5 25.5 99.4683
      vertex 2.67049 1.5 98.2562
      vertex 28.5 25.5 71.5089
    endloop
  endfacet
  facet normal 0.71934 -1.76182e-16 0.694658
    outer loop
      vertex 1.5 1.5 99.4683
      vertex 2.67049 1.5 98.2562
      vertex 1.5 25.5 99.4683
    endloop
  endfacet
  facet normal 0 0 -1
    outer loop
      vertex 25.5 1.5 98.2562
      vertex 2.67049 1.5 98.2562
      vertex 27 1.5 98.2562
    endloop
  endfacet
  facet normal 1.22461e-16 1 0
    outer loop
      vertex 25.5 1.5 74.6155
      vertex 25.5 1.5 98.2562
      vertex 28.5 1.5 71.5089
    endloop
  endfacet
  facet normal 1.22461e-16 1 0
    outer loop
      vertex 28.5 1.5 71.5089
      vertex 25.5 1.5 98.2562
      vertex 27 1.5 98.2562
    endloop
  endfacet
  facet normal 1.22461e-16 1 0
    outer loop
      vertex 28.5 1.5 71.5089
      vertex 27 1.5 98.2562
      vertex 52.5 1.5 98.2562
    endloop
  endfacet
  facet normal 1.22461e-16 1 0
    outer loop
      vertex 28.5 1.5 71.5089
      vertex 52.5 1.5 98.2562
      vertex 52.5 1.5 95.1496
    endloop
  endfacet
  facet normal 1.22461e-16 1 0
    outer loop
      vertex 28.5 1.5 71.5089
      vertex 52.5 1.5 95.1496
      vertex 28.5 1.5 70.2969
    endloop
  endfacet
  facet normal 1.32136e-16 0.71934 -0.694658
    outer loop
      vertex 25.5 1.5 98.2562
      vertex 25.5 25.5 123.109
      vertex 27 1.5 98.2562
    endloop
  endfacet
  facet normal 1.32136e-16 0.71934 -0.694658
    outer loop
      vertex 27 1.5 98.2562
      vertex 25.5 25.5 123.109
      vertex 28.5 25.5 123.109
    endloop
  endfacet
  facet normal 1.32136e-16 0.71934 -0.694658
    outer loop
      vertex 28.5 25.5 123.109
      vertex 55.5 28.5 126.216
      vertex 27 1.5 98.2562
    endloop
  endfacet
  facet normal 1.32136e-16 0.71934 -0.694658
    outer loop
      vertex 28.5 28.5 126.216
      vertex 27 28.5 126.216
      vertex 55.5 28.5 126.216
    endloop
  endfacet
  facet normal 1.32136e-16 0.71934 -0.694658
    outer loop
      vertex 28.5 28.5 126.216
      vertex 55.5 28.5 126.216
      vertex 28.5 25.5 123.109
    endloop
  endfacet
  facet normal 1.32136e-16 0.71934 -0.694658
    outer loop
      vertex 52.5 2.67049 99.4683
      vertex 55.5 28.5 126.216
      vertex 55.5 2.67049 99.4683
    endloop
  endfacet
  facet normal 1.32136e-16 0.71934 -0.694658
    outer loop
      vertex 27 1.5 98.2562
      vertex 55.5 28.5 126.216
      vertex 52.5 2.67049 99.4683
    endloop
  endfacet
  facet normal 1.32136e-16 0.71934 -0.694658
    outer loop
      vertex 52.5 1.5 98.2562
      vertex 27 1.5 98.2562
      vertex 52.5 2.67049 99.4683
    endloop
  endfacet
  facet normal 1 -2.44921e-16 0
    outer loop
      vertex 1.5 25.5 99.4683
      vertex 1.5 25.5 127.428
      vertex 1.5 1.5 127.428
    endloop
  endfacet
  facet normal 1 -2.44921e-16 0
    outer loop
      vertex 1.5 1.5 99.4683
      vertex 1.5 25.5 99.4683
      vertex 1.5 1.5 127.428
    endloop
  endfacet
  facet normal -2.44921e-16 -1 0
    outer loop
      vertex 28.5 25.5 99.4683
      vertex 28.5 25.5 123.109
      vertex 25.5 25.5 123.109
    endloop
  endfacet
  facet normal -2.44921e-16 -1 0
    outer loop
      vertex 1.5 25.5 127.428
      vertex 28.5 25.5 99.4683
      vertex 25.5 25.5 123.109
    endloop
  endfacet
  facet normal -2.44921e-16 -1 0
    outer loop
      vertex 25.5 25.5 127.428
      vertex 1.5 25.5 127.428
      vertex 25.5 25.5 123.109
    endloop
  endfacet
  facet normal -2.44921e-16 -1 0
    outer loop
      vertex 1.5 25.5 127.428
      vertex 1.5 25.5 99.4683
      vertex 28.5 25.5 99.4683
    endloop
  endfacet
  facet normal 1 -2.44921e-16 0
    outer loop
      vertex 28.5 25.5 123.109
      vertex 28.5 25.5 99.4683
      vertex 28.5 28.5 99.4683
    endloop
  endfacet
  facet normal 1 -2.44921e-16 0
    outer loop
      vertex 28.5 28.5 126.216
      vertex 28.5 25.5 123.109
      vertex 28.5 28.5 99.4683
    endloop
  endfacet
  facet normal 2.44921e-16 1 0
    outer loop
      vertex -1.5 28.5 99.4683
      vertex -1.5 28.5 127.428
      vertex 28.5 28.5 99.4683
    endloop
  endfacet
  facet normal 2.44921e-16 1 0
    outer loop
      vertex 27 28.5 126.216
      vertex -1.5 28.5 127.428
      vertex 27 28.5 127.428
    endloop
  endfacet
  facet normal 2.44921e-16 1 0
    outer loop
      vertex 28.5 28.5 99.4683
      vertex -1.5 28.5 127.428
      vertex 27 28.5 126.216
    endloop
  endfacet
  facet normal 2.44921e-16 1 0
    outer loop
      vertex 28.5 28.5 126.216
      vertex 28.5 28.5 99.4683
      vertex 27 28.5 126.216
    endloop
  endfacet
  facet normal -1 2.44921e-16 0
    outer loop
      vertex -1.5 -1.5 99.4683
      vertex -1.5 -1.5 127.428
      vertex -1.5 28.5 99.4683
    endloop
  endfacet
  facet normal -1 2.44921e-16 0
    outer loop
      vertex -1.5 28.5 99.4683
      vertex -1.5 -1.5 127.428
      vertex -1.5 28.5 127.428
    endloop
  endfacet
  facet normal 0 0 1
    outer loop
      vertex 52.5 25.5 99.4683
      vertex 55.5 28.5 99.4683
      vertex 28.5 28.5 99.4683
    endloop
  endfacet
  facet normal 0 0 1
    outer loop
      vertex 55.5 28.5 99.4683
      vertex 25.5 28.5 99.4683
      vertex 28.5 28.5 99.4683
    endloop
  endfacet
  facet normal 0 0 1
    outer loop
      vertex 28.5 25.5 99.4683
      vertex 52.5 25.5 99.4683
      vertex 28.5 28.5 99.4683
    endloop
  endfacet
  facet normal 0 0 1
    outer loop
      vertex 55.5 2.67049 99.4683
      vertex 55.5 28.5 99.4683
      vertex 52.5 25.5 99.4683
    endloop
  endfacet
  facet normal 0 0 1
    outer loop
      vertex 52.5 2.67049 99.4683
      vertex 55.5 2.67049 99.4683
      vertex 52.5 25.5 99.4683
    endloop
  endfacet
  facet normal 0 0 1
    outer loop
      vertex 55.5 1.5 99.4683
      vertex 55.5 28.5 99.4683
      vertex 55.5 2.67049 99.4683
    endloop
  endfacet
  facet normal 1.22461e-16 1 0
    outer loop
      vertex 25.5 -25.5 99.4683
      vertex 52.5 -25.5 99.4683
      vertex 25.5 -25.5 71.5089
    endloop
  endfacet
  facet normal 1 -1.22461e-16 0
    outer loop
      vertex 55.5 -28.5 99.4683
      vertex 55.5 -28.5 98.2562
      vertex 55.5 1.5 98.2562
    endloop
  endfacet
  facet normal 1 -1.22461e-16 0
    outer loop
      vertex 55.5 1.5 99.4683
      vertex 55.5 -28.5 99.4683
      vertex 55.5 1.5 98.2562
    endloop
  endfacet
  facet normal 0 0 1
    outer loop
      vertex 25.5 -28.5 71.5089
      vertex -1.5 -28.5 71.5089
      vertex 28.5 -28.5 71.5089
    endloop
  endfacet
  facet normal 0 0 1
    outer loop
      vertex 1.5 -25.5 71.5089
      vertex 1.5 1.5 71.5089
      vertex -1.5 1.5 71.5089
    endloop
  endfacet
  facet normal 0 0 1
    outer loop
      vertex 1.5 -25.5 71.5089
      vertex -1.5 -28.5 71.5089
      vertex 25.5 -28.5 71.5089
    endloop
  endfacet
  facet normal 0 0 1
    outer loop
      vertex -1.5 1.5 71.5089
      vertex -1.5 -28.5 71.5089
      vertex 1.5 -25.5 71.5089
    endloop
  endfacet
  facet normal 0 0 1
    outer loop
      vertex 25.5 -25.5 71.5089
      vertex 1.5 -25.5 71.5089
      vertex 25.5 -28.5 71.5089
    endloop
  endfacet
  facet normal 4.40454e-17 0.71934 0.694658
    outer loop
      vertex 25.5 -24.3295 70.2969
      vertex 25.5 -1.5 46.6562
      vertex 25.5 -25.5 71.5089
    endloop
  endfacet
  facet normal 4.40454e-17 0.71934 0.694658
    outer loop
      vertex 25.5 -1.5 46.6562
      vertex 25.5 1.31957 43.7365
      vertex 21.9722 1.31957 43.7365
    endloop
  endfacet
  facet normal 4.40454e-17 0.71934 0.694658
    outer loop
      vertex 25.5 -1.5 46.6562
      vertex 21.9722 1.31957 43.7365
      vertex 25.5 -25.5 71.5089
    endloop
  endfacet
  facet normal 4.40454e-17 0.71934 0.694658
    outer loop
      vertex 21.9722 1.31957 43.7365
      vertex 21.5715 1.5 43.5496
      vertex 25.5 -25.5 71.5089
    endloop
  endfacet
  facet normal 4.40454e-17 0.71934 0.694658
    outer loop
      vertex 21.5715 1.5 43.5496
      vertex 1.5 1.5 43.5496
      vertex 25.5 -25.5 71.5089
    endloop
  endfacet
  facet normal 4.40454e-17 0.71934 0.694658
    outer loop
      vertex 1.5 1.5 43.5496
      vertex 1.5 -25.5 71.5089
      vertex 25.5 -25.5 71.5089
    endloop
  endfacet
  facet normal -1 6.12303e-17 0
    outer loop
      vertex 25.5 -1.5 70.2969
      vertex 25.5 -1.5 46.6562
      vertex 25.5 -24.3295 70.2969
    endloop
  endfacet
  facet normal -1 1.83691e-16 0
    outer loop
      vertex 25.5 -1.5 46.6562
      vertex 25.5 -1.5 70.2969
      vertex 25.5 1.31957 43.7365
    endloop
  endfacet
  facet normal -1 1.83691e-16 0
    outer loop
      vertex 25.5 1.31957 43.7365
      vertex 25.5 -1.5 70.2969
      vertex 25.5 -0.890336 70.2969
    endloop
  endfacet
  facet normal -1 1.83691e-16 0
    outer loop
      vertex 25.5 1.31957 43.7365
      vertex 25.5 -0.890336 70.2969
      vertex 25.5 25.5 70.2969
    endloop
  endfacet
  facet normal -1 1.83691e-16 0
    outer loop
      vertex 25.5 1.31957 43.7365
      vertex 25.5 25.5 70.2969
      vertex 25.5 25.5 67.1903
    endloop
  endfacet
  facet normal -1 1.83691e-16 0
    outer loop
      vertex 25.5 1.5 43.7365
      vertex 25.5 25.5 67.1903
      vertex 25.5 1.5 42.3375
    endloop
  endfacet
  facet normal -1 1.83691e-16 0
    outer loop
      vertex 25.5 1.31957 43.7365
      vertex 25.5 25.5 67.1903
      vertex 25.5 1.5 43.7365
    endloop
  endfacet
  facet normal 0 -1 0
    outer loop
      vertex 28.5 25.5 15.5903
      vertex 25.5 25.5 43.5496
      vertex 1.5 25.5 43.5496
    endloop
  endfacet
  facet normal 0 -1 0
    outer loop
      vertex 25.5 25.5 43.5496
      vertex 28.5 25.5 15.5903
      vertex 55.5 25.5 3
    endloop
  endfacet
  facet normal 0 -1 0
    outer loop
      vertex 25.5 25.5 43.5496
      vertex 55.5 25.5 3
      vertex 55.5 25.5 32.7912
    endloop
  endfacet
  facet normal 0 -1 0
    outer loop
      vertex 25.5 25.5 43.5496
      vertex 55.5 25.5 32.7912
      vertex 32.0278 25.5 43.7365
    endloop
  endfacet
  facet normal 0 -1 0
    outer loop
      vertex 1.5 25.5 43.5496
      vertex 24.3295 25.5 71.5089
      vertex 1.5 25.5 71.5089
    endloop
  endfacet
  facet normal 0 -1 0
    outer loop
      vertex 1.5 25.5 43.5496
      vertex 25.5 25.5 70.2969
      vertex 24.3295 25.5 71.5089
    endloop
  endfacet
  facet normal 0 -1 0
    outer loop
      vertex 1.5 25.5 43.5496
      vertex 25.5 25.5 67.1903
      vertex 25.5 25.5 70.2969
    endloop
  endfacet
  facet normal 0 -1 0
    outer loop
      vertex 1.5 25.5 43.5496
      vertex 28.5 25.5 67.1903
      vertex 25.5 25.5 67.1903
    endloop
  endfacet
  facet normal 0 -1 0
    outer loop
      vertex 1.5 25.5 43.5496
      vertex 28.5 25.5 43.7365
      vertex 28.5 25.5 67.1903
    endloop
  endfacet
  facet normal 0 -1 0
    outer loop
      vertex 1.5 25.5 43.5496
      vertex 32.0278 25.5 43.7365
      vertex 28.5 25.5 43.7365
    endloop
  endfacet
  facet normal 0 -1 0
    outer loop
      vertex 1.5 25.5 43.5496
      vertex 25.5 25.5 43.5496
      vertex 32.0278 25.5 43.7365
    endloop
  endfacet
  facet normal 0 0 1
    outer loop
      vertex 1.5 1.5 71.5089
      vertex -1.5 28.5 71.5089
      vertex -1.5 1.5 71.5089
    endloop
  endfacet
  facet normal 0 0 1
    outer loop
      vertex -1.5 1.5 71.5089
      vertex -1.5 28.5 71.5089
      vertex -1.5 -1.5 71.5089
    endloop
  endfacet
  facet normal 0 0 1
    outer loop
      vertex 1.5 25.5 71.5089
      vertex -1.5 28.5 71.5089
      vertex 1.5 1.5 71.5089
    endloop
  endfacet
  facet normal 0 0 1
    outer loop
      vertex 24.3295 25.5 71.5089
      vertex -1.5 28.5 71.5089
      vertex 1.5 25.5 71.5089
    endloop
  endfacet
  facet normal 0 0 1
    outer loop
      vertex 24.3295 28.5 71.5089
      vertex -1.5 28.5 71.5089
      vertex 24.3295 25.5 71.5089
    endloop
  endfacet
  facet normal 0 1 0
    outer loop
      vertex -1.5 28.5 0
      vertex -1.5 28.5 3
      vertex 55.5 28.5 0
    endloop
  endfacet
  facet normal 0 1 0
    outer loop
      vertex 55.5 28.5 0
      vertex -1.5 28.5 3
      vertex 48.4014 28.5 3
    endloop
  endfacet
  facet normal 0 1 0
    outer loop
      vertex 55.5 28.5 0
      vertex 48.4014 28.5 3
      vertex 25.5 28.5 13.6791
    endloop
  endfacet
  facet normal 0 1 0
    outer loop
      vertex 55.5 28.5 0
      vertex 25.5 28.5 13.6791
      vertex 25.5 28.5 14.3782
    endloop
  endfacet
  facet normal 0 1 0
    outer loop
      vertex 25.5 28.5 14.3782
      vertex -1.5 28.5 42.3375
      vertex 55.5 28.5 0
    endloop
  endfacet
  facet normal 0 1 0
    outer loop
      vertex 55.5 28.5 0
      vertex -1.5 28.5 42.3375
      vertex -1.5 28.5 43.5496
    endloop
  endfacet
  facet normal 0 1 0
    outer loop
      vertex 55.5 28.5 0
      vertex -1.5 28.5 43.5496
      vertex 25.5 28.5 43.5496
    endloop
  endfacet
  facet normal 0 1 0
    outer loop
      vertex 25.5 28.5 43.5496
      vertex -1.5 28.5 43.5496
      vertex -1.5 28.5 71.5089
    endloop
  endfacet
  facet normal 0 1 0
    outer loop
      vertex 25.5 28.5 43.5496
      vertex -1.5 28.5 71.5089
      vertex 24.3295 28.5 71.5089
    endloop
  endfacet
  facet normal 0 1 0
    outer loop
      vertex 28.5 28.5 43.7365
      vertex 25.5 28.5 70.2969
      vertex 28.5 28.5 70.2969
    endloop
  endfacet
  facet normal 0 1 0
    outer loop
      vertex 28.5 28.5 43.7365
      vertex 24.3295 28.5 71.5089
      vertex 25.5 28.5 70.2969
    endloop
  endfacet
  facet normal 0 1 0
    outer loop
      vertex 25.5 28.5 43.5496
      vertex 24.3295 28.5 71.5089
      vertex 28.5 28.5 43.7365
    endloop
  endfacet
  facet normal 0 1 0
    outer loop
      vertex 25.5 28.5 43.5496
      vertex 28.5 28.5 43.7365
      vertex 55.5 28.5 0
    endloop
  endfacet
  facet normal 0 1 0
    outer loop
      vertex 55.5 28.5 32.7912
      vertex 55.5 28.5 0
      vertex 32.0278 28.5 43.7365
    endloop
  endfacet
  facet normal 0 1 0
    outer loop
      vertex 28.5 28.5 43.7365
      vertex 32.0278 28.5 43.7365
      vertex 55.5 28.5 0
    endloop
  endfacet
  facet normal -1 1.22461e-16 0
    outer loop
      vertex 25.5 -28.5 43.7365
      vertex 25.5 -28.5 70.2969
      vertex 25.5 -25.5 43.7365
    endloop
  endfacet
  facet normal -1 1.22461e-16 0
    outer loop
      vertex 25.5 -25.5 43.7365
      vertex 25.5 -28.5 70.2969
      vertex 25.5 -25.5 67.1903
    endloop
  endfacet
  facet normal -1 1.22461e-16 0
    outer loop
      vertex 25.5 -25.5 43.7365
      vertex 25.5 -25.5 67.1903
      vertex 25.5 -25.5 43.5496
    endloop
  endfacet
  facet normal -4.40454e-17 -0.71934 -0.694658
    outer loop
      vertex 25.5 -28.5 70.2969
      vertex -1.5 -28.5 70.2969
      vertex -1.5 -1.5 42.3375
    endloop
  endfacet
  facet normal -4.40454e-17 -0.71934 -0.694658
    outer loop
      vertex 28.5 -1.5 42.3375
      vertex 28.5 -25.5 67.1903
      vertex 0.890336 -1.5 42.3375
    endloop
  endfacet
  facet normal -4.40454e-17 -0.71934 -0.694658
    outer loop
      vertex 28.5 -25.5 67.1903
      vertex 25.5 -25.5 67.1903
      vertex 0.890336 -1.5 42.3375
    endloop
  endfacet
  facet normal -4.40454e-17 -0.71934 -0.694658
    outer loop
      vertex 28.5 -28.5 70.2969
      vertex -1.5 -28.5 70.2969
      vertex 25.5 -28.5 70.2969
    endloop
  endfacet
  facet normal -4.40454e-17 -0.71934 -0.694658
    outer loop
      vertex 25.5 -25.5 67.1903
      vertex -1.5 -1.5 42.3375
      vertex 0.890336 -1.5 42.3375
    endloop
  endfacet
  facet normal -4.40454e-17 -0.71934 -0.694658
    outer loop
      vertex 25.5 -25.5 67.1903
      vertex 25.5 -28.5 70.2969
      vertex -1.5 -1.5 42.3375
    endloop
  endfacet
  facet normal 0.71934 -8.80908e-17 -0.694658
    outer loop
      vertex 29.6705 -25.5 71.5089
      vertex 28.5 -25.5 70.2969
      vertex 28.5 0.890336 70.2969
    endloop
  endfacet
  facet normal 0.71934 -8.80908e-17 -0.694658
    outer loop
      vertex 52.5 1.5 95.1496
      vertex 29.6705 -25.5 71.5089
      vertex 28.5 1.5 70.2969
    endloop
  endfacet
  facet normal 0.71934 -8.80908e-17 -0.694658
    outer loop
      vertex 28.5 1.5 70.2969
      vertex 29.6705 -25.5 71.5089
      vertex 28.5 0.890336 70.2969
    endloop
  endfacet
  facet normal 0.71934 -8.80908e-17 -0.694658
    outer loop
      vertex 52.5 -1.5 95.1496
      vertex 29.6705 -25.5 71.5089
      vertex 52.5 1.5 95.1496
    endloop
  endfacet
  facet normal 0.71934 -8.80908e-17 -0.694658
    outer loop
      vertex 55.5 -1.5 98.2562
      vertex 29.6705 -25.5 71.5089
      vertex 52.5 -1.5 95.1496
    endloop
  endfacet
  facet normal 0.71934 -8.80908e-17 -0.694658
    outer loop
      vertex 55.5 -28.5 98.2562
      vertex 29.6705 -25.5 71.5089
      vertex 55.5 -1.5 98.2562
    endloop
  endfacet
  facet normal 0.71934 -8.80908e-17 -0.694658
    outer loop
      vertex 55.5 -28.5 98.2562
      vertex 55.5 -1.5 98.2562
      vertex 55.5 1.5 98.2562
    endloop
  endfacet
  facet normal 0.71934 -8.80908e-17 -0.694658
    outer loop
      vertex 29.6705 -28.5 71.5089
      vertex 29.6705 -25.5 71.5089
      vertex 55.5 -28.5 98.2562
    endloop
  endfacet
  facet normal 0 0 1
    outer loop
      vertex 29.6705 -25.5 71.5089
      vertex 29.6705 -28.5 71.5089
      vertex 55.5 -28.5 71.5089
    endloop
  endfacet
  facet normal 0 0 1
    outer loop
      vertex 52.5 -25.5 71.5089
      vertex 29.6705 -25.5 71.5089
      vertex 55.5 -28.5 71.5089
    endloop
  endfacet
  facet normal 0 0 1
    outer loop
      vertex 55.5 1.5 71.5089
      vertex 55.5 -1.5 71.5089
      vertex 55.5 -28.5 71.5089
    endloop
  endfacet
  facet normal 0 0 1
    outer loop
      vertex 55.5 -1.5 71.5089
      vertex 52.5 -25.5 71.5089
      vertex 55.5 -28.5 71.5089
    endloop
  endfacet
  facet normal 0 0 1
    outer loop
      vertex 52.5 -1.5 71.5089
      vertex 52.5 -25.5 71.5089
      vertex 55.5 -1.5 71.5089
    endloop
  endfacet
  facet normal 1 -1.22461e-16 0
    outer loop
      vertex 55.5 -28.5 71.5089
      vertex 55.5 -28.5 43.5496
      vertex 55.5 1.5 43.5496
    endloop
  endfacet
  facet normal 1 -1.22461e-16 0
    outer loop
      vertex 55.5 1.5 71.5089
      vertex 55.5 -28.5 71.5089
      vertex 55.5 1.5 43.5496
    endloop
  endfacet
  facet normal 0 0 -1
    outer loop
      vertex 28.5 -25.5 43.5496
      vertex 25.5 -25.5 43.5496
      vertex 52.5 -25.5 43.5496
    endloop
  endfacet
  facet normal 0 0 -1
    outer loop
      vertex 52.5 -25.5 43.5496
      vertex 52.5 -1.5 43.5496
      vertex 55.5 -1.5 43.5496
    endloop
  endfacet
  facet normal 0 0 -1
    outer loop
      vertex 52.5 -25.5 43.5496
      vertex 55.5 -28.5 43.5496
      vertex 28.5 -25.5 43.5496
    endloop
  endfacet
  facet normal 0 0 -1
    outer loop
      vertex 55.5 -1.5 43.5496
      vertex 55.5 1.5 43.5496
      vertex 55.5 -28.5 43.5496
    endloop
  endfacet
  facet normal 0 0 -1
    outer loop
      vertex 55.5 -1.5 43.5496
      vertex 55.5 -28.5 43.5496
      vertex 52.5 -25.5 43.5496
    endloop
  endfacet
  facet normal 0 0 -1
    outer loop
      vertex 28.5 -25.5 43.5496
      vertex 55.5 -28.5 43.5496
      vertex 28.5 -28.5 43.5496
    endloop
  endfacet
  facet normal 1 -1.22461e-16 0
    outer loop
      vertex 28.5 -28.5 14.3782
      vertex 28.5 -28.5 13.6791
      vertex 28.5 -1.5 13.6791
    endloop
  endfacet
  facet normal 1 -1.22461e-16 0
    outer loop
      vertex 28.5 -28.5 43.7365
      vertex 28.5 -28.5 13.6791
      vertex 28.5 -28.5 14.3782
    endloop
  endfacet
  facet normal 1 -1.22461e-16 0
    outer loop
      vertex 28.5 -28.5 43.7365
      vertex 28.5 -28.5 14.3782
      vertex 28.5 -28.5 43.5496
    endloop
  endfacet
  facet normal 1 -1.22461e-16 0
    outer loop
      vertex 28.5 -1.5 14.3782
      vertex 28.5 -28.5 14.3782
      vertex 28.5 -1.5 13.6791
    endloop
  endfacet
  facet normal 0 0 1
    outer loop
      vertex 25.5 -28.5 43.7365
      vertex 21.9722 -28.5 43.7365
      vertex 28.5 -28.5 43.7365
    endloop
  endfacet
  facet normal 0 0 1
    outer loop
      vertex 25.5 -28.5 43.7365
      vertex 25.5 -25.5 43.7365
      vertex 21.9722 -25.5 43.7365
    endloop
  endfacet
  facet normal 0 0 1
    outer loop
      vertex 21.9722 -25.5 43.7365
      vertex 21.9722 -28.5 43.7365
      vertex 25.5 -28.5 43.7365
    endloop
  endfacet
  facet normal 0 0 1
    outer loop
      vertex 52.5 25.5 71.5089
      vertex 55.5 28.5 71.5089
      vertex 28.5 28.5 71.5089
    endloop
  endfacet
  facet normal 0 0 1
    outer loop
      vertex 55.5 28.5 71.5089
      vertex 25.5 28.5 71.5089
      vertex 28.5 28.5 71.5089
    endloop
  endfacet
  facet normal 0 0 1
    outer loop
      vertex 28.5 25.5 71.5089
      vertex 52.5 25.5 71.5089
      vertex 28.5 28.5 71.5089
    endloop
  endfacet
  facet normal 0 0 1
    outer loop
      vertex 52.5 -1.5 71.5089
      vertex 55.5 -1.5 71.5089
      vertex 52.5 25.5 71.5089
    endloop
  endfacet
  facet normal 0 0 1
    outer loop
      vertex 55.5 -1.5 71.5089
      vertex 55.5 28.5 71.5089
      vertex 52.5 25.5 71.5089
    endloop
  endfacet
  facet normal 0 0 -1
    outer loop
      vertex 28.5 28.5 71.5089
      vertex 25.5 28.5 71.5089
      vertex 55.5 28.5 71.5089
    endloop
  endfacet
  facet normal 0 0 -1
    outer loop
      vertex 52.5 25.5 71.5089
      vertex 55.5 28.5 71.5089
      vertex 55.5 -1.5 71.5089
    endloop
  endfacet
  facet normal 0 0 -1
    outer loop
      vertex 28.5 28.5 71.5089
      vertex 55.5 28.5 71.5089
      vertex 52.5 25.5 71.5089
    endloop
  endfacet
  facet normal 0 0 -1
    outer loop
      vertex 28.5 25.5 71.5089
      vertex 28.5 28.5 71.5089
      vertex 52.5 25.5 71.5089
    endloop
  endfacet
  facet normal 0 0 -1
    outer loop
      vertex 52.5 25.5 71.5089
      vertex 55.5 -1.5 71.5089
      vertex 52.5 -1.5 71.5089
    endloop
  endfacet
  facet normal -1.83691e-16 -1 0
    outer loop
      vertex 52.5 25.5 71.5089
      vertex 52.5 25.5 99.4683
      vertex 28.5 25.5 99.4683
    endloop
  endfacet
  facet normal -1.83691e-16 -1 0
    outer loop
      vertex 28.5 25.5 71.5089
      vertex 52.5 25.5 71.5089
      vertex 28.5 25.5 99.4683
    endloop
  endfacet
  facet normal -1.32136e-16 -0.71934 0.694658
    outer loop
      vertex 28.5 1.5 46.6562
      vertex 28.5 -1.31957 43.7365
      vertex 32.0278 -1.31957 43.7365
    endloop
  endfacet
  facet normal -1.32136e-16 -0.71934 0.694658
    outer loop
      vertex 32.4285 -1.5 43.5496
      vertex 28.5 1.5 46.6562
      vertex 32.0278 -1.31957 43.7365
    endloop
  endfacet
  facet normal -1.32136e-16 -0.71934 0.694658
    outer loop
      vertex 32.4285 -1.5 43.5496
      vertex 52.5 -1.5 43.5496
      vertex 28.5 1.5 46.6562
    endloop
  endfacet
  facet normal -1.32136e-16 -0.71934 0.694658
    outer loop
      vertex 52.5 -1.5 43.5496
      vertex 52.5 25.5 71.5089
      vertex 28.5 1.5 46.6562
    endloop
  endfacet
  facet normal -1.32136e-16 -0.71934 0.694658
    outer loop
      vertex 52.5 25.5 71.5089
      vertex 28.5 25.5 71.5089
      vertex 28.5 1.5 46.6562
    endloop
  endfacet
  facet normal -1.32136e-16 -0.71934 0.694658
    outer loop
      vertex 28.5 25.5 71.5089
      vertex 28.5 24.3295 70.2969
      vertex 28.5 1.5 46.6562
    endloop
  endfacet
  facet normal 2.44921e-16 1 0
    outer loop
      vertex 25.5 1.5 98.2562
      vertex 25.5 1.5 74.6155
      vertex 2.67049 1.5 98.2562
    endloop
  endfacet
  facet normal -1 1.83691e-16 0
    outer loop
      vertex 52.5 1.5 95.1496
      vertex 52.5 1.5 98.2562
      vertex 52.5 2.67049 99.4683
    endloop
  endfacet
  facet normal -1 1.83691e-16 0
    outer loop
      vertex 52.5 1.5 95.1496
      vertex 52.5 2.67049 99.4683
      vertex 52.5 25.5 99.4683
    endloop
  endfacet
  facet normal -1 1.83691e-16 0
    outer loop
      vertex 52.5 1.5 95.1496
      vertex 52.5 25.5 99.4683
      vertex 52.5 25.5 71.5089
    endloop
  endfacet
  facet normal -1 1.83691e-16 0
    outer loop
      vertex 52.5 1.5 95.1496
      vertex 52.5 25.5 71.5089
      vertex 52.5 -1.5 95.1496
    endloop
  endfacet
  facet normal -1 1.83691e-16 0
    outer loop
      vertex 52.5 25.5 71.5089
      vertex 52.5 -1.5 71.5089
      vertex 52.5 -1.5 95.1496
    endloop
  endfacet
  facet normal 1.83691e-16 1 0
    outer loop
      vertex 25.5 28.5 71.5089
      vertex 25.5 28.5 99.4683
      vertex 55.5 28.5 71.5089
    endloop
  endfacet
  facet normal 1.83691e-16 1 0
    outer loop
      vertex 55.5 28.5 71.5089
      vertex 25.5 28.5 99.4683
      vertex 55.5 28.5 99.4683
    endloop
  endfacet
  facet normal 1 -1.83691e-16 0
    outer loop
      vertex 55.5 -1.5 98.2562
      vertex 55.5 -1.5 71.5089
      vertex 55.5 28.5 71.5089
    endloop
  endfacet
  facet normal 1 -1.83691e-16 0
    outer loop
      vertex 55.5 1.5 98.2562
      vertex 55.5 -1.5 98.2562
      vertex 55.5 28.5 71.5089
    endloop
  endfacet
  facet normal 1 -1.83691e-16 0
    outer loop
      vertex 55.5 28.5 99.4683
      vertex 55.5 1.5 98.2562
      vertex 55.5 28.5 71.5089
    endloop
  endfacet
  facet normal 1 -1.83691e-16 0
    outer loop
      vertex 55.5 1.5 99.4683
      vertex 55.5 1.5 98.2562
      vertex 55.5 28.5 99.4683
    endloop
  endfacet
  facet normal -1 6.12303e-17 0
    outer loop
      vertex -1.5 -28.5 70.2969
      vertex -1.5 -28.5 71.5089
      vertex -1.5 -1.5 42.3375
    endloop
  endfacet
  facet normal -1 6.12303e-17 0
    outer loop
      vertex -1.5 -1.5 71.5089
      vertex -1.5 -28.5 71.5089
      vertex -1.5 1.5 71.5089
    endloop
  endfacet
  facet normal -1 6.12303e-17 0
    outer loop
      vertex -1.5 -1.5 42.3375
      vertex -1.5 -28.5 71.5089
      vertex -1.5 -1.5 43.5496
    endloop
  endfacet
  facet normal -1 6.12303e-17 0
    outer loop
      vertex -1.5 -28.5 71.5089
      vertex -1.5 -1.5 71.5089
      vertex -1.5 -1.5 43.5496
    endloop
  endfacet
  facet normal 6.12303e-17 1 0
    outer loop
      vertex 1.5 1.5 43.5496
      vertex 21.5715 1.5 43.5496
      vertex 18.9722 1.5 42.3375
    endloop
  endfacet
  facet normal 6.12303e-17 1 0
    outer loop
      vertex 1.5 1.5 43.5496
      vertex 18.9722 1.5 42.3375
      vertex 2.67049 1.5 42.3375
    endloop
  endfacet
  facet normal 1 -6.12303e-17 0
    outer loop
      vertex 1.5 1.5 43.5496
      vertex 1.5 1.5 71.5089
      vertex 1.5 -25.5 71.5089
    endloop
  endfacet
  facet normal -6.12303e-17 -1 0
    outer loop
      vertex -1.5 -28.5 71.5089
      vertex -1.5 -28.5 70.2969
      vertex 28.5 -28.5 70.2969
    endloop
  endfacet
  facet normal -6.12303e-17 -1 0
    outer loop
      vertex 28.5 -28.5 71.5089
      vertex -1.5 -28.5 71.5089
      vertex 28.5 -28.5 70.2969
    endloop
  endfacet
  facet normal -0.422618 5.17541e-17 0.906308
    outer loop
      vertex 21.5715 1.5 43.5496
      vertex 7.73203 1.5 37.0962
      vertex 18.9722 1.5 42.3375
    endloop
  endfacet
  facet normal -0.422618 5.17541e-17 0.906308
    outer loop
      vertex 21.9722 1.5 43.7365
      vertex 7.73203 1.5 37.0962
      vertex 21.5715 1.5 43.5496
    endloop
  endfacet
  facet normal -0.422618 5.17541e-17 0.906308
    outer loop
      vertex 21.9722 1.31957 43.7365
      vertex 21.9722 1.5 43.7365
      vertex 21.5715 1.5 43.5496
    endloop
  endfacet
  facet normal 0 0 1
    outer loop
      vertex 21.9722 1.5 43.7365
      vertex 21.9722 1.31957 43.7365
      vertex 25.5 1.31957 43.7365
    endloop
  endfacet
  facet normal 0 0 1
    outer loop
      vertex 25.5 1.5 43.7365
      vertex 21.9722 1.5 43.7365
      vertex 25.5 1.31957 43.7365
    endloop
  endfacet
  facet normal 1.22461e-16 1 0
    outer loop
      vertex 7.73203 1.5 37.0962
      vertex 21.9722 1.5 43.7365
      vertex 25.5 1.5 18.6969
    endloop
  endfacet
  facet normal 1.22461e-16 1 0
    outer loop
      vertex 25.5 1.5 42.3375
      vertex 21.9722 1.5 43.7365
      vertex 25.5 1.5 43.7365
    endloop
  endfacet
  facet normal 1.22461e-16 1 0
    outer loop
      vertex 25.5 1.5 18.6969
      vertex 21.9722 1.5 43.7365
      vertex 25.5 1.5 42.3375
    endloop
  endfacet
  facet normal 1.32136e-16 0.71934 -0.694658
    outer loop
      vertex 25.5 1.5 42.3375
      vertex 25.5 25.5 67.1903
      vertex 53.1097 1.5 42.3375
    endloop
  endfacet
  facet normal 1.32136e-16 0.71934 -0.694658
    outer loop
      vertex 53.1097 1.5 42.3375
      vertex 25.5 25.5 67.1903
      vertex 28.5 25.5 67.1903
    endloop
  endfacet
  facet normal 1.32136e-16 0.71934 -0.694658
    outer loop
      vertex 53.1097 1.5 42.3375
      vertex 28.5 25.5 67.1903
      vertex 28.5 28.5 70.2969
    endloop
  endfacet
  facet normal 1.32136e-16 0.71934 -0.694658
    outer loop
      vertex 28.5 28.5 70.2969
      vertex 25.5 28.5 70.2969
      vertex 55.5 28.5 70.2969
    endloop
  endfacet
  facet normal 1.32136e-16 0.71934 -0.694658
    outer loop
      vertex 28.5 28.5 70.2969
      vertex 55.5 28.5 70.2969
      vertex 53.1097 1.5 42.3375
    endloop
  endfacet
  facet normal 1.32136e-16 0.71934 -0.694658
    outer loop
      vertex 53.1097 1.5 42.3375
      vertex 55.5 28.5 70.2969
      vertex 55.5 1.5 42.3375
    endloop
  endfacet
  facet normal 0 0 -1
    outer loop
      vertex 1.5 25.5 43.5496
      vertex -1.5 28.5 43.5496
      vertex 25.5 28.5 43.5496
    endloop
  endfacet
  facet normal 0 0 -1
    outer loop
      vertex -1.5 1.5 43.5496
      vertex -1.5 28.5 43.5496
      vertex 1.5 25.5 43.5496
    endloop
  endfacet
  facet normal 0 0 -1
    outer loop
      vertex -1.5 1.5 43.5496
      vertex 1.5 25.5 43.5496
      vertex 1.5 1.5 43.5496
    endloop
  endfacet
  facet normal 0 0 -1
    outer loop
      vertex -1.5 -1.5 43.5496
      vertex -1.5 28.5 43.5496
      vertex -1.5 1.5 43.5496
    endloop
  endfacet
  facet normal 0 0 -1
    outer loop
      vertex 1.5 25.5 43.5496
      vertex 25.5 28.5 43.5496
      vertex 25.5 25.5 43.5496
    endloop
  endfacet
  facet normal 1 0 0
    outer loop
      vertex 1.5 25.5 43.5496
      vertex 1.5 25.5 71.5089
      vertex 1.5 1.5 71.5089
    endloop
  endfacet
  facet normal 1 0 0
    outer loop
      vertex 1.5 1.5 43.5496
      vertex 1.5 25.5 43.5496
      vertex 1.5 1.5 71.5089
    endloop
  endfacet
  facet normal 1 0 0
    outer loop
      vertex 28.5 25.5 67.1903
      vertex 28.5 25.5 43.7365
      vertex 28.5 28.5 43.7365
    endloop
  endfacet
  facet normal 1 0 0
    outer loop
      vertex 28.5 28.5 70.2969
      vertex 28.5 25.5 67.1903
      vertex 28.5 28.5 43.7365
    endloop
  endfacet
  facet normal 0 0 1
    outer loop
      vertex 28.5 28.5 43.7365
      vertex 28.5 25.5 43.7365
      vertex 32.0278 25.5 43.7365
    endloop
  endfacet
  facet normal 0 0 1
    outer loop
      vertex 32.0278 28.5 43.7365
      vertex 28.5 28.5 43.7365
      vertex 32.0278 25.5 43.7365
    endloop
  endfacet
  facet normal 0.422618 0 0.906308
    outer loop
      vertex 32.0278 28.5 43.7365
      vertex 32.0278 25.5 43.7365
      vertex 55.5 25.5 32.7912
    endloop
  endfacet
  facet normal 0.422618 0 0.906308
    outer loop
      vertex 55.5 28.5 32.7912
      vertex 32.0278 28.5 43.7365
      vertex 55.5 25.5 32.7912
    endloop
  endfacet
  facet normal 1 0 0
    outer loop
      vertex 55.5 -28.5 3
      vertex 55.5 -28.5 0
      vertex 55.5 28.5 0
    endloop
  endfacet
  facet normal 1 0 0
    outer loop
      vertex 55.5 25.5 3
      vertex 55.5 1.5 3
      vertex 55.5 28.5 0
    endloop
  endfacet
  facet normal 1 0 0
    outer loop
      vertex 55.5 28.5 32.7912
      vertex 55.5 25.5 3
      vertex 55.5 28.5 0
    endloop
  endfacet
  facet normal 1 0 0
    outer loop
      vertex 55.5 1.5 3
      vertex 55.5 -1.5 3
      vertex 55.5 28.5 0
    endloop
  endfacet
  facet normal 1 0 0
    outer loop
      vertex 55.5 -1.5 3
      vertex 55.5 -28.5 3
      vertex 55.5 28.5 0
    endloop
  endfacet
  facet normal 1 0 0
    outer loop
      vertex 55.5 1.5 3
      vertex 55.5 1.5 32.7912
      vertex 55.5 -1.5 3
    endloop
  endfacet
  facet normal 1 0 0
    outer loop
      vertex 55.5 -1.5 32.7912
      vertex 55.5 -1.5 3
      vertex 55.5 1.5 32.7912
    endloop
  endfacet
  facet normal 1 0 0
    outer loop
      vertex 55.5 25.5 32.7912
      vertex 55.5 25.5 3
      vertex 55.5 28.5 32.7912
    endloop
  endfacet
  facet normal 0.422618 0 0.906308
    outer loop
      vertex 28.5 25.5 15.5903
      vertex 29.3071 1.5 15.214
      vertex 55.5 25.5 3
    endloop
  endfacet
  facet normal 0.422618 0 0.906308
    outer loop
      vertex 55.5 25.5 3
      vertex 29.3071 1.5 15.214
      vertex 55.5 1.5 3
    endloop
  endfacet
  facet normal 0.422618 0 0.906308
    outer loop
      vertex 28.5 1.5 15.5903
      vertex 29.3071 1.5 15.214
      vertex 28.5 25.5 15.5903
    endloop
  endfacet
  facet normal 0.71934 0 0.694658
    outer loop
      vertex 28.5 25.5 15.5903
      vertex 2.67049 1.5 42.3375
      vertex 7.73203 1.5 37.0962
    endloop
  endfacet
  facet normal 0.71934 0 0.694658
    outer loop
      vertex 28.5 25.5 15.5903
      vertex 7.73203 1.5 37.0962
      vertex 25.5 1.5 18.6969
    endloop
  endfacet
  facet normal 0.71934 0 0.694658
    outer loop
      vertex 28.5 25.5 15.5903
      vertex 25.5 1.5 18.6969
      vertex 28.5 1.5 15.5903
    endloop
  endfacet
  facet normal 0.71934 0 0.694658
    outer loop
      vertex 1.5 25.5 43.5496
      vertex 2.67049 1.5 42.3375
      vertex 28.5 25.5 15.5903
    endloop
  endfacet
  facet normal 0.71934 0 0.694658
    outer loop
      vertex 1.5 1.5 43.5496
      vertex 2.67049 1.5 42.3375
      vertex 1.5 25.5 43.5496
    endloop
  endfacet
  facet normal 0 0 1
    outer loop
      vertex 1.5 1.5 43.5496
      vertex -1.5 28.5 43.5496
      vertex -1.5 1.5 43.5496
    endloop
  endfacet
  facet normal 0 0 1
    outer loop
      vertex -1.5 1.5 43.5496
      vertex -1.5 28.5 43.5496
      vertex -1.5 -1.5 43.5496
    endloop
  endfacet
  facet normal 0 0 1
    outer loop
      vertex 1.5 25.5 43.5496
      vertex -1.5 28.5 43.5496
      vertex 1.5 1.5 43.5496
    endloop
  endfacet
  facet normal 0 0 1
    outer loop
      vertex 25.5 25.5 43.5496
      vertex -1.5 28.5 43.5496
      vertex 1.5 25.5 43.5496
    endloop
  endfacet
  facet normal 0 0 1
    outer loop
      vertex 25.5 28.5 43.5496
      vertex -1.5 28.5 43.5496
      vertex 25.5 25.5 43.5496
    endloop
  endfacet
  facet normal -1 0 0
    outer loop
      vertex -1.5 -1.5 43.5496
      vertex -1.5 -1.5 71.5089
      vertex -1.5 28.5 43.5496
    endloop
  endfacet
  facet normal -1 0 0
    outer loop
      vertex -1.5 28.5 43.5496
      vertex -1.5 -1.5 71.5089
      vertex -1.5 28.5 71.5089
    endloop
  endfacet
  facet normal 0 0 -1
    outer loop
      vertex -1.5 -28.5 0
      vertex -1.5 28.5 0
      vertex 55.5 -28.5 0
    endloop
  endfacet
  facet normal 0 0 -1
    outer loop
      vertex 55.5 -28.5 0
      vertex -1.5 28.5 0
      vertex 55.5 28.5 0
    endloop
  endfacet
  facet normal -1 0 0
    outer loop
      vertex -1.5 -1.5 42.3375
      vertex -1.5 -1.5 43.5496
      vertex -1.5 28.5 42.3375
    endloop
  endfacet
  facet normal -1 0 0
    outer loop
      vertex -1.5 28.5 42.3375
      vertex -1.5 -1.5 43.5496
      vertex -1.5 28.5 43.5496
    endloop
  endfacet
  facet normal -0.71934 0 -0.694658
    outer loop
      vertex -1.5 -1.5 42.3375
      vertex -1.5 28.5 42.3375
      vertex 4.85644 1.5 35.7553
    endloop
  endfacet
  facet normal -0.71934 0 -0.694658
    outer loop
      vertex -1.5 -1.5 42.3375
      vertex 4.85644 1.5 35.7553
      vertex 4.85644 -1.5 35.7553
    endloop
  endfacet
  facet normal -0.71934 0 -0.694658
    outer loop
      vertex -1.5 -1.5 42.3375
      vertex 4.85644 -1.5 35.7553
      vertex 24.6929 -1.5 15.214
    endloop
  endfacet
  facet normal -0.71934 0 -0.694658
    outer loop
      vertex 4.85644 1.5 35.7553
      vertex -1.5 28.5 42.3375
      vertex 25.5 28.5 14.3782
    endloop
  endfacet
  facet normal -0.71934 0 -0.694658
    outer loop
      vertex 4.85644 1.5 35.7553
      vertex 25.5 28.5 14.3782
      vertex 25.5 1.5 14.3782
    endloop
  endfacet
  facet normal -1 0 0
    outer loop
      vertex 25.5 1.5 13.6791
      vertex 25.5 1.5 14.3782
      vertex 25.5 28.5 13.6791
    endloop
  endfacet
  facet normal -1 0 0
    outer loop
      vertex 25.5 28.5 13.6791
      vertex 25.5 1.5 14.3782
      vertex 25.5 28.5 14.3782
    endloop
  endfacet
  facet normal -0.422618 0 -0.906308
    outer loop
      vertex 25.5 1.5 13.6791
      vertex 25.5 28.5 13.6791
      vertex 27 1.5 12.9796
    endloop
  endfacet
  facet normal -0.422618 0 -0.906308
    outer loop
      vertex 27 1.5 12.9796
      vertex 25.5 28.5 13.6791
      vertex 48.4014 28.5 3
    endloop
  endfacet
  facet normal -0.422618 0 -0.906308
    outer loop
      vertex 27 1.5 12.9796
      vertex 48.4014 28.5 3
      vertex 48.4014 -1.5 3
    endloop
  endfacet
  facet normal -0.422618 0 -0.906308
    outer loop
      vertex 27 1.5 12.9796
      vertex 48.4014 -1.5 3
      vertex 27 -1.5 12.9796
    endloop
  endfacet
  facet normal 0 0 1
    outer loop
      vertex 5.5986 -28.5 3
      vertex -1.5 -28.5 3
      vertex 55.5 -28.5 3
    endloop
  endfacet
  facet normal 0 0 1
    outer loop
      vertex 5.5986 1.5 3
      vertex 48.4014 -1.5 3
      vertex 48.4014 28.5 3
    endloop
  endfacet
  facet normal 0 0 1
    outer loop
      vertex -1.5 28.5 3
      vertex -1.5 1.5 3
      vertex 48.4014 28.5 3
    endloop
  endfacet
  facet normal 0 0 1
    outer loop
      vertex -1.5 28.5 3
      vertex -1.5 3.49013e-15 3
      vertex -1.5 1.5 3
    endloop
  endfacet
  facet normal 0 0 1
    outer loop
      vertex -1.5 1.5 3
      vertex 5.5986 1.5 3
      vertex 48.4014 28.5 3
    endloop
  endfacet
  facet normal 0 0 1
    outer loop
      vertex 48.4014 -1.5 3
      vertex 55.5 -28.5 3
      vertex 55.5 -1.5 3
    endloop
  endfacet
  facet normal 0 0 1
    outer loop
      vertex 5.5986 1.5 3
      vertex 55.5 -28.5 3
      vertex 48.4014 -1.5 3
    endloop
  endfacet
  facet normal 0 0 1
    outer loop
      vertex 5.5986 1.5 3
      vertex 5.5986 -28.5 3
      vertex 55.5 -28.5 3
    endloop
  endfacet
  facet normal -1 0 0
    outer loop
      vertex -1.5 3.49013e-15 1.78792
      vertex -1.5 28.5 0
      vertex -1.5 -28.5 1.78792
    endloop
  endfacet
  facet normal -1 0 0
    outer loop
      vertex -1.5 -28.5 0
      vertex -1.5 -28.5 3
      vertex -1.5 -28.5 1.78792
    endloop
  endfacet
  facet normal -1 0 0
    outer loop
      vertex -1.5 -28.5 0
      vertex -1.5 -28.5 1.78792
      vertex -1.5 28.5 0
    endloop
  endfacet
  facet normal -1 0 0
    outer loop
      vertex -1.5 28.5 0
      vertex -1.5 3.49013e-15 1.78792
      vertex -1.5 3.49013e-15 3
    endloop
  endfacet
  facet normal -1 0 0
    outer loop
      vertex -1.5 28.5 0
      vertex -1.5 3.49013e-15 3
      vertex -1.5 28.5 3
    endloop
  endfacet
  facet normal 1.83691e-16 1 0
    outer loop
      vertex 25.5 28.5 70.2969
      vertex 25.5 28.5 71.5089
      vertex 55.5 28.5 70.2969
    endloop
  endfacet
  facet normal 1.83691e-16 1 0
    outer loop
      vertex 55.5 28.5 70.2969
      vertex 25.5 28.5 71.5089
      vertex 55.5 28.5 71.5089
    endloop
  endfacet
  facet normal 1.22461e-16 1 0
    outer loop
      vertex 21.9722 -25.5 43.7365
      vertex 25.5 -25.5 43.7365
      vertex -1.5 -25.5 32.7912
    endloop
  endfacet
  facet normal 1.22461e-16 1 0
    outer loop
      vertex -1.5 -25.5 32.7912
      vertex 25.5 -25.5 43.7365
      vertex 25.5 -25.5 43.5496
    endloop
  endfacet
  facet normal 1.22461e-16 1 0
    outer loop
      vertex 25.5 -25.5 15.5903
      vertex -1.5 -25.5 32.7912
      vertex 25.5 -25.5 43.5496
    endloop
  endfacet
  facet normal 1.22461e-16 1 0
    outer loop
      vertex -1.5 -25.5 32.7912
      vertex 25.5 -25.5 15.5903
      vertex -1.5 -25.5 3
    endloop
  endfacet
  facet normal 1.22461e-16 1 0
    outer loop
      vertex 28.5 -25.5 67.1903
      vertex 28.5 -25.5 70.2969
      vertex 29.6705 -25.5 71.5089
    endloop
  endfacet
  facet normal 1.22461e-16 1 0
    outer loop
      vertex 28.5 -25.5 67.1903
      vertex 29.6705 -25.5 71.5089
      vertex 52.5 -25.5 71.5089
    endloop
  endfacet
  facet normal 1.22461e-16 1 0
    outer loop
      vertex 28.5 -25.5 67.1903
      vertex 52.5 -25.5 71.5089
      vertex 52.5 -25.5 43.5496
    endloop
  endfacet
  facet normal 1.22461e-16 1 0
    outer loop
      vertex 28.5 -25.5 67.1903
      vertex 52.5 -25.5 43.5496
      vertex 25.5 -25.5 67.1903
    endloop
  endfacet
  facet normal 1.22461e-16 1 0
    outer loop
      vertex 52.5 -25.5 43.5496
      vertex 25.5 -25.5 43.5496
      vertex 25.5 -25.5 67.1903
    endloop
  endfacet
  facet normal 1 -6.12303e-17 0
    outer loop
      vertex 28.5 -25.5 70.2969
      vertex 28.5 -25.5 67.1903
      vertex 28.5 -1.5 42.3375
    endloop
  endfacet
  facet normal 1 -6.12303e-17 0
    outer loop
      vertex 28.5 -1.5 43.7365
      vertex 28.5 -25.5 70.2969
      vertex 28.5 -1.5 42.3375
    endloop
  endfacet
  facet normal 1 -6.12303e-17 0
    outer loop
      vertex 28.5 -1.31957 43.7365
      vertex 28.5 -25.5 70.2969
      vertex 28.5 -1.5 43.7365
    endloop
  endfacet
  facet normal 1 -6.12303e-17 0
    outer loop
      vertex 28.5 1.5 46.6562
      vertex 28.5 -25.5 70.2969
      vertex 28.5 -1.31957 43.7365
    endloop
  endfacet
  facet normal 1 -6.12303e-17 0
    outer loop
      vertex 28.5 0.890336 70.2969
      vertex 28.5 -25.5 70.2969
      vertex 28.5 1.5 46.6562
    endloop
  endfacet
  facet normal 1 -6.12303e-17 0
    outer loop
      vertex 28.5 1.5 70.2969
      vertex 28.5 0.890336 70.2969
      vertex 28.5 1.5 46.6562
    endloop
  endfacet
  facet normal 0 0 -1
    outer loop
      vertex 0.890336 -1.5 42.3375
      vertex 27 -1.5 42.3375
      vertex 28.5 -1.5 42.3375
    endloop
  endfacet
  facet normal 0 -1 0
    outer loop
      vertex 27 -1.5 42.3375
      vertex 0.890336 -1.5 42.3375
      vertex 27 -1.5 17.1436
    endloop
  endfacet
  facet normal 0 -1 0
    outer loop
      vertex 0.890336 -1.5 42.3375
      vertex 25.5 -1.5 15.5903
      vertex 27 -1.5 17.1436
    endloop
  endfacet
  facet normal 0 -1 0
    outer loop
      vertex 0.890336 -1.5 42.3375
      vertex 24.6929 -1.5 15.214
      vertex 25.5 -1.5 15.5903
    endloop
  endfacet
  facet normal 0 -1 0
    outer loop
      vertex 0.890336 -1.5 42.3375
      vertex -1.5 -1.5 42.3375
      vertex 24.6929 -1.5 15.214
    endloop
  endfacet
  facet normal -1.83691e-16 -1 0
    outer loop
      vertex 52.5 -1.5 95.1496
      vertex 52.5 -1.5 71.5089
      vertex 55.5 -1.5 71.5089
    endloop
  endfacet
  facet normal -1.83691e-16 -1 0
    outer loop
      vertex 55.5 -1.5 98.2562
      vertex 52.5 -1.5 95.1496
      vertex 55.5 -1.5 71.5089
    endloop
  endfacet
  facet normal -1 1.22461e-16 0
    outer loop
      vertex 52.5 -1.5 71.5089
      vertex 52.5 -1.5 43.5496
      vertex 52.5 -25.5 71.5089
    endloop
  endfacet
  facet normal -1 1.22461e-16 0
    outer loop
      vertex 52.5 -25.5 71.5089
      vertex 52.5 -1.5 43.5496
      vertex 52.5 -25.5 43.5496
    endloop
  endfacet
  facet normal -1.83691e-16 -1 0
    outer loop
      vertex 52.5 -1.5 43.5496
      vertex 32.4285 -1.5 43.5496
      vertex 35.0278 -1.5 42.3375
    endloop
  endfacet
  facet normal -1.83691e-16 -1 0
    outer loop
      vertex 51.3295 -1.5 42.3375
      vertex 52.5 -1.5 43.5496
      vertex 35.0278 -1.5 42.3375
    endloop
  endfacet
  facet normal 1 -1.83691e-16 0
    outer loop
      vertex 55.5 1.5 42.3375
      vertex 55.5 28.5 70.2969
      vertex 55.5 1.5 43.5496
    endloop
  endfacet
  facet normal 1 -1.83691e-16 0
    outer loop
      vertex 55.5 28.5 71.5089
      vertex 55.5 -1.5 71.5089
      vertex 55.5 1.5 71.5089
    endloop
  endfacet
  facet normal 1 -1.83691e-16 0
    outer loop
      vertex 55.5 1.5 71.5089
      vertex 55.5 28.5 70.2969
      vertex 55.5 28.5 71.5089
    endloop
  endfacet
  facet normal 1 -1.83691e-16 0
    outer loop
      vertex 55.5 1.5 71.5089
      vertex 55.5 1.5 43.5496
      vertex 55.5 28.5 70.2969
    endloop
  endfacet
  facet normal -1.22461e-16 -1 0
    outer loop
      vertex 5.5986 -28.5 3
      vertex -1.5 -28.5 32.7912
      vertex -1.5 -28.5 3
    endloop
  endfacet
  facet normal -1.22461e-16 -1 0
    outer loop
      vertex -1.5 -28.5 3
      vertex -1.5 -28.5 32.7912
      vertex -1.5 -28.5 1.78792
    endloop
  endfacet
  facet normal -1.22461e-16 -1 0
    outer loop
      vertex 28.5 -28.5 13.6791
      vertex -1.5 -28.5 32.7912
      vertex 5.5986 -28.5 3
    endloop
  endfacet
  facet normal -1.22461e-16 -1 0
    outer loop
      vertex 28.5 -28.5 43.7365
      vertex -1.5 -28.5 32.7912
      vertex 28.5 -28.5 13.6791
    endloop
  endfacet
  facet normal -1.22461e-16 -1 0
    outer loop
      vertex 21.9722 -28.5 43.7365
      vertex -1.5 -28.5 32.7912
      vertex 28.5 -28.5 43.7365
    endloop
  endfacet
  facet normal 0 0 1
    outer loop
      vertex 28.5 -28.5 43.5496
      vertex 55.5 -28.5 43.5496
      vertex 28.5 -25.5 43.5496
    endloop
  endfacet
  facet normal 0 0 1
    outer loop
      vertex 55.5 -28.5 43.5496
      vertex 55.5 1.5 43.5496
      vertex 55.5 -1.5 43.5496
    endloop
  endfacet
  facet normal 0 0 1
    outer loop
      vertex 52.5 -1.5 43.5496
      vertex 52.5 -25.5 43.5496
      vertex 55.5 -1.5 43.5496
    endloop
  endfacet
  facet normal 0 0 1
    outer loop
      vertex 55.5 -28.5 43.5496
      vertex 52.5 -25.5 43.5496
      vertex 28.5 -25.5 43.5496
    endloop
  endfacet
  facet normal 0 0 1
    outer loop
      vertex 55.5 -28.5 43.5496
      vertex 55.5 -1.5 43.5496
      vertex 52.5 -25.5 43.5496
    endloop
  endfacet
  facet normal 0 0 1
    outer loop
      vertex 52.5 -25.5 43.5496
      vertex 25.5 -25.5 43.5496
      vertex 28.5 -25.5 43.5496
    endloop
  endfacet
  facet normal -1.22461e-16 -1 0
    outer loop
      vertex 55.5 -28.5 43.5496
      vertex 28.5 -28.5 43.5496
      vertex 55.5 -28.5 42.3375
    endloop
  endfacet
  facet normal -1.22461e-16 -1 0
    outer loop
      vertex 55.5 -28.5 42.3375
      vertex 28.5 -28.5 43.5496
      vertex 28.5 -28.5 14.3782
    endloop
  endfacet
  facet normal 0 -1 0
    outer loop
      vertex 28.5 -1.5 13.6791
      vertex 27 -1.5 12.9796
      vertex 48.4014 -1.5 3
    endloop
  endfacet
  facet normal 0 -1 0
    outer loop
      vertex 55.5 -1.5 32.7912
      vertex 28.5 -1.5 13.6791
      vertex 55.5 -1.5 3
    endloop
  endfacet
  facet normal 0 -1 0
    outer loop
      vertex 55.5 -1.5 3
      vertex 28.5 -1.5 13.6791
      vertex 48.4014 -1.5 3
    endloop
  endfacet
  facet normal 0 -1 0
    outer loop
      vertex 49.1436 -1.5 35.7553
      vertex 28.5 -1.5 14.3782
      vertex 55.5 -1.5 32.7912
    endloop
  endfacet
  facet normal 0 -1 0
    outer loop
      vertex 28.5 -1.5 14.3782
      vertex 28.5 -1.5 13.6791
      vertex 55.5 -1.5 32.7912
    endloop
  endfacet
  facet normal 0.422618 -5.17541e-17 -0.906308
    outer loop
      vertex 5.5986 -28.5 3
      vertex 5.5986 1.5 3
      vertex 28.5 -28.5 13.6791
    endloop
  endfacet
  facet normal 0.422618 -5.17541e-17 -0.906308
    outer loop
      vertex 27 -1.5 12.9796
      vertex 5.5986 1.5 3
      vertex 27 1.5 12.9796
    endloop
  endfacet
  facet normal 0.422618 -5.17541e-17 -0.906308
    outer loop
      vertex 28.5 -28.5 13.6791
      vertex 5.5986 1.5 3
      vertex 27 -1.5 12.9796
    endloop
  endfacet
  facet normal 0.422618 -5.17541e-17 -0.906308
    outer loop
      vertex 28.5 -1.5 13.6791
      vertex 28.5 -28.5 13.6791
      vertex 27 -1.5 12.9796
    endloop
  endfacet
  facet normal -0.422618 5.17541e-17 0.906308
    outer loop
      vertex -1.5 -25.5 32.7912
      vertex -1.5 -28.5 32.7912
      vertex 21.9722 -28.5 43.7365
    endloop
  endfacet
  facet normal -0.422618 5.17541e-17 0.906308
    outer loop
      vertex 21.9722 -25.5 43.7365
      vertex -1.5 -25.5 32.7912
      vertex 21.9722 -28.5 43.7365
    endloop
  endfacet
  facet normal -1 1.83691e-16 0
    outer loop
      vertex 52.5 -1.5 71.5089
      vertex 52.5 25.5 71.5089
      vertex 52.5 -1.5 43.5496
    endloop
  endfacet
  facet normal 1 -1.83691e-16 0
    outer loop
      vertex 28.5 24.3295 70.2969
      vertex 28.5 1.5 70.2969
      vertex 28.5 1.5 46.6562
    endloop
  endfacet
  facet normal 0.422618 0 0.906308
    outer loop
      vertex 35.0278 -1.5 42.3375
      vertex 32.0278 -1.5 43.7365
      vertex 46.268 -1.5 37.0962
    endloop
  endfacet
  facet normal 0.422618 0 0.906308
    outer loop
      vertex 35.0278 -1.5 42.3375
      vertex 32.4285 -1.5 43.5496
      vertex 32.0278 -1.5 43.7365
    endloop
  endfacet
  facet normal 0.422618 0 0.906308
    outer loop
      vertex 32.0278 -1.31957 43.7365
      vertex 32.0278 -1.5 43.7365
      vertex 32.4285 -1.5 43.5496
    endloop
  endfacet
  facet normal 0 0 1
    outer loop
      vertex 28.5 -1.31957 43.7365
      vertex 28.5 -1.5 43.7365
      vertex 32.0278 -1.5 43.7365
    endloop
  endfacet
  facet normal 0 0 1
    outer loop
      vertex 32.0278 -1.31957 43.7365
      vertex 28.5 -1.31957 43.7365
      vertex 32.0278 -1.5 43.7365
    endloop
  endfacet
  facet normal 0 1 0
    outer loop
      vertex 18.9722 1.5 42.3375
      vertex 7.73203 1.5 37.0962
      vertex 2.67049 1.5 42.3375
    endloop
  endfacet
  facet normal 1.22461e-16 1 0
    outer loop
      vertex 25.5 1.5 18.6969
      vertex 25.5 1.5 42.3375
      vertex 28.5 1.5 15.5903
    endloop
  endfacet
  facet normal 1.22461e-16 1 0
    outer loop
      vertex 28.5 1.5 15.5903
      vertex 25.5 1.5 42.3375
      vertex 53.1097 1.5 42.3375
    endloop
  endfacet
  facet normal 1.22461e-16 1 0
    outer loop
      vertex 28.5 1.5 15.5903
      vertex 53.1097 1.5 42.3375
      vertex 55.5 1.5 42.3375
    endloop
  endfacet
  facet normal 1.22461e-16 1 0
    outer loop
      vertex 28.5 1.5 15.5903
      vertex 55.5 1.5 42.3375
      vertex 29.3071 1.5 15.214
    endloop
  endfacet
  facet normal 0 -1 0
    outer loop
      vertex -1.5 -28.5 3
      vertex -1.5 -28.5 0
      vertex 55.5 -28.5 0
    endloop
  endfacet
  facet normal 0 -1 0
    outer loop
      vertex 55.5 -28.5 3
      vertex -1.5 -28.5 3
      vertex 55.5 -28.5 0
    endloop
  endfacet
  facet normal 0.422618 0 0.906308
    outer loop
      vertex 49.1436 1.5 35.7553
      vertex 49.1436 -1.5 35.7553
      vertex 55.5 -1.5 32.7912
    endloop
  endfacet
  facet normal 0.422618 0 0.906308
    outer loop
      vertex 55.5 1.5 32.7912
      vertex 49.1436 1.5 35.7553
      vertex 55.5 -1.5 32.7912
    endloop
  endfacet
  facet normal 0 1 0
    outer loop
      vertex 55.5 1.5 32.7912
      vertex 55.5 1.5 3
      vertex 49.1436 1.5 35.7553
    endloop
  endfacet
  facet normal 0 1 0
    outer loop
      vertex 49.1436 1.5 35.7553
      vertex 55.5 1.5 3
      vertex 29.3071 1.5 15.214
    endloop
  endfacet
  facet normal 0.71934 -8.80908e-17 -0.694658
    outer loop
      vertex 55.5 -28.5 42.3375
      vertex 28.5 -28.5 14.3782
      vertex 28.5 -1.5 14.3782
    endloop
  endfacet
  facet normal 0.71934 -8.80908e-17 -0.694658
    outer loop
      vertex 49.1436 1.5 35.7553
      vertex 55.5 -28.5 42.3375
      vertex 49.1436 -1.5 35.7553
    endloop
  endfacet
  facet normal 0.71934 -8.80908e-17 -0.694658
    outer loop
      vertex 49.1436 -1.5 35.7553
      vertex 55.5 -28.5 42.3375
      vertex 28.5 -1.5 14.3782
    endloop
  endfacet
  facet normal 0.71934 -8.80908e-17 -0.694658
    outer loop
      vertex 55.5 1.5 42.3375
      vertex 55.5 -28.5 42.3375
      vertex 49.1436 1.5 35.7553
    endloop
  endfacet
  facet normal 0.71934 -8.80908e-17 -0.694658
    outer loop
      vertex 29.3071 1.5 15.214
      vertex 55.5 1.5 42.3375
      vertex 49.1436 1.5 35.7553
    endloop
  endfacet
  facet normal -0.422618 5.17541e-17 0.906308
    outer loop
      vertex 24.6929 -1.5 15.214
      vertex 25.5 -25.5 15.5903
      vertex 25.5 -1.5 15.5903
    endloop
  endfacet
  facet normal -0.422618 5.17541e-17 0.906308
    outer loop
      vertex -1.5 -1.5 3
      vertex 25.5 -25.5 15.5903
      vertex 24.6929 -1.5 15.214
    endloop
  endfacet
  facet normal -0.422618 5.17541e-17 0.906308
    outer loop
      vertex -1.5 -23.2994 3
      vertex 25.5 -25.5 15.5903
      vertex -1.5 -1.5 3
    endloop
  endfacet
  facet normal -0.422618 5.17541e-17 0.906308
    outer loop
      vertex -1.5 -25.5 3
      vertex 25.5 -25.5 15.5903
      vertex -1.5 -23.2994 3
    endloop
  endfacet
  facet normal -0.422618 5.17541e-17 0.906308
    outer loop
      vertex -1.5 -25.5 3
      vertex -1.5 -23.2994 3
      vertex -1.5 -1.5 3
    endloop
  endfacet
  facet normal -1.22461e-16 -1 0
    outer loop
      vertex 4.85644 -1.5 35.7553
      vertex -1.5 -1.5 3
      vertex 24.6929 -1.5 15.214
    endloop
  endfacet
  facet normal -1.22461e-16 -1 0
    outer loop
      vertex -1.5 -1.5 32.7912
      vertex -1.5 -1.5 3
      vertex 4.85644 -1.5 35.7553
    endloop
  endfacet
  facet normal -0.422618 5.17541e-17 0.906308
    outer loop
      vertex -1.5 1.5 32.7912
      vertex -1.5 -1.5 32.7912
      vertex 4.85644 -1.5 35.7553
    endloop
  endfacet
  facet normal -0.422618 5.17541e-17 0.906308
    outer loop
      vertex 4.85644 1.5 35.7553
      vertex -1.5 1.5 32.7912
      vertex 4.85644 -1.5 35.7553
    endloop
  endfacet
  facet normal 1.22461e-16 1 0
    outer loop
      vertex -1.5 1.5 3
      vertex -1.5 1.5 32.7912
      vertex 5.5986 1.5 3
    endloop
  endfacet
  facet normal 1.22461e-16 1 0
    outer loop
      vertex 5.5986 1.5 3
      vertex -1.5 1.5 32.7912
      vertex 4.85644 1.5 35.7553
    endloop
  endfacet
  facet normal 1.22461e-16 1 0
    outer loop
      vertex 5.5986 1.5 3
      vertex 4.85644 1.5 35.7553
      vertex 25.5 1.5 14.3782
    endloop
  endfacet
  facet normal 1.22461e-16 1 0
    outer loop
      vertex 5.5986 1.5 3
      vertex 25.5 1.5 14.3782
      vertex 25.5 1.5 13.6791
    endloop
  endfacet
  facet normal 1.22461e-16 1 0
    outer loop
      vertex 5.5986 1.5 3
      vertex 25.5 1.5 13.6791
      vertex 27 1.5 12.9796
    endloop
  endfacet
  facet normal -1 1.22461e-16 0
    outer loop
      vertex -1.5 -28.5 1.78792
      vertex -1.5 -28.5 32.7912
      vertex -1.5 -25.5 3
    endloop
  endfacet
  facet normal -1 1.22461e-16 0
    outer loop
      vertex -1.5 -28.5 1.78792
      vertex -1.5 -25.5 3
      vertex -1.5 3.49013e-15 1.78792
    endloop
  endfacet
  facet normal -1 1.22461e-16 0
    outer loop
      vertex -1.5 -1.5 32.7912
      vertex -1.5 3.49013e-15 1.78792
      vertex -1.5 -1.5 3
    endloop
  endfacet
  facet normal -1 1.22461e-16 0
    outer loop
      vertex -1.5 -25.5 3
      vertex -1.5 -1.5 3
      vertex -1.5 3.49013e-15 1.78792
    endloop
  endfacet
  facet normal -1 1.22461e-16 0
    outer loop
      vertex -1.5 3.49013e-15 3
      vertex -1.5 1.5 32.7912
      vertex -1.5 1.5 3
    endloop
  endfacet
  facet normal -1 1.22461e-16 0
    outer loop
      vertex -1.5 3.49013e-15 3
      vertex -1.5 -1.5 32.7912
      vertex -1.5 1.5 32.7912
    endloop
  endfacet
  facet normal -1 1.22461e-16 0
    outer loop
      vertex -1.5 3.49013e-15 1.78792
      vertex -1.5 -1.5 32.7912
      vertex -1.5 3.49013e-15 3
    endloop
  endfacet
  facet normal -1 1.22461e-16 0
    outer loop
      vertex -1.5 -25.5 3
      vertex -1.5 -28.5 32.7912
      vertex -1.5 -25.5 32.7912
    endloop
  endfacet
  facet normal 0 -1 0
    outer loop
      vertex 28.5 -1.5 42.3375
      vertex 28.5 -1.5 18.6969
      vertex 46.268 -1.5 37.0962
    endloop
  endfacet
  facet normal 0 -1 0
    outer loop
      vertex 32.0278 -1.5 43.7365
      vertex 28.5 -1.5 42.3375
      vertex 46.268 -1.5 37.0962
    endloop
  endfacet
  facet normal 0 -1 0
    outer loop
      vertex 28.5 -1.5 43.7365
      vertex 28.5 -1.5 42.3375
      vertex 32.0278 -1.5 43.7365
    endloop
  endfacet
  facet normal -1.22461e-16 -1 0
    outer loop
      vertex 28.5 -1.5 18.6969
      vertex 28.5 -1.5 42.3375
      vertex 27 -1.5 42.3375
    endloop
  endfacet
  facet normal -1.22461e-16 -1 0
    outer loop
      vertex 27 -1.5 17.1436
      vertex 28.5 -1.5 18.6969
      vertex 27 -1.5 42.3375
    endloop
  endfacet
  facet normal -0.71934 8.80908e-17 0.694658
    outer loop
      vertex 52.5 -1.5 43.5496
      vertex 51.3295 -1.5 42.3375
      vertex 52.5 -25.5 43.5496
    endloop
  endfacet
  facet normal -0.71934 8.80908e-17 0.694658
    outer loop
      vertex 52.5 -25.5 43.5496
      vertex 51.3295 -1.5 42.3375
      vertex 46.268 -1.5 37.0962
    endloop
  endfacet
  facet normal -0.71934 8.80908e-17 0.694658
    outer loop
      vertex 52.5 -25.5 43.5496
      vertex 46.268 -1.5 37.0962
      vertex 28.5 -1.5 18.6969
    endloop
  endfacet
  facet normal -0.71934 8.80908e-17 0.694658
    outer loop
      vertex 52.5 -25.5 43.5496
      vertex 28.5 -1.5 18.6969
      vertex 27 -1.5 17.1436
    endloop
  endfacet
  facet normal -0.71934 8.80908e-17 0.694658
    outer loop
      vertex 27 -1.5 17.1436
      vertex 25.5 -1.5 15.5903
      vertex 52.5 -25.5 43.5496
    endloop
  endfacet
  facet normal -0.71934 8.80908e-17 0.694658
    outer loop
      vertex 52.5 -25.5 43.5496
      vertex 25.5 -1.5 15.5903
      vertex 25.5 -25.5 15.5903
    endloop
  endfacet
  facet normal 1.22461e-16 1 0
    outer loop
      vertex 52.5 -25.5 43.5496
      vertex 25.5 -25.5 15.5903
      vertex 25.5 -25.5 43.5496
    endloop
  endfacet
  facet normal 1 -1.22461e-16 0
    outer loop
      vertex 55.5 -28.5 43.5496
      vertex 55.5 -28.5 42.3375
      vertex 55.5 1.5 42.3375
    endloop
  endfacet
  facet normal 1 -1.22461e-16 0
    outer loop
      vertex 55.5 1.5 43.5496
      vertex 55.5 -28.5 43.5496
      vertex 55.5 1.5 42.3375
    endloop
  endfacet
  facet normal -1.22461e-16 -1 0
    outer loop
      vertex 46.268 -1.5 37.0962
      vertex 51.3295 -1.5 42.3375
      vertex 35.0278 -1.5 42.3375
    endloop
  endfacet
  facet normal 0 0 1
    outer loop
      vertex -8.5 35.5 137.783
      vertex 65.5 38.5 137.783
      vertex -11.5 38.5 137.783
    endloop
  endfacet
  facet normal 0 0 1
    outer loop
      vertex 62.5 35.5 137.783
      vertex 65.5 -38.5 137.783
      vertex 65.5 38.5 137.783
    endloop
  endfacet
  facet normal 0 0 1
    outer loop
      vertex -11.5 -38.5 137.783
      vertex -8.5 35.5 137.783
      vertex -11.5 38.5 137.783
    endloop
  endfacet
  facet normal 0 0 1
    outer loop
      vertex 62.5 -35.5 137.783
      vertex 65.5 -38.5 137.783
      vertex 62.5 35.5 137.783
    endloop
  endfacet
  facet normal 0 0 1
    outer loop
      vertex -8.5 35.5 137.783
      vertex 62.5 35.5 137.783
      vertex 65.5 38.5 137.783
    endloop
  endfacet
  facet normal 0 0 1
    outer loop
      vertex -11.5 -38.5 137.783
      vertex 65.5 -38.5 137.783
      vertex 62.5 -35.5 137.783
    endloop
  endfacet
  facet normal 0 0 1
    outer loop
      vertex -11.5 -38.5 137.783
      vertex -8.5 -35.5 137.783
      vertex -8.5 35.5 137.783
    endloop
  endfacet
  facet normal 0 0 1
    outer loop
      vertex -11.5 -38.5 137.783
      vertex 62.5 -35.5 137.783
      vertex -8.5 -35.5 137.783
    endloop
  endfacet
  facet normal 0 -0.71934 -0.694658
    outer loop
      vertex -1.5 -28.5 127.428
      vertex 55.5 -28.5 127.428
      vertex 65.5 -38.5 137.783
    endloop
  endfacet
  facet normal 0 -0.71934 -0.694658
    outer loop
      vertex -11.5 -38.5 137.783
      vertex -1.5 -28.5 127.428
      vertex 65.5 -38.5 137.783
    endloop
  endfacet
  facet normal -0.71934 0 -0.694658
    outer loop
      vertex -1.5 28.5 127.428
      vertex -1.5 -28.5 127.428
      vertex -11.5 38.5 137.783
    endloop
  endfacet
  facet normal -0.71934 0 -0.694658
    outer loop
      vertex -11.5 38.5 137.783
      vertex -1.5 -28.5 127.428
      vertex -11.5 -38.5 137.783
    endloop
  endfacet
  facet normal 0.71934 0 -0.694658
    outer loop
      vertex 55.5 28.5 127.428
      vertex 65.5 38.5 137.783
      vertex 65.5 -38.5 137.783
    endloop
  endfacet
  facet normal 0.71934 0 -0.694658
    outer loop
      vertex 55.5 -28.5 127.428
      vertex 55.5 28.5 127.428
      vertex 65.5 -38.5 137.783
    endloop
  endfacet
  facet normal 0 0.71934 -0.694658
    outer loop
      vertex 55.5 28.5 127.428
      vertex -1.5 28.5 127.428
      vertex 65.5 38.5 137.783
    endloop
  endfacet
  facet normal 0 0.71934 -0.694658
    outer loop
      vertex 65.5 38.5 137.783
      vertex -1.5 28.5 127.428
      vertex -11.5 38.5 137.783
    endloop
  endfacet
  facet normal 0 -0.71934 0.694658
    outer loop
      vertex 62.5 35.5 137.783
      vertex -8.5 35.5 137.783
      vertex 1.5 25.5 127.428
    endloop
  endfacet
  facet normal 0 -0.71934 0.694658
    outer loop
      vertex 52.5 25.5 127.428
      vertex 62.5 35.5 137.783
      vertex 1.5 25.5 127.428
    endloop
  endfacet
  facet normal 0.71934 0 0.694658
    outer loop
      vertex -8.5 35.5 137.783
      vertex -8.5 -35.5 137.783
      vertex 1.5 -25.5 127.428
    endloop
  endfacet
  facet normal 0.71934 0 0.694658
    outer loop
      vertex 1.5 25.5 127.428
      vertex -8.5 35.5 137.783
      vertex 1.5 -25.5 127.428
    endloop
  endfacet
  facet normal 0 0.71934 0.694658
    outer loop
      vertex -8.5 -35.5 137.783
      vertex 62.5 -35.5 137.783
      vertex 1.5 -25.5 127.428
    endloop
  endfacet
  facet normal 0 0.71934 0.694658
    outer loop
      vertex 1.5 -25.5 127.428
      vertex 62.5 -35.5 137.783
      vertex 52.5 -25.5 127.428
    endloop
  endfacet
  facet normal -0.71934 0 0.694658
    outer loop
      vertex 52.5 -25.5 127.428
      vertex 62.5 -35.5 137.783
      vertex 52.5 25.5 127.428
    endloop
  endfacet
  facet normal -0.71934 0 0.694658
    outer loop
      vertex 52.5 25.5 127.428
      vertex 62.5 -35.5 137.783
      vertex 62.5 35.5 137.783
    endloop
  endfacet
  facet normal 0 0 -1
    outer loop
      vertex 52.5 25.5 127.428
      vertex 1.5 25.5 127.428
      vertex -1.5 28.5 127.428
    endloop
  endfacet
  facet normal 0 0 -1
    outer loop
      vertex 1.5 -25.5 127.428
      vertex 55.5 -28.5 127.428
      vertex -1.5 -28.5 127.428
    endloop
  endfacet
  facet normal 0 0 -1
    outer loop
      vertex 52.5 -25.5 127.428
      vertex 55.5 -28.5 127.428
      vertex 1.5 -25.5 127.428
    endloop
  endfacet
  facet normal 0 0 -1
    outer loop
      vertex -1.5 28.5 127.428
      vertex 1.5 -25.5 127.428
      vertex -1.5 -28.5 127.428
    endloop
  endfacet
  facet normal 0 0 -1
    outer loop
      vertex 55.5 28.5 127.428
      vertex 55.5 -28.5 127.428
      vertex 52.5 -25.5 127.428
    endloop
  endfacet
  facet normal 0 0 -1
    outer loop
      vertex 55.5 28.5 127.428
      vertex 52.5 -25.5 127.428
      vertex 52.5 25.5 127.428
    endloop
  endfacet
  facet normal 0 0 -1
    outer loop
      vertex 55.5 28.5 127.428
      vertex 52.5 25.5 127.428
      vertex -1.5 28.5 127.428
    endloop
  endfacet
  facet normal 0 0 -1
    outer loop
      vertex -1.5 28.5 127.428
      vertex 1.5 25.5 127.428
      vertex 1.5 -25.5 127.428
    endloop
  endfacet
endsolid OpenSCAD_Model
