solid AutoCAD
   facet normal -9.9619470e-001 0.0000000e+000 8.7155743e-002
      outer loop
         vertex 0.0000000e+000 2.0000000e+002 0.0000000e+000
         vertex 0.0000000e+000 0.0000000e+000 0.0000000e+000
         vertex 3.4995465e+000 3.4995465e+000 4.0000000e+001
      endloop
   endfacet
   facet normal -9.9619470e-001 7.3350837e-017 8.7155743e-002
      outer loop
         vertex 0.0000000e+000 2.0000000e+002 0.0000000e+000
         vertex 3.4995465e+000 3.4995465e+000 4.0000000e+001
         vertex 3.4995465e+000 1.9650045e+002 4.0000000e+001
      endloop
   endfacet
   facet normal 0.0000000e+000 9.9619470e-001 8.7155743e-002
      outer loop
         vertex 2.0000000e+002 2.0000000e+002 0.0000000e+000
         vertex 0.0000000e+000 2.0000000e+002 0.0000000e+000
         vertex 3.4995465e+000 1.9650045e+002 4.0000000e+001
      endloop
   endfacet
   facet normal 1.4670167e-016 9.9619470e-001 8.7155743e-002
      outer loop
         vertex 2.0000000e+002 2.0000000e+002 0.0000000e+000
         vertex 3.4995465e+000 1.9650045e+002 4.0000000e+001
         vertex 1.9650045e+002 1.9650045e+002 4.0000000e+001
      endloop
   endfacet
   facet normal 9.9619470e-001 0.0000000e+000 8.7155743e-002
      outer loop
         vertex 2.0000000e+002 0.0000000e+000 0.0000000e+000
         vertex 2.0000000e+002 2.0000000e+002 0.0000000e+000
         vertex 1.9650045e+002 1.9650045e+002 4.0000000e+001
      endloop
   endfacet
   facet normal 9.9619470e-001 -1.4670167e-016 8.7155743e-002
      outer loop
         vertex 2.0000000e+002 0.0000000e+000 0.0000000e+000
         vertex 1.9650045e+002 1.9650045e+002 4.0000000e+001
         vertex 1.9650045e+002 3.4995465e+000 4.0000000e+001
      endloop
   endfacet
   facet normal 0.0000000e+000 -9.9619470e-001 8.7155743e-002
      outer loop
         vertex 0.0000000e+000 0.0000000e+000 0.0000000e+000
         vertex 2.0000000e+002 0.0000000e+000 0.0000000e+000
         vertex 1.9650045e+002 3.4995465e+000 4.0000000e+001
      endloop
   endfacet
   facet normal -7.3350837e-017 -9.9619470e-001 8.7155743e-002
      outer loop
         vertex 0.0000000e+000 0.0000000e+000 0.0000000e+000
         vertex 1.9650045e+002 3.4995465e+000 4.0000000e+001
         vertex 3.4995465e+000 3.4995465e+000 4.0000000e+001
      endloop
   endfacet
   facet normal 0.0000000e+000 0.0000000e+000 -1.0000000e+000
      outer loop
         vertex 2.0000000e+002 0.0000000e+000 0.0000000e+000
         vertex 0.0000000e+000 0.0000000e+000 0.0000000e+000
         vertex 0.0000000e+000 2.0000000e+002 0.0000000e+000
      endloop
   endfacet
   facet normal 0.0000000e+000 0.0000000e+000 -1.0000000e+000
      outer loop
         vertex 2.0000000e+002 0.0000000e+000 0.0000000e+000
         vertex 0.0000000e+000 2.0000000e+002 0.0000000e+000
         vertex 2.0000000e+002 2.0000000e+002 0.0000000e+000
      endloop
   endfacet
   facet normal 0.0000000e+000 0.0000000e+000 1.0000000e+000
      outer loop
         vertex 1.9650045e+002 1.9650045e+002 4.0000000e+001
         vertex 3.4995465e+000 1.9650045e+002 4.0000000e+001
         vertex 3.4995465e+000 3.4995465e+000 4.0000000e+001
      endloop
   endfacet
   facet normal 0.0000000e+000 0.0000000e+000 1.0000000e+000
      outer loop
         vertex 1.9650045e+002 3.4995465e+000 4.0000000e+001
         vertex 1.9650045e+002 1.9650045e+002 4.0000000e+001
         vertex 3.4995465e+000 3.4995465e+000 4.0000000e+001
      endloop
   endfacet
endsolid AutoCAD
