solid AutoCAD
   facet normal 0.0000000e+000 0.0000000e+000 1.0000000e+000
      outer loop
         vertex 8.0000000e+001 5.0000000e+001 3.0000000e+001
         vertex 8.0000000e+001 8.0000000e+001 3.0000000e+001
         vertex 5.0000000e+001 8.0000000e+001 3.0000000e+001
      endloop
   endfacet
   facet normal 0.0000000e+000 0.0000000e+000 1.0000000e+000
      outer loop
         vertex 8.0000000e+001 5.0000000e+001 3.0000000e+001
         vertex 5.0000000e+001 8.0000000e+001 3.0000000e+001
         vertex 5.0000000e+001 5.0000000e+001 3.0000000e+001
      endloop
   endfacet
   facet normal 0.0000000e+000 0.0000000e+000 -1.0000000e+000
      outer loop
         vertex 5.0000000e+001 8.0000000e+001 0.0000000e+000
         vertex 8.0000000e+001 8.0000000e+001 0.0000000e+000
         vertex 8.0000000e+001 5.0000000e+001 0.0000000e+000
      endloop
   endfacet
   facet normal 0.0000000e+000 0.0000000e+000 -1.0000000e+000
      outer loop
         vertex 5.0000000e+001 5.0000000e+001 0.0000000e+000
         vertex 5.0000000e+001 8.0000000e+001 0.0000000e+000
         vertex 8.0000000e+001 5.0000000e+001 0.0000000e+000
      endloop
   endfacet
   facet normal 0.0000000e+000 -1.0000000e+000 0.0000000e+000
      outer loop
         vertex 8.0000000e+001 5.0000000e+001 3.0000000e+001
         vertex 5.0000000e+001 5.0000000e+001 3.0000000e+001
         vertex 5.0000000e+001 5.0000000e+001 0.0000000e+000
      endloop
   endfacet
   facet normal 0.0000000e+000 -1.0000000e+000 0.0000000e+000
      outer loop
         vertex 8.0000000e+001 5.0000000e+001 0.0000000e+000
         vertex 8.0000000e+001 5.0000000e+001 3.0000000e+001
         vertex 5.0000000e+001 5.0000000e+001 0.0000000e+000
      endloop
   endfacet
   facet normal -1.0000000e+000 0.0000000e+000 0.0000000e+000
      outer loop
         vertex 5.0000000e+001 5.0000000e+001 3.0000000e+001
         vertex 5.0000000e+001 8.0000000e+001 3.0000000e+001
         vertex 5.0000000e+001 8.0000000e+001 0.0000000e+000
      endloop
   endfacet
   facet normal -1.0000000e+000 0.0000000e+000 0.0000000e+000
      outer loop
         vertex 5.0000000e+001 5.0000000e+001 0.0000000e+000
         vertex 5.0000000e+001 5.0000000e+001 3.0000000e+001
         vertex 5.0000000e+001 8.0000000e+001 0.0000000e+000
      endloop
   endfacet
   facet normal 0.0000000e+000 1.0000000e+000 0.0000000e+000
      outer loop
         vertex 5.0000000e+001 8.0000000e+001 3.0000000e+001
         vertex 8.0000000e+001 8.0000000e+001 3.0000000e+001
         vertex 8.0000000e+001 8.0000000e+001 0.0000000e+000
      endloop
   endfacet
   facet normal 0.0000000e+000 1.0000000e+000 0.0000000e+000
      outer loop
         vertex 5.0000000e+001 8.0000000e+001 0.0000000e+000
         vertex 5.0000000e+001 8.0000000e+001 3.0000000e+001
         vertex 8.0000000e+001 8.0000000e+001 0.0000000e+000
      endloop
   endfacet
   facet normal 1.0000000e+000 0.0000000e+000 0.0000000e+000
      outer loop
         vertex 8.0000000e+001 8.0000000e+001 3.0000000e+001
         vertex 8.0000000e+001 5.0000000e+001 3.0000000e+001
         vertex 8.0000000e+001 5.0000000e+001 0.0000000e+000
      endloop
   endfacet
   facet normal 1.0000000e+000 0.0000000e+000 0.0000000e+000
      outer loop
         vertex 8.0000000e+001 8.0000000e+001 0.0000000e+000
         vertex 8.0000000e+001 8.0000000e+001 3.0000000e+001
         vertex 8.0000000e+001 5.0000000e+001 0.0000000e+000
      endloop
   endfacet
endsolid AutoCAD
