solid AutoCAD
   facet normal -4.6555288e-002 -9.4765465e-001 3.1588488e-001
      outer loop
         vertex 2.7368284e+001 8.0106660e+001 0.0000000e+000
         vertex 2.9328626e+001 8.0010355e+001 0.0000000e+000
         vertex 2.9328626e+001 1.0001035e+002 6.0000000e+001
      endloop
   endfacet
   facet normal -1.3921751e-001 -9.3852822e-001 3.1588488e-001
      outer loop
         vertex 2.5426820e+001 8.0394649e+001 0.0000000e+000
         vertex 2.7368284e+001 8.0106660e+001 0.0000000e+000
         vertex 2.9328626e+001 1.0001035e+002 6.0000000e+001
      endloop
   endfacet
   facet normal -2.3053899e-001 -9.2036325e-001 3.1588488e-001
      outer loop
         vertex 2.3522933e+001 8.0871548e+001 0.0000000e+000
         vertex 2.5426820e+001 8.0394649e+001 0.0000000e+000
         vertex 2.9328626e+001 1.0001035e+002 6.0000000e+001
      endloop
   endfacet
   facet normal -3.1964026e-001 -8.9333468e-001 3.1588488e-001
      outer loop
         vertex 2.1674958e+001 8.1532764e+001 0.0000000e+000
         vertex 2.3522933e+001 8.0871548e+001 0.0000000e+000
         vertex 2.9328626e+001 1.0001035e+002 6.0000000e+001
      endloop
   endfacet
   facet normal -4.0566321e-001 -8.5770280e-001 3.1588488e-001
      outer loop
         vertex 1.9900692e+001 8.2371929e+001 0.0000000e+000
         vertex 2.1674958e+001 8.1532764e+001 0.0000000e+000
         vertex 2.9328626e+001 1.0001035e+002 6.0000000e+001
      endloop
   endfacet
   facet normal -4.8777941e-001 -8.1381078e-001 3.1588488e-001
      outer loop
         vertex 1.8217222e+001 8.3380962e+001 0.0000000e+000
         vertex 1.9900692e+001 8.2371929e+001 0.0000000e+000
         vertex 2.9328626e+001 1.0001035e+002 6.0000000e+001
      endloop
   endfacet
   facet normal -5.6519802e-001 -7.6208132e-001 3.1588488e-001
      outer loop
         vertex 1.6640761e+001 8.4550146e+001 0.0000000e+000
         vertex 1.8217222e+001 8.3380962e+001 0.0000000e+000
         vertex 2.9328626e+001 1.0001035e+002 6.0000000e+001
      endloop
   endfacet
   facet normal -6.3717347e-001 -7.0301259e-001 3.1588488e-001
      outer loop
         vertex 1.5186491e+001 8.5868219e+001 0.0000000e+000
         vertex 1.6640761e+001 8.4550146e+001 0.0000000e+000
         vertex 2.9328626e+001 1.0001035e+002 6.0000000e+001
      endloop
   endfacet
   facet normal -7.0301259e-001 -6.3717347e-001 3.1588488e-001
      outer loop
         vertex 1.3868417e+001 8.7322489e+001 0.0000000e+000
         vertex 1.5186491e+001 8.5868219e+001 0.0000000e+000
         vertex 2.9328626e+001 1.0001035e+002 6.0000000e+001
      endloop
   endfacet
   facet normal -7.6208132e-001 -5.6519802e-001 3.1588488e-001
      outer loop
         vertex 1.2699234e+001 8.8898950e+001 0.0000000e+000
         vertex 1.3868417e+001 8.7322489e+001 0.0000000e+000
         vertex 2.9328626e+001 1.0001035e+002 6.0000000e+001
      endloop
   endfacet
   facet normal -8.1381078e-001 -4.8777941e-001 3.1588488e-001
      outer loop
         vertex 1.1690201e+001 9.0582420e+001 0.0000000e+000
         vertex 1.2699234e+001 8.8898950e+001 0.0000000e+000
         vertex 2.9328626e+001 1.0001035e+002 6.0000000e+001
      endloop
   endfacet
   facet normal -8.5770280e-001 -4.0566321e-001 3.1588488e-001
      outer loop
         vertex 1.0851036e+001 9.2356686e+001 0.0000000e+000
         vertex 1.1690201e+001 9.0582420e+001 0.0000000e+000
         vertex 2.9328626e+001 1.0001035e+002 6.0000000e+001
      endloop
   endfacet
   facet normal -8.9333468e-001 -3.1964026e-001 3.1588488e-001
      outer loop
         vertex 1.0189820e+001 9.4204661e+001 0.0000000e+000
         vertex 1.0851036e+001 9.2356686e+001 0.0000000e+000
         vertex 2.9328626e+001 1.0001035e+002 6.0000000e+001
      endloop
   endfacet
   facet normal -9.2036325e-001 -2.3053899e-001 3.1588488e-001
      outer loop
         vertex 9.7129208e+000 9.6108548e+001 0.0000000e+000
         vertex 1.0189820e+001 9.4204661e+001 0.0000000e+000
         vertex 2.9328626e+001 1.0001035e+002 6.0000000e+001
      endloop
   endfacet
   facet normal -9.3852822e-001 -1.3921751e-001 3.1588488e-001
      outer loop
         vertex 9.4249319e+000 9.8050012e+001 0.0000000e+000
         vertex 9.7129208e+000 9.6108548e+001 0.0000000e+000
         vertex 2.9328626e+001 1.0001035e+002 6.0000000e+001
      endloop
   endfacet
   facet normal -9.4765465e-001 -4.6555288e-002 3.1588488e-001
      outer loop
         vertex 9.3286264e+000 1.0001035e+002 0.0000000e+000
         vertex 9.4249319e+000 9.8050012e+001 0.0000000e+000
         vertex 2.9328626e+001 1.0001035e+002 6.0000000e+001
      endloop
   endfacet
   facet normal 9.4765465e-001 -4.6555288e-002 3.1588488e-001
      outer loop
         vertex 4.9232321e+001 9.8050012e+001 0.0000000e+000
         vertex 4.9328626e+001 1.0001035e+002 0.0000000e+000
         vertex 2.9328626e+001 1.0001035e+002 6.0000000e+001
      endloop
   endfacet
   facet normal 9.3852822e-001 -1.3921751e-001 3.1588488e-001
      outer loop
         vertex 4.8944332e+001 9.6108548e+001 0.0000000e+000
         vertex 4.9232321e+001 9.8050012e+001 0.0000000e+000
         vertex 2.9328626e+001 1.0001035e+002 6.0000000e+001
      endloop
   endfacet
   facet normal 9.2036325e-001 -2.3053899e-001 3.1588488e-001
      outer loop
         vertex 4.8467433e+001 9.4204661e+001 0.0000000e+000
         vertex 4.8944332e+001 9.6108548e+001 0.0000000e+000
         vertex 2.9328626e+001 1.0001035e+002 6.0000000e+001
      endloop
   endfacet
   facet normal 8.9333468e-001 -3.1964026e-001 3.1588488e-001
      outer loop
         vertex 4.7806217e+001 9.2356686e+001 0.0000000e+000
         vertex 4.8467433e+001 9.4204661e+001 0.0000000e+000
         vertex 2.9328626e+001 1.0001035e+002 6.0000000e+001
      endloop
   endfacet
   facet normal 8.5770280e-001 -4.0566321e-001 3.1588488e-001
      outer loop
         vertex 4.6967052e+001 9.0582420e+001 0.0000000e+000
         vertex 4.7806217e+001 9.2356686e+001 0.0000000e+000
         vertex 2.9328626e+001 1.0001035e+002 6.0000000e+001
      endloop
   endfacet
   facet normal 8.1381078e-001 -4.8777941e-001 3.1588488e-001
      outer loop
         vertex 4.5958019e+001 8.8898950e+001 0.0000000e+000
         vertex 4.6967052e+001 9.0582420e+001 0.0000000e+000
         vertex 2.9328626e+001 1.0001035e+002 6.0000000e+001
      endloop
   endfacet
   facet normal 7.6208132e-001 -5.6519802e-001 3.1588488e-001
      outer loop
         vertex 4.4788835e+001 8.7322489e+001 0.0000000e+000
         vertex 4.5958019e+001 8.8898950e+001 0.0000000e+000
         vertex 2.9328626e+001 1.0001035e+002 6.0000000e+001
      endloop
   endfacet
   facet normal 7.0301259e-001 -6.3717347e-001 3.1588488e-001
      outer loop
         vertex 4.3470762e+001 8.5868219e+001 0.0000000e+000
         vertex 4.4788835e+001 8.7322489e+001 0.0000000e+000
         vertex 2.9328626e+001 1.0001035e+002 6.0000000e+001
      endloop
   endfacet
   facet normal 6.3717347e-001 -7.0301259e-001 3.1588488e-001
      outer loop
         vertex 4.2016492e+001 8.4550146e+001 0.0000000e+000
         vertex 4.3470762e+001 8.5868219e+001 0.0000000e+000
         vertex 2.9328626e+001 1.0001035e+002 6.0000000e+001
      endloop
   endfacet
   facet normal 5.6519802e-001 -7.6208132e-001 3.1588488e-001
      outer loop
         vertex 4.0440031e+001 8.3380962e+001 0.0000000e+000
         vertex 4.2016492e+001 8.4550146e+001 0.0000000e+000
         vertex 2.9328626e+001 1.0001035e+002 6.0000000e+001
      endloop
   endfacet
   facet normal 4.8777941e-001 -8.1381078e-001 3.1588488e-001
      outer loop
         vertex 3.8756561e+001 8.2371929e+001 0.0000000e+000
         vertex 4.0440031e+001 8.3380962e+001 0.0000000e+000
         vertex 2.9328626e+001 1.0001035e+002 6.0000000e+001
      endloop
   endfacet
   facet normal 4.0566321e-001 -8.5770280e-001 3.1588488e-001
      outer loop
         vertex 3.6982295e+001 8.1532764e+001 0.0000000e+000
         vertex 3.8756561e+001 8.2371929e+001 0.0000000e+000
         vertex 2.9328626e+001 1.0001035e+002 6.0000000e+001
      endloop
   endfacet
   facet normal 3.1964026e-001 -8.9333468e-001 3.1588488e-001
      outer loop
         vertex 3.5134320e+001 8.0871548e+001 0.0000000e+000
         vertex 3.6982295e+001 8.1532764e+001 0.0000000e+000
         vertex 2.9328626e+001 1.0001035e+002 6.0000000e+001
      endloop
   endfacet
   facet normal 2.3053899e-001 -9.2036325e-001 3.1588488e-001
      outer loop
         vertex 3.3230433e+001 8.0394649e+001 0.0000000e+000
         vertex 3.5134320e+001 8.0871548e+001 0.0000000e+000
         vertex 2.9328626e+001 1.0001035e+002 6.0000000e+001
      endloop
   endfacet
   facet normal 1.3921751e-001 -9.3852822e-001 3.1588488e-001
      outer loop
         vertex 3.1288969e+001 8.0106660e+001 0.0000000e+000
         vertex 3.3230433e+001 8.0394649e+001 0.0000000e+000
         vertex 2.9328626e+001 1.0001035e+002 6.0000000e+001
      endloop
   endfacet
   facet normal 4.6555288e-002 -9.4765465e-001 3.1588488e-001
      outer loop
         vertex 2.9328626e+001 8.0010355e+001 0.0000000e+000
         vertex 3.1288969e+001 8.0106660e+001 0.0000000e+000
         vertex 2.9328626e+001 1.0001035e+002 6.0000000e+001
      endloop
   endfacet
   facet normal 4.6555288e-002 9.4765465e-001 3.1588488e-001
      outer loop
         vertex 3.1288969e+001 1.1991405e+002 0.0000000e+000
         vertex 2.9328626e+001 1.2001035e+002 0.0000000e+000
         vertex 2.9328626e+001 1.0001035e+002 6.0000000e+001
      endloop
   endfacet
   facet normal 1.3921751e-001 9.3852822e-001 3.1588488e-001
      outer loop
         vertex 3.3230433e+001 1.1962606e+002 0.0000000e+000
         vertex 3.1288969e+001 1.1991405e+002 0.0000000e+000
         vertex 2.9328626e+001 1.0001035e+002 6.0000000e+001
      endloop
   endfacet
   facet normal 2.3053899e-001 9.2036325e-001 3.1588488e-001
      outer loop
         vertex 3.5134320e+001 1.1914916e+002 0.0000000e+000
         vertex 3.3230433e+001 1.1962606e+002 0.0000000e+000
         vertex 2.9328626e+001 1.0001035e+002 6.0000000e+001
      endloop
   endfacet
   facet normal 3.1964026e-001 8.9333468e-001 3.1588488e-001
      outer loop
         vertex 3.6982295e+001 1.1848795e+002 0.0000000e+000
         vertex 3.5134320e+001 1.1914916e+002 0.0000000e+000
         vertex 2.9328626e+001 1.0001035e+002 6.0000000e+001
      endloop
   endfacet
   facet normal 4.0566321e-001 8.5770280e-001 3.1588488e-001
      outer loop
         vertex 3.8756561e+001 1.1764878e+002 0.0000000e+000
         vertex 3.6982295e+001 1.1848795e+002 0.0000000e+000
         vertex 2.9328626e+001 1.0001035e+002 6.0000000e+001
      endloop
   endfacet
   facet normal 4.8777941e-001 8.1381078e-001 3.1588488e-001
      outer loop
         vertex 4.0440031e+001 1.1663975e+002 0.0000000e+000
         vertex 3.8756561e+001 1.1764878e+002 0.0000000e+000
         vertex 2.9328626e+001 1.0001035e+002 6.0000000e+001
      endloop
   endfacet
   facet normal 5.6519802e-001 7.6208132e-001 3.1588488e-001
      outer loop
         vertex 4.2016492e+001 1.1547056e+002 0.0000000e+000
         vertex 4.0440031e+001 1.1663975e+002 0.0000000e+000
         vertex 2.9328626e+001 1.0001035e+002 6.0000000e+001
      endloop
   endfacet
   facet normal 6.3717347e-001 7.0301259e-001 3.1588488e-001
      outer loop
         vertex 4.3470762e+001 1.1415249e+002 0.0000000e+000
         vertex 4.2016492e+001 1.1547056e+002 0.0000000e+000
         vertex 2.9328626e+001 1.0001035e+002 6.0000000e+001
      endloop
   endfacet
   facet normal 7.0301259e-001 6.3717347e-001 3.1588488e-001
      outer loop
         vertex 4.4788835e+001 1.1269822e+002 0.0000000e+000
         vertex 4.3470762e+001 1.1415249e+002 0.0000000e+000
         vertex 2.9328626e+001 1.0001035e+002 6.0000000e+001
      endloop
   endfacet
   facet normal 7.6208132e-001 5.6519802e-001 3.1588488e-001
      outer loop
         vertex 4.5958019e+001 1.1112176e+002 0.0000000e+000
         vertex 4.4788835e+001 1.1269822e+002 0.0000000e+000
         vertex 2.9328626e+001 1.0001035e+002 6.0000000e+001
      endloop
   endfacet
   facet normal 8.1381078e-001 4.8777941e-001 3.1588488e-001
      outer loop
         vertex 4.6967052e+001 1.0943829e+002 0.0000000e+000
         vertex 4.5958019e+001 1.1112176e+002 0.0000000e+000
         vertex 2.9328626e+001 1.0001035e+002 6.0000000e+001
      endloop
   endfacet
   facet normal 8.5770280e-001 4.0566321e-001 3.1588488e-001
      outer loop
         vertex 4.7806217e+001 1.0766402e+002 0.0000000e+000
         vertex 4.6967052e+001 1.0943829e+002 0.0000000e+000
         vertex 2.9328626e+001 1.0001035e+002 6.0000000e+001
      endloop
   endfacet
   facet normal 8.9333468e-001 3.1964026e-001 3.1588488e-001
      outer loop
         vertex 4.8467433e+001 1.0581605e+002 0.0000000e+000
         vertex 4.7806217e+001 1.0766402e+002 0.0000000e+000
         vertex 2.9328626e+001 1.0001035e+002 6.0000000e+001
      endloop
   endfacet
   facet normal 9.2036325e-001 2.3053899e-001 3.1588488e-001
      outer loop
         vertex 4.8944332e+001 1.0391216e+002 0.0000000e+000
         vertex 4.8467433e+001 1.0581605e+002 0.0000000e+000
         vertex 2.9328626e+001 1.0001035e+002 6.0000000e+001
      endloop
   endfacet
   facet normal 9.3852822e-001 1.3921751e-001 3.1588488e-001
      outer loop
         vertex 4.9232321e+001 1.0197070e+002 0.0000000e+000
         vertex 4.8944332e+001 1.0391216e+002 0.0000000e+000
         vertex 2.9328626e+001 1.0001035e+002 6.0000000e+001
      endloop
   endfacet
   facet normal 9.4765465e-001 4.6555288e-002 3.1588488e-001
      outer loop
         vertex 4.9328626e+001 1.0001035e+002 0.0000000e+000
         vertex 4.9232321e+001 1.0197070e+002 0.0000000e+000
         vertex 2.9328626e+001 1.0001035e+002 6.0000000e+001
      endloop
   endfacet
   facet normal -9.4765465e-001 4.6555288e-002 3.1588488e-001
      outer loop
         vertex 9.4249319e+000 1.0197070e+002 0.0000000e+000
         vertex 9.3286264e+000 1.0001035e+002 0.0000000e+000
         vertex 2.9328626e+001 1.0001035e+002 6.0000000e+001
      endloop
   endfacet
   facet normal -9.3852822e-001 1.3921751e-001 3.1588488e-001
      outer loop
         vertex 9.7129208e+000 1.0391216e+002 0.0000000e+000
         vertex 9.4249319e+000 1.0197070e+002 0.0000000e+000
         vertex 2.9328626e+001 1.0001035e+002 6.0000000e+001
      endloop
   endfacet
   facet normal -9.2036325e-001 2.3053899e-001 3.1588488e-001
      outer loop
         vertex 1.0189820e+001 1.0581605e+002 0.0000000e+000
         vertex 9.7129208e+000 1.0391216e+002 0.0000000e+000
         vertex 2.9328626e+001 1.0001035e+002 6.0000000e+001
      endloop
   endfacet
   facet normal -8.9333468e-001 3.1964026e-001 3.1588488e-001
      outer loop
         vertex 1.0851036e+001 1.0766402e+002 0.0000000e+000
         vertex 1.0189820e+001 1.0581605e+002 0.0000000e+000
         vertex 2.9328626e+001 1.0001035e+002 6.0000000e+001
      endloop
   endfacet
   facet normal -8.5770280e-001 4.0566321e-001 3.1588488e-001
      outer loop
         vertex 1.1690201e+001 1.0943829e+002 0.0000000e+000
         vertex 1.0851036e+001 1.0766402e+002 0.0000000e+000
         vertex 2.9328626e+001 1.0001035e+002 6.0000000e+001
      endloop
   endfacet
   facet normal -8.1381078e-001 4.8777941e-001 3.1588488e-001
      outer loop
         vertex 1.2699234e+001 1.1112176e+002 0.0000000e+000
         vertex 1.1690201e+001 1.0943829e+002 0.0000000e+000
         vertex 2.9328626e+001 1.0001035e+002 6.0000000e+001
      endloop
   endfacet
   facet normal -7.6208132e-001 5.6519802e-001 3.1588488e-001
      outer loop
         vertex 1.3868417e+001 1.1269822e+002 0.0000000e+000
         vertex 1.2699234e+001 1.1112176e+002 0.0000000e+000
         vertex 2.9328626e+001 1.0001035e+002 6.0000000e+001
      endloop
   endfacet
   facet normal -7.0301259e-001 6.3717347e-001 3.1588488e-001
      outer loop
         vertex 1.5186491e+001 1.1415249e+002 0.0000000e+000
         vertex 1.3868417e+001 1.1269822e+002 0.0000000e+000
         vertex 2.9328626e+001 1.0001035e+002 6.0000000e+001
      endloop
   endfacet
   facet normal -6.3717347e-001 7.0301259e-001 3.1588488e-001
      outer loop
         vertex 1.6640761e+001 1.1547056e+002 0.0000000e+000
         vertex 1.5186491e+001 1.1415249e+002 0.0000000e+000
         vertex 2.9328626e+001 1.0001035e+002 6.0000000e+001
      endloop
   endfacet
   facet normal -5.6519802e-001 7.6208132e-001 3.1588488e-001
      outer loop
         vertex 1.8217222e+001 1.1663975e+002 0.0000000e+000
         vertex 1.6640761e+001 1.1547056e+002 0.0000000e+000
         vertex 2.9328626e+001 1.0001035e+002 6.0000000e+001
      endloop
   endfacet
   facet normal -4.8777941e-001 8.1381078e-001 3.1588488e-001
      outer loop
         vertex 1.9900692e+001 1.1764878e+002 0.0000000e+000
         vertex 1.8217222e+001 1.1663975e+002 0.0000000e+000
         vertex 2.9328626e+001 1.0001035e+002 6.0000000e+001
      endloop
   endfacet
   facet normal -4.0566321e-001 8.5770280e-001 3.1588488e-001
      outer loop
         vertex 2.1674958e+001 1.1848795e+002 0.0000000e+000
         vertex 1.9900692e+001 1.1764878e+002 0.0000000e+000
         vertex 2.9328626e+001 1.0001035e+002 6.0000000e+001
      endloop
   endfacet
   facet normal -3.1964026e-001 8.9333468e-001 3.1588488e-001
      outer loop
         vertex 2.3522933e+001 1.1914916e+002 0.0000000e+000
         vertex 2.1674958e+001 1.1848795e+002 0.0000000e+000
         vertex 2.9328626e+001 1.0001035e+002 6.0000000e+001
      endloop
   endfacet
   facet normal -2.3053899e-001 9.2036325e-001 3.1588488e-001
      outer loop
         vertex 2.5426820e+001 1.1962606e+002 0.0000000e+000
         vertex 2.3522933e+001 1.1914916e+002 0.0000000e+000
         vertex 2.9328626e+001 1.0001035e+002 6.0000000e+001
      endloop
   endfacet
   facet normal -1.3921751e-001 9.3852822e-001 3.1588488e-001
      outer loop
         vertex 2.7368284e+001 1.1991405e+002 0.0000000e+000
         vertex 2.5426820e+001 1.1962606e+002 0.0000000e+000
         vertex 2.9328626e+001 1.0001035e+002 6.0000000e+001
      endloop
   endfacet
   facet normal -4.6555288e-002 9.4765465e-001 3.1588488e-001
      outer loop
         vertex 2.9328626e+001 1.2001035e+002 0.0000000e+000
         vertex 2.7368284e+001 1.1991405e+002 0.0000000e+000
         vertex 2.9328626e+001 1.0001035e+002 6.0000000e+001
      endloop
   endfacet
   facet normal 0.0000000e+000 0.0000000e+000 -1.0000000e+000
      outer loop
         vertex 3.3230433e+001 1.1962606e+002 0.0000000e+000
         vertex 3.5134320e+001 1.1914916e+002 0.0000000e+000
         vertex 3.6982295e+001 1.1848795e+002 0.0000000e+000
      endloop
   endfacet
   facet normal 0.0000000e+000 0.0000000e+000 -1.0000000e+000
      outer loop
         vertex 3.3230433e+001 1.1962606e+002 0.0000000e+000
         vertex 3.6982295e+001 1.1848795e+002 0.0000000e+000
         vertex 3.8756561e+001 1.1764878e+002 0.0000000e+000
      endloop
   endfacet
   facet normal 0.0000000e+000 0.0000000e+000 -1.0000000e+000
      outer loop
         vertex 3.3230433e+001 1.1962606e+002 0.0000000e+000
         vertex 3.8756561e+001 1.1764878e+002 0.0000000e+000
         vertex 4.0440031e+001 1.1663975e+002 0.0000000e+000
      endloop
   endfacet
   facet normal 0.0000000e+000 0.0000000e+000 -1.0000000e+000
      outer loop
         vertex 3.1288969e+001 1.1991405e+002 0.0000000e+000
         vertex 3.3230433e+001 1.1962606e+002 0.0000000e+000
         vertex 4.0440031e+001 1.1663975e+002 0.0000000e+000
      endloop
   endfacet
   facet normal 0.0000000e+000 0.0000000e+000 -1.0000000e+000
      outer loop
         vertex 3.1288969e+001 1.1991405e+002 0.0000000e+000
         vertex 4.0440031e+001 1.1663975e+002 0.0000000e+000
         vertex 4.2016492e+001 1.1547056e+002 0.0000000e+000
      endloop
   endfacet
   facet normal 0.0000000e+000 0.0000000e+000 -1.0000000e+000
      outer loop
         vertex 3.1288969e+001 1.1991405e+002 0.0000000e+000
         vertex 4.2016492e+001 1.1547056e+002 0.0000000e+000
         vertex 4.3470762e+001 1.1415249e+002 0.0000000e+000
      endloop
   endfacet
   facet normal 0.0000000e+000 0.0000000e+000 -1.0000000e+000
      outer loop
         vertex 3.1288969e+001 1.1991405e+002 0.0000000e+000
         vertex 4.3470762e+001 1.1415249e+002 0.0000000e+000
         vertex 4.4788835e+001 1.1269822e+002 0.0000000e+000
      endloop
   endfacet
   facet normal 0.0000000e+000 0.0000000e+000 -1.0000000e+000
      outer loop
         vertex 3.1288969e+001 1.1991405e+002 0.0000000e+000
         vertex 4.4788835e+001 1.1269822e+002 0.0000000e+000
         vertex 4.5958019e+001 1.1112176e+002 0.0000000e+000
      endloop
   endfacet
   facet normal 0.0000000e+000 0.0000000e+000 -1.0000000e+000
      outer loop
         vertex 3.1288969e+001 1.1991405e+002 0.0000000e+000
         vertex 4.5958019e+001 1.1112176e+002 0.0000000e+000
         vertex 4.6967052e+001 1.0943829e+002 0.0000000e+000
      endloop
   endfacet
   facet normal 0.0000000e+000 0.0000000e+000 -1.0000000e+000
      outer loop
         vertex 3.1288969e+001 1.1991405e+002 0.0000000e+000
         vertex 4.6967052e+001 1.0943829e+002 0.0000000e+000
         vertex 4.7806217e+001 1.0766402e+002 0.0000000e+000
      endloop
   endfacet
   facet normal 0.0000000e+000 0.0000000e+000 -1.0000000e+000
      outer loop
         vertex 2.9328626e+001 1.2001035e+002 0.0000000e+000
         vertex 3.1288969e+001 1.1991405e+002 0.0000000e+000
         vertex 4.7806217e+001 1.0766402e+002 0.0000000e+000
      endloop
   endfacet
   facet normal 0.0000000e+000 0.0000000e+000 -1.0000000e+000
      outer loop
         vertex 2.7368284e+001 1.1991405e+002 0.0000000e+000
         vertex 2.9328626e+001 1.2001035e+002 0.0000000e+000
         vertex 4.7806217e+001 1.0766402e+002 0.0000000e+000
      endloop
   endfacet
   facet normal 0.0000000e+000 0.0000000e+000 -1.0000000e+000
      outer loop
         vertex 2.5426820e+001 1.1962606e+002 0.0000000e+000
         vertex 2.7368284e+001 1.1991405e+002 0.0000000e+000
         vertex 4.7806217e+001 1.0766402e+002 0.0000000e+000
      endloop
   endfacet
   facet normal 0.0000000e+000 0.0000000e+000 -1.0000000e+000
      outer loop
         vertex 2.3522933e+001 1.1914916e+002 0.0000000e+000
         vertex 2.5426820e+001 1.1962606e+002 0.0000000e+000
         vertex 4.7806217e+001 1.0766402e+002 0.0000000e+000
      endloop
   endfacet
   facet normal 0.0000000e+000 0.0000000e+000 -1.0000000e+000
      outer loop
         vertex 2.1674958e+001 1.1848795e+002 0.0000000e+000
         vertex 2.3522933e+001 1.1914916e+002 0.0000000e+000
         vertex 4.7806217e+001 1.0766402e+002 0.0000000e+000
      endloop
   endfacet
   facet normal 0.0000000e+000 0.0000000e+000 -1.0000000e+000
      outer loop
         vertex 1.9900692e+001 1.1764878e+002 0.0000000e+000
         vertex 2.1674958e+001 1.1848795e+002 0.0000000e+000
         vertex 4.7806217e+001 1.0766402e+002 0.0000000e+000
      endloop
   endfacet
   facet normal 0.0000000e+000 0.0000000e+000 -1.0000000e+000
      outer loop
         vertex 1.8217222e+001 1.1663975e+002 0.0000000e+000
         vertex 1.9900692e+001 1.1764878e+002 0.0000000e+000
         vertex 4.7806217e+001 1.0766402e+002 0.0000000e+000
      endloop
   endfacet
   facet normal 0.0000000e+000 0.0000000e+000 -1.0000000e+000
      outer loop
         vertex 1.6640761e+001 1.1547056e+002 0.0000000e+000
         vertex 1.8217222e+001 1.1663975e+002 0.0000000e+000
         vertex 4.7806217e+001 1.0766402e+002 0.0000000e+000
      endloop
   endfacet
   facet normal 0.0000000e+000 0.0000000e+000 -1.0000000e+000
      outer loop
         vertex 1.5186491e+001 1.1415249e+002 0.0000000e+000
         vertex 1.6640761e+001 1.1547056e+002 0.0000000e+000
         vertex 4.7806217e+001 1.0766402e+002 0.0000000e+000
      endloop
   endfacet
   facet normal 0.0000000e+000 0.0000000e+000 -1.0000000e+000
      outer loop
         vertex 1.3868417e+001 1.1269822e+002 0.0000000e+000
         vertex 1.5186491e+001 1.1415249e+002 0.0000000e+000
         vertex 4.7806217e+001 1.0766402e+002 0.0000000e+000
      endloop
   endfacet
   facet normal 0.0000000e+000 0.0000000e+000 -1.0000000e+000
      outer loop
         vertex 1.2699234e+001 1.1112176e+002 0.0000000e+000
         vertex 1.3868417e+001 1.1269822e+002 0.0000000e+000
         vertex 4.7806217e+001 1.0766402e+002 0.0000000e+000
      endloop
   endfacet
   facet normal 0.0000000e+000 0.0000000e+000 -1.0000000e+000
      outer loop
         vertex 1.1690201e+001 1.0943829e+002 0.0000000e+000
         vertex 1.2699234e+001 1.1112176e+002 0.0000000e+000
         vertex 4.7806217e+001 1.0766402e+002 0.0000000e+000
      endloop
   endfacet
   facet normal 0.0000000e+000 0.0000000e+000 -1.0000000e+000
      outer loop
         vertex 1.0851036e+001 1.0766402e+002 0.0000000e+000
         vertex 1.1690201e+001 1.0943829e+002 0.0000000e+000
         vertex 4.7806217e+001 1.0766402e+002 0.0000000e+000
      endloop
   endfacet
   facet normal 0.0000000e+000 0.0000000e+000 -1.0000000e+000
      outer loop
         vertex 1.0189820e+001 1.0581605e+002 0.0000000e+000
         vertex 1.0851036e+001 1.0766402e+002 0.0000000e+000
         vertex 4.7806217e+001 1.0766402e+002 0.0000000e+000
      endloop
   endfacet
   facet normal 0.0000000e+000 0.0000000e+000 -1.0000000e+000
      outer loop
         vertex 9.7129208e+000 1.0391216e+002 0.0000000e+000
         vertex 1.0189820e+001 1.0581605e+002 0.0000000e+000
         vertex 4.7806217e+001 1.0766402e+002 0.0000000e+000
      endloop
   endfacet
   facet normal 0.0000000e+000 0.0000000e+000 -1.0000000e+000
      outer loop
         vertex 9.4249319e+000 1.0197070e+002 0.0000000e+000
         vertex 9.7129208e+000 1.0391216e+002 0.0000000e+000
         vertex 4.7806217e+001 1.0766402e+002 0.0000000e+000
      endloop
   endfacet
   facet normal 0.0000000e+000 0.0000000e+000 -1.0000000e+000
      outer loop
         vertex 9.3286264e+000 1.0001035e+002 0.0000000e+000
         vertex 9.4249319e+000 1.0197070e+002 0.0000000e+000
         vertex 4.7806217e+001 1.0766402e+002 0.0000000e+000
      endloop
   endfacet
   facet normal 0.0000000e+000 0.0000000e+000 -1.0000000e+000
      outer loop
         vertex 9.4249319e+000 9.8050012e+001 0.0000000e+000
         vertex 9.3286264e+000 1.0001035e+002 0.0000000e+000
         vertex 4.7806217e+001 1.0766402e+002 0.0000000e+000
      endloop
   endfacet
   facet normal 0.0000000e+000 0.0000000e+000 -1.0000000e+000
      outer loop
         vertex 9.7129208e+000 9.6108548e+001 0.0000000e+000
         vertex 9.4249319e+000 9.8050012e+001 0.0000000e+000
         vertex 4.7806217e+001 1.0766402e+002 0.0000000e+000
      endloop
   endfacet
   facet normal 0.0000000e+000 0.0000000e+000 -1.0000000e+000
      outer loop
         vertex 1.0189820e+001 9.4204661e+001 0.0000000e+000
         vertex 9.7129208e+000 9.6108548e+001 0.0000000e+000
         vertex 4.7806217e+001 1.0766402e+002 0.0000000e+000
      endloop
   endfacet
   facet normal 0.0000000e+000 0.0000000e+000 -1.0000000e+000
      outer loop
         vertex 1.0851036e+001 9.2356686e+001 0.0000000e+000
         vertex 1.0189820e+001 9.4204661e+001 0.0000000e+000
         vertex 4.7806217e+001 1.0766402e+002 0.0000000e+000
      endloop
   endfacet
   facet normal 0.0000000e+000 0.0000000e+000 -1.0000000e+000
      outer loop
         vertex 1.1690201e+001 9.0582420e+001 0.0000000e+000
         vertex 1.0851036e+001 9.2356686e+001 0.0000000e+000
         vertex 4.7806217e+001 1.0766402e+002 0.0000000e+000
      endloop
   endfacet
   facet normal 0.0000000e+000 0.0000000e+000 -1.0000000e+000
      outer loop
         vertex 1.2699234e+001 8.8898950e+001 0.0000000e+000
         vertex 1.1690201e+001 9.0582420e+001 0.0000000e+000
         vertex 4.7806217e+001 1.0766402e+002 0.0000000e+000
      endloop
   endfacet
   facet normal 0.0000000e+000 0.0000000e+000 -1.0000000e+000
      outer loop
         vertex 1.3868417e+001 8.7322489e+001 0.0000000e+000
         vertex 1.2699234e+001 8.8898950e+001 0.0000000e+000
         vertex 4.7806217e+001 1.0766402e+002 0.0000000e+000
      endloop
   endfacet
   facet normal 0.0000000e+000 0.0000000e+000 -1.0000000e+000
      outer loop
         vertex 1.5186491e+001 8.5868219e+001 0.0000000e+000
         vertex 1.3868417e+001 8.7322489e+001 0.0000000e+000
         vertex 4.7806217e+001 1.0766402e+002 0.0000000e+000
      endloop
   endfacet
   facet normal 0.0000000e+000 0.0000000e+000 -1.0000000e+000
      outer loop
         vertex 1.6640761e+001 8.4550146e+001 0.0000000e+000
         vertex 1.5186491e+001 8.5868219e+001 0.0000000e+000
         vertex 4.7806217e+001 1.0766402e+002 0.0000000e+000
      endloop
   endfacet
   facet normal 0.0000000e+000 0.0000000e+000 -1.0000000e+000
      outer loop
         vertex 1.8217222e+001 8.3380962e+001 0.0000000e+000
         vertex 1.6640761e+001 8.4550146e+001 0.0000000e+000
         vertex 4.7806217e+001 1.0766402e+002 0.0000000e+000
      endloop
   endfacet
   facet normal 0.0000000e+000 0.0000000e+000 -1.0000000e+000
      outer loop
         vertex 1.9900692e+001 8.2371929e+001 0.0000000e+000
         vertex 1.8217222e+001 8.3380962e+001 0.0000000e+000
         vertex 4.7806217e+001 1.0766402e+002 0.0000000e+000
      endloop
   endfacet
   facet normal 0.0000000e+000 0.0000000e+000 -1.0000000e+000
      outer loop
         vertex 1.9900692e+001 8.2371929e+001 0.0000000e+000
         vertex 4.7806217e+001 1.0766402e+002 0.0000000e+000
         vertex 4.8467433e+001 1.0581605e+002 0.0000000e+000
      endloop
   endfacet
   facet normal 0.0000000e+000 0.0000000e+000 -1.0000000e+000
      outer loop
         vertex 1.9900692e+001 8.2371929e+001 0.0000000e+000
         vertex 4.8467433e+001 1.0581605e+002 0.0000000e+000
         vertex 4.8944332e+001 1.0391216e+002 0.0000000e+000
      endloop
   endfacet
   facet normal 0.0000000e+000 0.0000000e+000 -1.0000000e+000
      outer loop
         vertex 1.9900692e+001 8.2371929e+001 0.0000000e+000
         vertex 4.8944332e+001 1.0391216e+002 0.0000000e+000
         vertex 4.9232321e+001 1.0197070e+002 0.0000000e+000
      endloop
   endfacet
   facet normal 0.0000000e+000 0.0000000e+000 -1.0000000e+000
      outer loop
         vertex 2.1674958e+001 8.1532764e+001 0.0000000e+000
         vertex 1.9900692e+001 8.2371929e+001 0.0000000e+000
         vertex 4.9232321e+001 1.0197070e+002 0.0000000e+000
      endloop
   endfacet
   facet normal 0.0000000e+000 0.0000000e+000 -1.0000000e+000
      outer loop
         vertex 2.3522933e+001 8.0871548e+001 0.0000000e+000
         vertex 2.1674958e+001 8.1532764e+001 0.0000000e+000
         vertex 4.9232321e+001 1.0197070e+002 0.0000000e+000
      endloop
   endfacet
   facet normal 0.0000000e+000 0.0000000e+000 -1.0000000e+000
      outer loop
         vertex 2.5426820e+001 8.0394649e+001 0.0000000e+000
         vertex 2.3522933e+001 8.0871548e+001 0.0000000e+000
         vertex 4.9232321e+001 1.0197070e+002 0.0000000e+000
      endloop
   endfacet
   facet normal 0.0000000e+000 0.0000000e+000 -1.0000000e+000
      outer loop
         vertex 2.7368284e+001 8.0106660e+001 0.0000000e+000
         vertex 2.5426820e+001 8.0394649e+001 0.0000000e+000
         vertex 4.9232321e+001 1.0197070e+002 0.0000000e+000
      endloop
   endfacet
   facet normal 0.0000000e+000 0.0000000e+000 -1.0000000e+000
      outer loop
         vertex 2.9328626e+001 8.0010355e+001 0.0000000e+000
         vertex 2.7368284e+001 8.0106660e+001 0.0000000e+000
         vertex 4.9232321e+001 1.0197070e+002 0.0000000e+000
      endloop
   endfacet
   facet normal 0.0000000e+000 0.0000000e+000 -1.0000000e+000
      outer loop
         vertex 3.1288969e+001 8.0106660e+001 0.0000000e+000
         vertex 2.9328626e+001 8.0010355e+001 0.0000000e+000
         vertex 4.9232321e+001 1.0197070e+002 0.0000000e+000
      endloop
   endfacet
   facet normal 0.0000000e+000 0.0000000e+000 -1.0000000e+000
      outer loop
         vertex 3.3230433e+001 8.0394649e+001 0.0000000e+000
         vertex 3.1288969e+001 8.0106660e+001 0.0000000e+000
         vertex 4.9232321e+001 1.0197070e+002 0.0000000e+000
      endloop
   endfacet
   facet normal 0.0000000e+000 0.0000000e+000 -1.0000000e+000
      outer loop
         vertex 3.5134320e+001 8.0871548e+001 0.0000000e+000
         vertex 3.3230433e+001 8.0394649e+001 0.0000000e+000
         vertex 4.9232321e+001 1.0197070e+002 0.0000000e+000
      endloop
   endfacet
   facet normal 0.0000000e+000 0.0000000e+000 -1.0000000e+000
      outer loop
         vertex 3.6982295e+001 8.1532764e+001 0.0000000e+000
         vertex 3.5134320e+001 8.0871548e+001 0.0000000e+000
         vertex 4.9232321e+001 1.0197070e+002 0.0000000e+000
      endloop
   endfacet
   facet normal 0.0000000e+000 0.0000000e+000 -1.0000000e+000
      outer loop
         vertex 3.8756561e+001 8.2371929e+001 0.0000000e+000
         vertex 3.6982295e+001 8.1532764e+001 0.0000000e+000
         vertex 4.9232321e+001 1.0197070e+002 0.0000000e+000
      endloop
   endfacet
   facet normal 0.0000000e+000 0.0000000e+000 -1.0000000e+000
      outer loop
         vertex 4.0440031e+001 8.3380962e+001 0.0000000e+000
         vertex 3.8756561e+001 8.2371929e+001 0.0000000e+000
         vertex 4.9232321e+001 1.0197070e+002 0.0000000e+000
      endloop
   endfacet
   facet normal 0.0000000e+000 0.0000000e+000 -1.0000000e+000
      outer loop
         vertex 4.2016492e+001 8.4550146e+001 0.0000000e+000
         vertex 4.0440031e+001 8.3380962e+001 0.0000000e+000
         vertex 4.9232321e+001 1.0197070e+002 0.0000000e+000
      endloop
   endfacet
   facet normal 0.0000000e+000 0.0000000e+000 -1.0000000e+000
      outer loop
         vertex 4.3470762e+001 8.5868219e+001 0.0000000e+000
         vertex 4.2016492e+001 8.4550146e+001 0.0000000e+000
         vertex 4.9232321e+001 1.0197070e+002 0.0000000e+000
      endloop
   endfacet
   facet normal 0.0000000e+000 0.0000000e+000 -1.0000000e+000
      outer loop
         vertex 4.4788835e+001 8.7322489e+001 0.0000000e+000
         vertex 4.3470762e+001 8.5868219e+001 0.0000000e+000
         vertex 4.9232321e+001 1.0197070e+002 0.0000000e+000
      endloop
   endfacet
   facet normal 0.0000000e+000 0.0000000e+000 -1.0000000e+000
      outer loop
         vertex 4.5958019e+001 8.8898950e+001 0.0000000e+000
         vertex 4.4788835e+001 8.7322489e+001 0.0000000e+000
         vertex 4.9232321e+001 1.0197070e+002 0.0000000e+000
      endloop
   endfacet
   facet normal 0.0000000e+000 0.0000000e+000 -1.0000000e+000
      outer loop
         vertex 4.6967052e+001 9.0582420e+001 0.0000000e+000
         vertex 4.5958019e+001 8.8898950e+001 0.0000000e+000
         vertex 4.9232321e+001 1.0197070e+002 0.0000000e+000
      endloop
   endfacet
   facet normal 0.0000000e+000 0.0000000e+000 -1.0000000e+000
      outer loop
         vertex 4.7806217e+001 9.2356686e+001 0.0000000e+000
         vertex 4.6967052e+001 9.0582420e+001 0.0000000e+000
         vertex 4.9232321e+001 1.0197070e+002 0.0000000e+000
      endloop
   endfacet
   facet normal 0.0000000e+000 0.0000000e+000 -1.0000000e+000
      outer loop
         vertex 4.8467433e+001 9.4204661e+001 0.0000000e+000
         vertex 4.7806217e+001 9.2356686e+001 0.0000000e+000
         vertex 4.9232321e+001 1.0197070e+002 0.0000000e+000
      endloop
   endfacet
   facet normal 0.0000000e+000 0.0000000e+000 -1.0000000e+000
      outer loop
         vertex 4.8944332e+001 9.6108548e+001 0.0000000e+000
         vertex 4.8467433e+001 9.4204661e+001 0.0000000e+000
         vertex 4.9232321e+001 1.0197070e+002 0.0000000e+000
      endloop
   endfacet
   facet normal 0.0000000e+000 0.0000000e+000 -1.0000000e+000
      outer loop
         vertex 4.9232321e+001 9.8050012e+001 0.0000000e+000
         vertex 4.8944332e+001 9.6108548e+001 0.0000000e+000
         vertex 4.9232321e+001 1.0197070e+002 0.0000000e+000
      endloop
   endfacet
   facet normal 0.0000000e+000 0.0000000e+000 -1.0000000e+000
      outer loop
         vertex 4.9232321e+001 9.8050012e+001 0.0000000e+000
         vertex 4.9232321e+001 1.0197070e+002 0.0000000e+000
         vertex 4.9328626e+001 1.0001035e+002 0.0000000e+000
      endloop
   endfacet
endsolid AutoCAD
